<svg xmlns="http://www.w3.org/2000/svg" xmlns:xlink="http://www.w3.org/1999/xlink" width="1600" zoomAndPan="magnify" viewBox="0 0 1200 675.000002" height="900" preserveAspectRatio="xMidYMid meet" version="1.0"><defs><g/><clipPath id="ec853cc96d"><path d="M 0.886719 0 L 1199.113281 0 L 1199.113281 674 L 0.886719 674 Z M 0.886719 0 " clip-rule="nonzero"/></clipPath><clipPath id="284f047893"><path d="M 420.664062 29.34375 L 500.527344 29.34375 L 500.527344 130.277344 L 420.664062 130.277344 Z M 420.664062 29.34375 " clip-rule="nonzero"/></clipPath><clipPath id="13e81c332e"><path d="M 0.664062 0.34375 L 80.527344 0.34375 L 80.527344 101.277344 L 0.664062 101.277344 Z M 0.664062 0.34375 " clip-rule="nonzero"/></clipPath><clipPath id="0c5ec2d8e7"><rect x="0" width="81" y="0" height="102"/></clipPath><clipPath id="eb5d522c57"><path d="M 421.164062 29.460938 L 540.203125 29.460938 L 540.203125 77.441406 L 421.164062 77.441406 Z M 421.164062 29.460938 " clip-rule="nonzero"/></clipPath><clipPath id="f1d881d7be"><path d="M 0.164062 0.460938 L 119.203125 0.460938 L 119.203125 48.441406 L 0.164062 48.441406 Z M 0.164062 0.460938 " clip-rule="nonzero"/></clipPath><clipPath id="faf177beac"><rect x="0" width="120" y="0" height="49"/></clipPath><clipPath id="d6b5efc20c"><path d="M 526.792969 45.730469 L 552.960938 45.730469 L 552.960938 68.734375 L 526.792969 68.734375 Z M 526.792969 45.730469 " clip-rule="nonzero"/></clipPath><clipPath id="fdf5c31a94"><path d="M 0.792969 0.730469 L 26.960938 0.730469 L 26.960938 23.734375 L 0.792969 23.734375 Z M 0.792969 0.730469 " clip-rule="nonzero"/></clipPath><clipPath id="7a13f58b15"><rect x="0" width="27" y="0" height="24"/></clipPath><clipPath id="85ed932bce"><path d="M 776.636719 242.285156 L 955.195312 242.285156 L 955.195312 414.484375 L 776.636719 414.484375 Z M 776.636719 242.285156 " clip-rule="nonzero"/></clipPath><clipPath id="7beb490a81"><path d="M 0.636719 0.285156 L 179 0.285156 L 179 172.484375 L 0.636719 172.484375 Z M 0.636719 0.285156 " clip-rule="nonzero"/></clipPath><clipPath id="6a466551ce"><rect x="0" width="180" y="0" height="173"/></clipPath><clipPath id="04351aeebc"><path d="M 777.328125 42.675781 L 954.753906 42.675781 L 954.753906 230.589844 L 777.328125 230.589844 Z M 777.328125 42.675781 " clip-rule="nonzero"/></clipPath><clipPath id="944561b80d"><path d="M 0.328125 0.675781 L 177.753906 0.675781 L 177.753906 188.589844 L 0.328125 188.589844 Z M 0.328125 0.675781 " clip-rule="nonzero"/></clipPath><clipPath id="7bab37c622"><rect x="0" width="178" y="0" height="189"/></clipPath><clipPath id="f2c195ff4c"><path d="M 762.796875 179.023438 L 808.414062 179.023438 L 808.414062 205.367188 L 762.796875 205.367188 Z M 762.796875 179.023438 " clip-rule="nonzero"/></clipPath><clipPath id="9af1b32afb"><path d="M 0.796875 0.0234375 L 46.414062 0.0234375 L 46.414062 26.367188 L 0.796875 26.367188 Z M 0.796875 0.0234375 " clip-rule="nonzero"/></clipPath><clipPath id="f0ae8776bd"><rect x="0" width="47" y="0" height="27"/></clipPath><clipPath id="400809e1e2"><path d="M 762.789062 340.789062 L 808.402344 340.789062 L 808.402344 367.136719 L 762.789062 367.136719 Z M 762.789062 340.789062 " clip-rule="nonzero"/></clipPath><clipPath id="5fd2612452"><path d="M 0.789062 0.789062 L 46.402344 0.789062 L 46.402344 27.136719 L 0.789062 27.136719 Z M 0.789062 0.789062 " clip-rule="nonzero"/></clipPath><clipPath id="f460dd6c50"><rect x="0" width="47" y="0" height="28"/></clipPath><clipPath id="a0e9db9dc8"><path d="M 776.703125 426.222656 L 955.003906 426.222656 L 955.003906 622.53125 L 776.703125 622.53125 Z M 776.703125 426.222656 " clip-rule="nonzero"/></clipPath><clipPath id="35437a2d85"><path d="M 0.703125 0.222656 L 179.003906 0.222656 L 179.003906 196.53125 L 0.703125 196.53125 Z M 0.703125 0.222656 " clip-rule="nonzero"/></clipPath><clipPath id="524ede52a2"><rect x="0" width="180" y="0" height="197"/></clipPath><clipPath id="f0d8ac0407"><path d="M 762.789062 471.324219 L 808.402344 471.324219 L 808.402344 497.667969 L 762.789062 497.667969 Z M 762.789062 471.324219 " clip-rule="nonzero"/></clipPath><clipPath id="9a22efbc7c"><path d="M 0.789062 0.324219 L 46.402344 0.324219 L 46.402344 26.667969 L 0.789062 26.667969 Z M 0.789062 0.324219 " clip-rule="nonzero"/></clipPath><clipPath id="67d12cebdf"><rect x="0" width="47" y="0" height="27"/></clipPath><clipPath id="b95d104dbe"><path d="M 420.925781 532.566406 L 484.199219 532.566406 L 484.199219 643.554688 L 420.925781 643.554688 Z M 420.925781 532.566406 " clip-rule="nonzero"/></clipPath><clipPath id="2be3c310a0"><path d="M 0.925781 0.566406 L 64.199219 0.566406 L 64.199219 111.554688 L 0.925781 111.554688 Z M 0.925781 0.566406 " clip-rule="nonzero"/></clipPath><clipPath id="60311aaed6"><rect x="0" width="65" y="0" height="112"/></clipPath><clipPath id="c270ff591c"><path d="M 434.601562 519.199219 L 456.351562 519.199219 L 456.351562 604.324219 L 434.601562 604.324219 Z M 434.601562 519.199219 " clip-rule="nonzero"/></clipPath><clipPath id="956ccddcf6"><path d="M 0.601562 0.199219 L 22.351562 0.199219 L 22.351562 85.324219 L 0.601562 85.324219 Z M 0.601562 0.199219 " clip-rule="nonzero"/></clipPath><clipPath id="9c554ec15c"><rect x="0" width="23" y="0" height="86"/></clipPath><clipPath id="eb733b3bed"><path d="M 703.246094 532.566406 L 763.097656 532.566406 L 763.097656 643.554688 L 703.246094 643.554688 Z M 703.246094 532.566406 " clip-rule="nonzero"/></clipPath><clipPath id="94323913a7"><path d="M 0.246094 0.566406 L 60.097656 0.566406 L 60.097656 111.554688 L 0.246094 111.554688 Z M 0.246094 0.566406 " clip-rule="nonzero"/></clipPath><clipPath id="0c03540145"><rect x="0" width="61" y="0" height="112"/></clipPath><clipPath id="c753cdb189"><path d="M 728.71875 518.898438 L 750.128906 518.898438 L 750.128906 604.324219 L 728.71875 604.324219 Z M 728.71875 518.898438 " clip-rule="nonzero"/></clipPath><clipPath id="6608ecb86f"><path d="M 0.71875 0.898438 L 22.128906 0.898438 L 22.128906 86.324219 L 0.71875 86.324219 Z M 0.71875 0.898438 " clip-rule="nonzero"/></clipPath><clipPath id="d74a32346b"><rect x="0" width="23" y="0" height="87"/></clipPath><clipPath id="34f72a15a8"><path d="M 243.164062 42.277344 L 406.527344 42.277344 L 406.527344 625.230469 L 243.164062 625.230469 Z M 243.164062 42.277344 " clip-rule="nonzero"/></clipPath><clipPath id="1514a3745e"><path d="M 0.164062 0.277344 L 163.527344 0.277344 L 163.527344 583.230469 L 0.164062 583.230469 Z M 0.164062 0.277344 " clip-rule="nonzero"/></clipPath><clipPath id="8c86d2c5d7"><rect x="0" width="164" y="0" height="584"/></clipPath><clipPath id="de07b2ffd6"><path d="M 367.453125 399.878906 L 421.375 399.878906 L 421.375 426.660156 L 367.453125 426.660156 Z M 367.453125 399.878906 " clip-rule="nonzero"/></clipPath><clipPath id="865a269007"><path d="M 0.453125 0.878906 L 54.375 0.878906 L 54.375 27.660156 L 0.453125 27.660156 Z M 0.453125 0.878906 " clip-rule="nonzero"/></clipPath><clipPath id="d152b47a43"><rect x="0" width="55" y="0" height="28"/></clipPath><clipPath id="d76e4675b3"><path d="M 641.203125 29.695312 L 762.789062 29.695312 L 762.789062 138.128906 L 641.203125 138.128906 Z M 641.203125 29.695312 " clip-rule="nonzero"/></clipPath><clipPath id="3439055d7f"><path d="M 0.203125 0.695312 L 121.789062 0.695312 L 121.789062 109.128906 L 0.203125 109.128906 Z M 0.203125 0.695312 " clip-rule="nonzero"/></clipPath><clipPath id="d5e94848e4"><rect x="0" width="122" y="0" height="110"/></clipPath><clipPath id="0cc8461894"><path d="M 671.996094 43.125 L 707.019531 43.125 L 707.019531 151.039062 L 671.996094 151.039062 Z M 671.996094 43.125 " clip-rule="nonzero"/></clipPath><clipPath id="02854ba4cd"><path d="M 0.996094 0.125 L 36.019531 0.125 L 36.019531 108.039062 L 0.996094 108.039062 Z M 0.996094 0.125 " clip-rule="nonzero"/></clipPath><clipPath id="0e2f646880"><rect x="0" width="37" y="0" height="109"/></clipPath><clipPath id="f71f44ef33"><path d="M 455.566406 154.375 L 637.976562 154.375 L 637.976562 233.828125 L 455.566406 233.828125 Z M 455.566406 154.375 " clip-rule="nonzero"/></clipPath><clipPath id="f0238789d6"><path d="M 0.566406 0.375 L 182.976562 0.375 L 182.976562 79.828125 L 0.566406 79.828125 Z M 0.566406 0.375 " clip-rule="nonzero"/></clipPath><clipPath id="503b35a2c9"><rect x="0" width="183" y="0" height="80"/></clipPath><clipPath id="e180d126b3"><path d="M 579.035156 150.800781 L 762.851562 150.800781 L 762.851562 233.59375 L 579.035156 233.59375 Z M 579.035156 150.800781 " clip-rule="nonzero"/></clipPath><clipPath id="bd84c47451"><path d="M 0.0351562 0.800781 L 183.851562 0.800781 L 183.851562 83.59375 L 0.0351562 83.59375 Z M 0.0351562 0.800781 " clip-rule="nonzero"/></clipPath><clipPath id="c74c6530b8"><rect x="0" width="184" y="0" height="84"/></clipPath><clipPath id="5af291db75"><path d="M 567.210938 29.742188 L 628.738281 29.742188 L 628.738281 157.503906 L 567.210938 157.503906 Z M 567.210938 29.742188 " clip-rule="nonzero"/></clipPath><clipPath id="4a9ebf3432"><path d="M 0.210938 0.742188 L 61.738281 0.742188 L 61.738281 128.503906 L 0.210938 128.503906 Z M 0.210938 0.742188 " clip-rule="nonzero"/></clipPath><clipPath id="8a5b85c174"><rect x="0" width="62" y="0" height="129"/></clipPath><clipPath id="71d4e253dd"><path d="M 421.164062 195.601562 L 465.113281 195.601562 L 465.113281 519.199219 L 421.164062 519.199219 Z M 421.164062 195.601562 " clip-rule="nonzero"/></clipPath><clipPath id="f941e41d7e"><path d="M 0.164062 0.601562 L 44.113281 0.601562 L 44.113281 324.199219 L 0.164062 324.199219 Z M 0.164062 0.601562 " clip-rule="nonzero"/></clipPath><clipPath id="5d856ee9e5"><rect x="0" width="45" y="0" height="325"/></clipPath><clipPath id="276dac53b7"><path d="M 552.878906 29.738281 L 613.957031 29.738281 L 613.957031 77.503906 L 552.878906 77.503906 Z M 552.878906 29.738281 " clip-rule="nonzero"/></clipPath><clipPath id="6894f5492e"><path d="M 0.878906 0.738281 L 61.957031 0.738281 L 61.957031 48.503906 L 0.878906 48.503906 Z M 0.878906 0.738281 " clip-rule="nonzero"/></clipPath><clipPath id="3ec99cc61b"><rect x="0" width="62" y="0" height="49"/></clipPath><clipPath id="23cfe2163d"><path d="M 421.375 144.460938 L 500.292969 144.460938 L 500.292969 232.074219 L 421.375 232.074219 Z M 421.375 144.460938 " clip-rule="nonzero"/></clipPath><clipPath id="c690a9b6e6"><path d="M 0.375 0.460938 L 79.292969 0.460938 L 79.292969 88.074219 L 0.375 88.074219 Z M 0.375 0.460938 " clip-rule="nonzero"/></clipPath><clipPath id="da2d8833d6"><rect x="0" width="80" y="0" height="89"/></clipPath><clipPath id="fa6dfe1ea0"><path d="M 720.992188 233.078125 L 762.796875 233.078125 L 762.796875 518.828125 L 720.992188 518.828125 Z M 720.992188 233.078125 " clip-rule="nonzero"/></clipPath><clipPath id="599e25fbe6"><path d="M 0.992188 0.078125 L 42.796875 0.078125 L 42.796875 285.828125 L 0.992188 285.828125 Z M 0.992188 0.078125 " clip-rule="nonzero"/></clipPath><clipPath id="15877ba047"><rect x="0" width="43" y="0" height="286"/></clipPath><clipPath id="a8b4d8040e"><path d="M 777.085938 204.246094 L 822.703125 204.246094 L 822.703125 230.589844 L 777.085938 230.589844 Z M 777.085938 204.246094 " clip-rule="nonzero"/></clipPath><clipPath id="cd056af5d5"><path d="M 0.0859375 0.246094 L 45.703125 0.246094 L 45.703125 26.589844 L 0.0859375 26.589844 Z M 0.0859375 0.246094 " clip-rule="nonzero"/></clipPath><clipPath id="ee5f14cfdb"><rect x="0" width="46" y="0" height="27"/></clipPath><clipPath id="4abd465b89"><rect x="0" width="67" y="0" height="18"/></clipPath><clipPath id="918b857d8e"><path d="M 498.421875 378.859375 L 688.222656 378.859375 L 688.222656 623.820312 L 498.421875 623.820312 Z M 498.421875 378.859375 " clip-rule="nonzero"/></clipPath><clipPath id="4179c9c71e"><path d="M 0.421875 0.859375 L 190.222656 0.859375 L 190.222656 245.820312 L 0.421875 245.820312 Z M 0.421875 0.859375 " clip-rule="nonzero"/></clipPath><clipPath id="49ce4eed81"><rect x="0" width="191" y="0" height="246"/></clipPath><clipPath id="590d73f5ce"><path d="M 468.136719 346.992188 L 717.996094 346.992188 L 717.996094 519.453125 L 468.136719 519.453125 Z M 468.136719 346.992188 " clip-rule="nonzero"/></clipPath><clipPath id="fc0f74a788"><path d="M 0.136719 0.992188 L 249.996094 0.992188 L 249.996094 173.453125 L 0.136719 173.453125 Z M 0.136719 0.992188 " clip-rule="nonzero"/></clipPath><clipPath id="a82a858927"><rect x="0" width="250" y="0" height="174"/></clipPath><clipPath id="4acb17a66d"><path d="M 468.109375 236.074219 L 502.9375 236.074219 L 502.9375 408.539062 L 468.109375 408.539062 Z M 468.109375 236.074219 " clip-rule="nonzero"/></clipPath><clipPath id="6e449feb58"><path d="M 0.109375 0.0742188 L 34.9375 0.0742188 L 34.9375 172.539062 L 0.109375 172.539062 Z M 0.109375 0.0742188 " clip-rule="nonzero"/></clipPath><clipPath id="d8b2c43767"><rect x="0" width="35" y="0" height="173"/></clipPath><clipPath id="b8042642b1"><path d="M 684.308594 236.28125 L 717.996094 236.28125 L 717.996094 407.992188 L 684.308594 407.992188 Z M 684.308594 236.28125 " clip-rule="nonzero"/></clipPath><clipPath id="14e8e02d14"><path d="M 0.308594 0.28125 L 33.996094 0.28125 L 33.996094 171.992188 L 0.308594 171.992188 Z M 0.308594 0.28125 " clip-rule="nonzero"/></clipPath><clipPath id="93d01f9022"><rect x="0" width="34" y="0" height="172"/></clipPath></defs><g clip-path="url(#ec853cc96d)"><path fill="#ffffff" d="M 0.886719 0 L 1199.113281 0 L 1199.113281 674 L 0.886719 674 Z M 0.886719 0 " fill-opacity="1" fill-rule="nonzero"/><path fill="#ffffff" d="M 0.886719 0 L 1199.113281 0 L 1199.113281 674 L 0.886719 674 Z M 0.886719 0 " fill-opacity="1" fill-rule="nonzero"/></g><path stroke-linecap="butt" transform="matrix(-0.000184365, -0.74889, 0.74889, -0.000184365, 966.706851, 636.828418)" fill="none" stroke-linejoin="miter" d="M -0.000100883 1.997987 L 812.394457 1.999776 " stroke="#000000" stroke-width="4" stroke-opacity="1" stroke-miterlimit="4"/><path stroke-linecap="butt" transform="matrix(-0.74889, 0.00057784, -0.00057784, -0.74889, 968.05761, 636.829065)" fill="none" stroke-linejoin="miter" d="M 0.00236029 1.999004 L 259.203594 2.000793 " stroke="#000000" stroke-width="4" stroke-opacity="1" stroke-miterlimit="4"/><path stroke-linecap="butt" transform="matrix(-0.748891, 0, 0, -0.748891, 776.885348, 655.773478)" fill="none" stroke-linejoin="miter" d="M -0.00183067 1.997801 L 117.599223 1.997801 " stroke="#000000" stroke-width="4" stroke-opacity="1" stroke-miterlimit="4"/><path stroke-linecap="butt" transform="matrix(0, 0.748891, -0.748891, 0, 776.93215, 636.385985)" fill="none" stroke-linejoin="miter" d="M 0.000979408 2.001036 L 25.731752 2.001036 " stroke="#000000" stroke-width="4" stroke-opacity="1" stroke-miterlimit="4"/><path stroke-linecap="butt" transform="matrix(-0.748891, 0.00000000130706, -0.00000000130706, -0.748891, 691.091277, 636.978843)" fill="none" stroke-linejoin="miter" d="M 0.0019144 2.000792 L 261.117357 2.000793 " stroke="#000000" stroke-width="4" stroke-opacity="1" stroke-miterlimit="4"/><path stroke-linecap="butt" transform="matrix(0, 0.748891, -0.748891, 0, 691.314483, 633.928929)" fill="none" stroke-linejoin="miter" d="M 0.00101222 2.000395 L 29.137865 2.000395 " stroke="#000000" stroke-width="4" stroke-opacity="1" stroke-miterlimit="4"/><path stroke-linecap="butt" transform="matrix(-0.74889, -0.000555285, 0.000555285, -0.74889, 498.404675, 656.355216)" fill="none" stroke-linejoin="miter" d="M -0.000622703 1.997411 L 123.546769 1.999693 " stroke="#000000" stroke-width="4" stroke-opacity="1" stroke-miterlimit="4"/><path stroke-linecap="butt" transform="matrix(0.00000000130706, -0.748891, 0.748891, 0.00000000130706, 495.564738, 656.24486)" fill="none" stroke-linejoin="miter" d="M -0.00164749 1.999975 L 27.732088 1.999975 " stroke="#000000" stroke-width="4" stroke-opacity="1" stroke-miterlimit="4"/><path stroke-linecap="butt" transform="matrix(0, -0.748891, 0.748891, 0, 405.742188, 655.892486)" fill="none" stroke-linejoin="miter" d="M 0.00248502 1.997746 L 29.535758 1.997746 " stroke="#000000" stroke-width="4" stroke-opacity="1" stroke-miterlimit="4"/><path stroke-linecap="butt" transform="matrix(-0.748891, 0, 0, -0.748891, 408.35542, 636.829065)" fill="none" stroke-linejoin="miter" d="M -0.0000646634 1.999002 L 237.705747 1.999002 " stroke="#000000" stroke-width="4" stroke-opacity="1" stroke-miterlimit="4"/><path stroke-linecap="butt" transform="matrix(0, -0.748891, 0.748891, 0, 230.294965, 636.381073)" fill="none" stroke-linejoin="miter" d="M -0.00232336 2.000297 L 811.797554 2.000297 " stroke="#000000" stroke-width="4" stroke-opacity="1" stroke-miterlimit="4"/><path stroke-linecap="butt" transform="matrix(-0.74889, -0.000547216, 0.000547216, -0.74889, 408.83356, 31.559531)" fill="none" stroke-linejoin="miter" d="M -0.00171409 1.999 L 238.293567 2.002223 " stroke="#000000" stroke-width="4" stroke-opacity="1" stroke-miterlimit="4"/><path stroke-linecap="butt" transform="matrix(-0.748891, 0, 0, -0.748891, 728.708323, 521.824167)" fill="none" stroke-linejoin="miter" d="M 0.0017249 1.997678 L 54.076511 1.997678 " stroke="#000000" stroke-width="4" stroke-opacity="1" stroke-miterlimit="4"/><path stroke-linecap="butt" transform="matrix(-0.748891, 0, 0, -0.748891, 498.522508, 521.701828)" fill="none" stroke-linejoin="miter" d="M -0.00124122 2.001231 L 56.551168 2.001231 " stroke="#000000" stroke-width="4" stroke-opacity="1" stroke-miterlimit="4"/><path stroke-linecap="butt" transform="matrix(0, -0.748891, 0.748891, 0, 688.138468, 625.790131)" fill="none" stroke-linejoin="miter" d="M 0.00142712 2.000627 L 142.336988 2.000627 " stroke="#000000" stroke-width="4" stroke-opacity="1" stroke-miterlimit="4"/><path stroke-linecap="butt" transform="matrix(0, -0.748891, 0.748891, 0, 495.529055, 624.594231)" fill="none" stroke-linejoin="miter" d="M 0.000642288 2.000678 L 140.734876 2.000678 " stroke="#000000" stroke-width="4" stroke-opacity="1" stroke-miterlimit="4"/><path stroke-linecap="butt" transform="matrix(-0.748891, 0, 0, -0.748891, 776.575942, 20.641823)" fill="none" stroke-linejoin="miter" d="M 0.00230129 1.999346 L 493.451024 1.999346 " stroke="#000000" stroke-width="4" stroke-opacity="1" stroke-miterlimit="4"/><path stroke-linecap="butt" transform="matrix(0, -0.748891, 0.748891, 0, 406.1469, 31.493981)" fill="none" stroke-linejoin="miter" d="M 0.00239492 1.9998 L 18.498507 1.9998 " stroke="#000000" stroke-width="4" stroke-opacity="1" stroke-miterlimit="4"/><path stroke-linecap="butt" transform="matrix(-0.748891, 0.000000193445, -0.000000193445, -0.748891, 969.554337, 31.239709)" fill="none" stroke-linejoin="miter" d="M -0.00046885 1.999654 L 261.203646 1.999721 " stroke="#000000" stroke-width="4" stroke-opacity="1" stroke-miterlimit="4"/><path stroke-linecap="butt" transform="matrix(0, -0.748891, 0.748891, 0, 773.900666, 30.19342)" fill="none" stroke-linejoin="miter" d="M -0.00252686 1.999988 L 16.75664 1.999988 " stroke="#000000" stroke-width="4" stroke-opacity="1" stroke-miterlimit="4"/><path stroke-linecap="butt" transform="matrix(-0.748891, 0.00000000130706, -0.00000000130706, -0.748891, 691.091277, 626.092084)" fill="none" stroke-linejoin="miter" d="M 0.0019144 2.000738 L 261.117357 2.000739 " stroke="#000000" stroke-width="4" stroke-opacity="1" stroke-miterlimit="4"/><path stroke-linecap="butt" transform="matrix(-0.748891, 0, 0, -0.748891, 408.840725, 627.850694)" fill="none" stroke-linejoin="miter" d="M 0.00117719 2.001804 L 223.660167 2.001804 " stroke="#000000" stroke-width="4" stroke-opacity="1" stroke-miterlimit="4"/><path stroke-linecap="butt" transform="matrix(0.00000000130706, -0.748891, 0.748891, 0.00000000130706, 240.126304, 627.846309)" fill="none" stroke-linejoin="miter" d="M -0.00179901 2.001222 L 783.996534 2.00122 " stroke="#000000" stroke-width="4" stroke-opacity="1" stroke-miterlimit="4"/><path stroke-linecap="butt" transform="matrix(-0.74889, 0.00036568, -0.00036568, -0.74889, 408.842571, 42.782419)" fill="none" stroke-linejoin="miter" d="M -0.00255112 1.999306 L 225.252586 1.999761 " stroke="#000000" stroke-width="4" stroke-opacity="1" stroke-miterlimit="4"/><path stroke-linecap="butt" transform="matrix(0, -0.748891, 0.748891, 0, 406.146157, 627.845015)" fill="none" stroke-linejoin="miter" d="M 0.00168903 2.000792 L 269.233304 2.000792 " stroke="#000000" stroke-width="4" stroke-opacity="1" stroke-miterlimit="4"/><path stroke-linecap="butt" transform="matrix(-0.748891, 0, 0, -0.748891, 434.59791, 522.195113)" fill="none" stroke-linejoin="miter" d="M 0.000338227 1.997481 L 20.989722 1.997481 " stroke="#000000" stroke-width="4" stroke-opacity="1" stroke-miterlimit="4"/><path stroke-linecap="butt" transform="matrix(0, -0.748891, 0.748891, 0, 417.995834, 644.907377)" fill="none" stroke-linejoin="miter" d="M 0.00150445 1.998094 L 153.723702 1.998094 " stroke="#000000" stroke-width="4" stroke-opacity="1" stroke-miterlimit="4"/><path stroke-linecap="butt" transform="matrix(-0.748891, 0, 0, -0.748891, 434.597622, 532.580224)" fill="none" stroke-linejoin="miter" d="M -0.0000457728 2.000549 L 21.990819 2.000549 " stroke="#000000" stroke-width="4" stroke-opacity="1" stroke-miterlimit="4"/><path stroke-linecap="butt" transform="matrix(-0.748891, -0.00000000130706, 0.00000000130706, -0.748891, 485.783581, 532.485851)" fill="none" stroke-linejoin="miter" d="M -0.00210353 1.999718 L 38.967003 1.999718 " stroke="#000000" stroke-width="4" stroke-opacity="1" stroke-miterlimit="4"/><path stroke-linecap="butt" transform="matrix(0.00000000130706, -0.748891, 0.748891, 0.00000000130706, 456.048626, 532.41506)" fill="none" stroke-linejoin="miter" d="M 0.00133239 2.000625 L 17.850654 2.000625 " stroke="#000000" stroke-width="4" stroke-opacity="1" stroke-miterlimit="4"/><path stroke-linecap="butt" transform="matrix(0.00000000130706, -0.748891, 0.748891, 0.00000000130706, 431.752485, 532.265282)" fill="none" stroke-linejoin="miter" d="M -0.000457727 1.999645 L 17.848864 1.999645 " stroke="#000000" stroke-width="4" stroke-opacity="1" stroke-miterlimit="4"/><path stroke-linecap="butt" transform="matrix(0.00000000130706, -0.748891, 0.748891, 0.00000000130706, 418.375983, 399.874492)" fill="none" stroke-linejoin="miter" d="M -0.000678006 2.001651 L 345.061866 2.00165 " stroke="#000000" stroke-width="4" stroke-opacity="1" stroke-miterlimit="4"/><path stroke-linecap="butt" transform="matrix(-0.748891, 0, 0, -0.748891, 503.146841, 144.462724)" fill="none" stroke-linejoin="miter" d="M -0.00213193 2.000132 L 111.511792 2.000132 " stroke="#000000" stroke-width="4" stroke-opacity="1" stroke-miterlimit="4"/><path stroke-linecap="butt" transform="matrix(-0.748891, 0, 0, -0.748891, 565.709225, 154.365484)" fill="none" stroke-linejoin="miter" d="M -0.00228608 2.000688 L 85.989507 2.000688 " stroke="#000000" stroke-width="4" stroke-opacity="1" stroke-miterlimit="4"/><path stroke-linecap="butt" transform="matrix(0, -0.748891, 0.748891, 0, 500.252313, 154.373953)" fill="none" stroke-linejoin="miter" d="M -0.00139852 1.999874 L 17.232429 1.999874 " stroke="#000000" stroke-width="4" stroke-opacity="1" stroke-miterlimit="4"/><path stroke-linecap="butt" transform="matrix(-0.748891, 0, 0, -0.748891, 543.142698, 29.673684)" fill="none" stroke-linejoin="miter" d="M -0.00244763 2.000162 L 166.806818 2.000162 " stroke="#000000" stroke-width="4" stroke-opacity="1" stroke-miterlimit="4"/><path stroke-linecap="butt" transform="matrix(0, -0.748891, 0.748891, 0, 418.146834, 133.26763)" fill="none" stroke-linejoin="miter" d="M -0.00253861 1.999888 L 142.145245 1.999888 " stroke="#000000" stroke-width="4" stroke-opacity="1" stroke-miterlimit="4"/><path stroke-linecap="butt" transform="matrix(-0.748891, 0, 0, -0.748891, 957.37836, 42.782419)" fill="none" stroke-linejoin="miter" d="M -0.000729778 1.999307 L 243.630514 1.999307 " stroke="#000000" stroke-width="4" stroke-opacity="1" stroke-miterlimit="4"/><path stroke-linecap="butt" transform="matrix(-0.748891, 0, 0, -0.748891, 764.613297, 151.037194)" fill="none" stroke-linejoin="miter" d="M 0.0000211222 2.000468 L 76.905456 2.000468 " stroke="#000000" stroke-width="4" stroke-opacity="1" stroke-miterlimit="4"/><path stroke-linecap="butt" transform="matrix(0, -0.748891, 0.748891, 0, 638.526593, 141.160219)" fill="none" stroke-linejoin="miter" d="M 0.0000844281 1.998749 L 152.89293 1.998749 " stroke="#000000" stroke-width="4" stroke-opacity="1" stroke-miterlimit="4"/><path stroke-linecap="butt" transform="matrix(-0.748891, 0, 0, -0.748891, 671.985966, 151.037194)" fill="none" stroke-linejoin="miter" d="M 0.00212492 2.000468 L 55.761695 2.000468 " stroke="#000000" stroke-width="4" stroke-opacity="1" stroke-miterlimit="4"/><path stroke-linecap="butt" transform="matrix(0.00000000130706, -0.748891, 0.748891, 0.00000000130706, 484.024659, 645.056388)" fill="none" stroke-linejoin="miter" d="M 0.00227057 2.001332 L 154.319098 2.001332 " stroke="#000000" stroke-width="4" stroke-opacity="1" stroke-miterlimit="4"/><path stroke-linecap="butt" transform="matrix(-0.748891, 0.00000000130706, -0.00000000130706, -0.748891, 487.119194, 646.551077)" fill="none" stroke-linejoin="miter" d="M -0.00253649 1.998143 L 92.316325 1.998143 " stroke="#000000" stroke-width="4" stroke-opacity="1" stroke-miterlimit="4"/><path stroke-linecap="butt" transform="matrix(0.00000000130706, -0.748891, 0.748891, 0.00000000130706, 418.376246, 522.164966)" fill="none" stroke-linejoin="miter" d="M 0.0012065 2.001299 L 127.528403 2.001299 " stroke="#000000" stroke-width="4" stroke-opacity="1" stroke-miterlimit="4"/><path stroke-linecap="butt" transform="matrix(0, -0.748891, 0.748891, 0, 406.149297, 399.877009)" fill="none" stroke-linejoin="miter" d="M -0.00253406 2.001816 L 480.833781 2.001816 " stroke="#000000" stroke-width="4" stroke-opacity="1" stroke-miterlimit="4"/><path stroke-linecap="butt" transform="matrix(-0.748891, 0, 0, -0.748891, 422.428451, 399.879525)" fill="none" stroke-linejoin="miter" d="M -0.00165132 1.998573 L 19.73588 1.998573 " stroke="#000000" stroke-width="4" stroke-opacity="1" stroke-miterlimit="4"/><path stroke-linecap="butt" transform="matrix(-0.748891, 0, 0, -0.748891, 421.37478, 429.478084)" fill="none" stroke-linejoin="miter" d="M -0.000293929 1.999778 L 19.737238 1.999778 " stroke="#000000" stroke-width="4" stroke-opacity="1" stroke-miterlimit="4"/><path stroke-linecap="butt" transform="matrix(0, -0.748891, 0.748891, 0, 955.0076, 625.190372)" fill="none" stroke-linejoin="miter" d="M -0.0013813 1.998031 L 269.694462 1.998031 " stroke="#000000" stroke-width="4" stroke-opacity="1" stroke-miterlimit="4"/><path stroke-linecap="butt" transform="matrix(-0.748891, 0, 0, -0.748891, 957.698525, 625.333536)" fill="none" stroke-linejoin="miter" d="M -0.000925844 1.999756 L 245.184701 1.999756 " stroke="#000000" stroke-width="4" stroke-opacity="1" stroke-miterlimit="4"/><path stroke-linecap="butt" transform="matrix(-0.748891, -0.00000000130706, 0.00000000130706, -0.748891, 765.679765, 521.701828)" fill="none" stroke-linejoin="miter" d="M 0.000103589 2.001231 L 20.775629 2.001231 " stroke="#000000" stroke-width="4" stroke-opacity="1" stroke-miterlimit="4"/><path stroke-linecap="butt" transform="matrix(0.00000000130706, -0.748891, 0.748891, 0.00000000130706, 700.432566, 646.554936)" fill="none" stroke-linejoin="miter" d="M 0.000331527 1.999119 L 155.725492 1.999119 " stroke="#000000" stroke-width="4" stroke-opacity="1" stroke-miterlimit="4"/><path stroke-linecap="butt" transform="matrix(-0.748891, 0, 0, -0.748891, 766.015124, 646.557093)" fill="none" stroke-linejoin="miter" d="M -0.000668679 2.000959 L 87.342082 2.000959 " stroke="#000000" stroke-width="4" stroke-opacity="1" stroke-miterlimit="4"/><path stroke-linecap="butt" transform="matrix(0.00000000130706, 0.748891, -0.748891, 0.00000000130706, 765.97774, 529.492111)" fill="none" stroke-linejoin="miter" d="M 0.000102522 1.999319 L 155.714831 1.999319 " stroke="#000000" stroke-width="4" stroke-opacity="1" stroke-miterlimit="4"/><path stroke-linecap="butt" transform="matrix(-0.748891, -0.00000000130706, 0.00000000130706, -0.748891, 728.406778, 532.932022)" fill="none" stroke-linejoin="miter" d="M 0.000704725 2.000865 L 37.112898 2.000865 " stroke="#000000" stroke-width="4" stroke-opacity="1" stroke-miterlimit="4"/><path stroke-linecap="butt" transform="matrix(0.00000000130706, 0.748891, -0.748891, 0.00000000130706, 728.717765, 519.201828)" fill="none" stroke-linejoin="miter" d="M 0.00173192 2.001648 L 17.851054 2.001648 " stroke="#000000" stroke-width="4" stroke-opacity="1" stroke-miterlimit="4"/><path stroke-linecap="butt" transform="matrix(0, 0.748891, -0.748891, 0, 777.081689, 497.669009)" fill="none" stroke-linejoin="miter" d="M -0.00138944 2.002506 L 169.48371 2.002506 " stroke="#000000" stroke-width="4" stroke-opacity="1" stroke-miterlimit="4"/><path stroke-linecap="butt" transform="matrix(-0.748891, 0, 0, -0.748891, 765.840495, 532.580224)" fill="none" stroke-linejoin="miter" d="M 0.000869553 2.000549 L 21.214543 2.000549 " stroke="#000000" stroke-width="4" stroke-opacity="1" stroke-miterlimit="4"/><path stroke-linecap="butt" transform="matrix(0.00000000130706, 0.748891, -0.748891, 0.00000000130706, 753.121866, 519.201828)" fill="none" stroke-linejoin="miter" d="M 0.00173192 1.998778 L 17.851054 1.998778 " stroke="#000000" stroke-width="4" stroke-opacity="1" stroke-miterlimit="4"/><path stroke-linecap="butt" transform="matrix(0, 0.748891, -0.748891, 0, 765.738047, 497.675839)" fill="none" stroke-linejoin="miter" d="M -0.0000773412 1.997434 L 31.708288 1.997434 " stroke="#000000" stroke-width="4" stroke-opacity="1" stroke-miterlimit="4"/><path stroke-linecap="butt" transform="matrix(-0.748891, 0, 0, -0.748891, 956.50725, 426.143735)" fill="none" stroke-linejoin="miter" d="M -0.000750721 2.0019 L 243.781759 2.0019 " stroke="#000000" stroke-width="4" stroke-opacity="1" stroke-miterlimit="4"/><path stroke-linecap="butt" transform="matrix(-0.748891, 0, 0, -0.748891, 956.50725, 417.06481)" fill="none" stroke-linejoin="miter" d="M -0.000750721 2.000832 L 243.781759 2.000832 " stroke="#000000" stroke-width="4" stroke-opacity="1" stroke-miterlimit="4"/><path stroke-linecap="butt" transform="matrix(0, 0.748891, -0.748891, 0, 776.936536, 423.148916)" fill="none" stroke-linejoin="miter" d="M -0.000639366 2.001676 L 64.3289 2.001676 " stroke="#000000" stroke-width="4" stroke-opacity="1" stroke-miterlimit="4"/><path stroke-linecap="butt" transform="matrix(0, 0.748891, -0.748891, 0, 765.452174, 367.133613)" fill="none" stroke-linejoin="miter" d="M -0.00106881 2.001694 L 139.126622 2.001694 " stroke="#000000" stroke-width="4" stroke-opacity="1" stroke-miterlimit="4"/><path stroke-linecap="butt" transform="matrix(-0.748891, 0, 0, -0.748891, 776.132048, 500.664571)" fill="none" stroke-linejoin="miter" d="M -0.0010211 1.998426 L 17.238023 1.998426 " stroke="#000000" stroke-width="4" stroke-opacity="1" stroke-miterlimit="4"/><path stroke-linecap="butt" transform="matrix(-0.748891, 0.00000000130706, -0.00000000130706, -0.748891, 775.69309, 471.324479)" fill="none" stroke-linejoin="miter" d="M 0.0022485 1.998095 L 17.225644 1.998095 " stroke="#000000" stroke-width="4" stroke-opacity="1" stroke-miterlimit="4"/><path stroke-linecap="butt" transform="matrix(-0.0000000941084, 0.748891, -0.748891, -0.0000000941084, 776.936584, 367.132999)" fill="none" stroke-linejoin="miter" d="M -0.000249357 2.00174 L 64.32929 2.001732 " stroke="#000000" stroke-width="4" stroke-opacity="1" stroke-miterlimit="4"/><path stroke-linecap="butt" transform="matrix(-0.74889, -0.000941637, 0.000941637, -0.74889, 958.141126, 242.285799)" fill="none" stroke-linejoin="miter" d="M -0.00203449 1.998609 L 245.778416 2.002534 " stroke="#000000" stroke-width="4" stroke-opacity="1" stroke-miterlimit="4"/><path stroke-linecap="butt" transform="matrix(-0.748891, 0, 0, -0.748891, 957.84121, 233.57139)" fill="none" stroke-linejoin="miter" d="M 0.00182437 1.999186 L 245.578655 1.999186 " stroke="#000000" stroke-width="4" stroke-opacity="1" stroke-miterlimit="4"/><path stroke-linecap="butt" transform="matrix(0, 0.748891, -0.748891, 0, 958.094611, 240.560705)" fill="none" stroke-linejoin="miter" d="M 0.00239655 1.998896 L 235.700029 1.998896 " stroke="#000000" stroke-width="4" stroke-opacity="1" stroke-miterlimit="4"/><path stroke-linecap="butt" transform="matrix(-0.000586862, -0.74889, 0.74889, -0.000586862, 954.898298, 232.070216)" fill="none" stroke-linejoin="miter" d="M -0.00169442 1.997933 L 256.763642 2.000935 " stroke="#000000" stroke-width="4" stroke-opacity="1" stroke-miterlimit="4"/><path stroke-linecap="butt" transform="matrix(0, -0.748891, 0.748891, 0, 774.19876, 179.959606)" fill="none" stroke-linejoin="miter" d="M -0.0017777 1.99836 L 187.176162 1.99836 " stroke="#000000" stroke-width="4" stroke-opacity="1" stroke-miterlimit="4"/><path stroke-linecap="butt" transform="matrix(0, -0.748891, 0.748891, 0, 762.669057, 141.166172)" fill="none" stroke-linejoin="miter" d="M -0.00239887 2.001509 L 152.880014 2.001509 " stroke="#000000" stroke-width="4" stroke-opacity="1" stroke-miterlimit="4"/><path stroke-linecap="butt" transform="matrix(0, -0.748891, 0.748891, 0, 628.883519, 151.033331)" fill="none" stroke-linejoin="miter" d="M -0.00243772 2.002019 L 165.867939 2.002019 " stroke="#000000" stroke-width="4" stroke-opacity="1" stroke-miterlimit="4"/><path stroke-linecap="butt" transform="matrix(-0.748891, 0, 0, -0.748891, 764.482954, 29.673684)" fill="none" stroke-linejoin="miter" d="M -0.00189724 2.000162 L 166.129282 2.000162 " stroke="#000000" stroke-width="4" stroke-opacity="1" stroke-miterlimit="4"/><path stroke-linecap="butt" transform="matrix(-0.748891, -0.00000000130706, 0.00000000130706, -0.748891, 671.992628, 141.125833)" fill="none" stroke-linejoin="miter" d="M 0.000588826 1.998859 L 42.443584 1.998859 " stroke="#000000" stroke-width="4" stroke-opacity="1" stroke-miterlimit="4"/><path stroke-linecap="butt" transform="matrix(-0.748891, 0, 0, -0.748891, 764.192409, 141.125833)" fill="none" stroke-linejoin="miter" d="M 0.00133848 1.998859 L 76.917206 1.998859 " stroke="#000000" stroke-width="4" stroke-opacity="1" stroke-miterlimit="4"/><path stroke-linecap="butt" transform="matrix(0, -0.748891, 0.748891, 0, 669.14984, 151.037048)" fill="none" stroke-linejoin="miter" d="M 0.00252548 2.00109 L 17.236353 2.00109 " stroke="#000000" stroke-width="4" stroke-opacity="1" stroke-miterlimit="4"/><path stroke-linecap="butt" transform="matrix(0, -0.748891, 0.748891, 0, 706.680542, 151.037048)" fill="none" stroke-linejoin="miter" d="M 0.00252548 2.001823 L 17.236353 2.001823 " stroke="#000000" stroke-width="4" stroke-opacity="1" stroke-miterlimit="4"/><path stroke-linecap="butt" transform="matrix(0, -0.748891, 0.748891, 0, 773.940567, 340.789751)" fill="none" stroke-linejoin="miter" d="M 0.000920007 1.998868 L 135.503456 1.998868 " stroke="#000000" stroke-width="4" stroke-opacity="1" stroke-miterlimit="4"/><path stroke-linecap="butt" transform="matrix(-0.748891, 0, 0, -0.748891, 777.331279, 370.127771)" fill="none" stroke-linejoin="miter" d="M -0.00100433 2.001447 L 19.418348 2.001447 " stroke="#000000" stroke-width="4" stroke-opacity="1" stroke-miterlimit="4"/><path stroke-linecap="butt" transform="matrix(-0.748891, 0, 0, -0.748891, 777.320447, 340.790952)" fill="none" stroke-linejoin="miter" d="M 0.000179823 2.00027 L 19.419532 2.00027 " stroke="#000000" stroke-width="4" stroke-opacity="1" stroke-miterlimit="4"/><path stroke-linecap="butt" transform="matrix(0.00138475, -0.748889, 0.748889, 0.00138475, 762.452994, 340.779864)" fill="none" stroke-linejoin="miter" d="M 0.00184321 1.997923 L 180.826951 1.997391 " stroke="#000000" stroke-width="4" stroke-opacity="1" stroke-miterlimit="4"/><path stroke-linecap="butt" transform="matrix(0, -0.748891, 0.748891, 0, 773.940782, 232.072629)" fill="none" stroke-linejoin="miter" d="M -0.0021224 1.99858 L 35.660009 1.99858 " stroke="#000000" stroke-width="4" stroke-opacity="1" stroke-miterlimit="4"/><path stroke-linecap="butt" transform="matrix(0, -0.748891, 0.748891, 0, 762.665487, 179.019546)" fill="none" stroke-linejoin="miter" d="M 0.0000198542 2.001061 L 41.373725 2.001061 " stroke="#000000" stroke-width="4" stroke-opacity="1" stroke-miterlimit="4"/><path stroke-linecap="butt" transform="matrix(-0.748891, -0.00000000130706, 0.00000000130706, -0.748891, 775.693905, 179.024519)" fill="none" stroke-linejoin="miter" d="M -0.00187955 1.999191 L 17.24238 1.999191 " stroke="#000000" stroke-width="4" stroke-opacity="1" stroke-miterlimit="4"/><path stroke-linecap="butt" transform="matrix(-0.748891, 0, 0, -0.748891, 776.126919, 208.364584)" fill="none" stroke-linejoin="miter" d="M 0.002563 1.999487 L 17.825804 1.999487 " stroke="#000000" stroke-width="4" stroke-opacity="1" stroke-miterlimit="4"/><path stroke-linecap="butt" transform="matrix(0.00000000130706, -0.748891, 0.748891, 0.00000000130706, 564.208569, 154.359751)" fill="none" stroke-linejoin="miter" d="M 0.000502485 2.00091 L 102.548037 2.00091 " stroke="#000000" stroke-width="4" stroke-opacity="1" stroke-miterlimit="4"/><path stroke-linecap="butt" transform="matrix(0, -0.748891, 0.748891, 0, 465.138479, 519.195621)" fill="none" stroke-linejoin="miter" d="M 0.00041218 2.000612 L 381.058915 2.000612 " stroke="#000000" stroke-width="4" stroke-opacity="1" stroke-miterlimit="4"/><path stroke-linecap="butt" transform="matrix(0, -0.748891, 0.748891, 0, 717.993533, 519.195621)" fill="none" stroke-linejoin="miter" d="M 0.00041218 2.001166 L 381.058915 2.001166 " stroke="#000000" stroke-width="4" stroke-opacity="1" stroke-miterlimit="4"/><path stroke-linecap="butt" transform="matrix(0.00000000130706, -0.748891, 0.748891, 0.00000000130706, 500.252098, 131.511922)" fill="none" stroke-linejoin="miter" d="M 0.000270906 2.000162 L 73.217959 2.000162 " stroke="#000000" stroke-width="4" stroke-opacity="1" stroke-miterlimit="4"/><path stroke-linecap="butt" transform="matrix(-0.748891, 0, 0, -0.748891, 503.251278, 133.268553)" fill="none" stroke-linejoin="miter" d="M 0.00170678 2.001656 L 112.741402 2.001656 " stroke="#000000" stroke-width="4" stroke-opacity="1" stroke-miterlimit="4"/><path stroke-linecap="butt" transform="matrix(-0.748891, -0.00000000130706, 0.00000000130706, -0.748891, 543.148881, 80.056319)" fill="none" stroke-linejoin="miter" d="M 0.000592324 1.999925 L 55.859267 1.999925 " stroke="#000000" stroke-width="4" stroke-opacity="1" stroke-miterlimit="4"/><path stroke-linecap="butt" transform="matrix(0, -0.748891, 0.748891, 0, 549.889015, 45.72829)" fill="none" stroke-linejoin="miter" d="M 0.00230703 1.999896 L 25.435765 1.999896 " stroke="#000000" stroke-width="4" stroke-opacity="1" stroke-miterlimit="4"/><path stroke-linecap="butt" transform="matrix(0, -0.748891, 0.748891, 0, 549.886859, 80.053863)" fill="none" stroke-linejoin="miter" d="M -0.00110152 1.99756 L 15.11501 1.99756 " stroke="#000000" stroke-width="4" stroke-opacity="1" stroke-miterlimit="4"/><path stroke-linecap="butt" transform="matrix(0, -0.748891, 0.748891, 0, 540.22979, 45.728499)" fill="none" stroke-linejoin="miter" d="M 0.00258543 1.998654 L 25.248265 1.998654 " stroke="#000000" stroke-width="4" stroke-opacity="1" stroke-miterlimit="4"/><path stroke-linecap="butt" transform="matrix(-0.00541764, -0.748871, 0.748871, -0.00541764, 540.229502, 80.055763)" fill="none" stroke-linejoin="miter" d="M -0.00259361 1.999071 L 15.51554 2.001796 " stroke="#000000" stroke-width="4" stroke-opacity="1" stroke-miterlimit="4"/><path stroke-linecap="butt" transform="matrix(-0.748891, 0, 0, -0.748891, 552.175468, 46.316547)" fill="none" stroke-linejoin="miter" d="M -0.000418269 1.997935 L 14.995724 1.997935 " stroke="#000000" stroke-width="4" stroke-opacity="1" stroke-miterlimit="4"/><path stroke-linecap="butt" transform="matrix(-0.748863, 0.00637717, -0.00637717, -0.748863, 552.890617, 71.019128)" fill="none" stroke-linejoin="miter" d="M -0.00141539 2.002485 L 16.158519 1.999261 " stroke="#000000" stroke-width="4" stroke-opacity="1" stroke-miterlimit="4"/><path stroke-linecap="butt" transform="matrix(-0.748891, 0.00000000130706, -0.00000000130706, -0.748891, 567.180789, 80.056319)" fill="none" stroke-linejoin="miter" d="M 0.00147127 1.999925 L 21.950608 1.999926 " stroke="#000000" stroke-width="4" stroke-opacity="1" stroke-miterlimit="4"/><path stroke-linecap="butt" transform="matrix(-0.748891, 0, 0, -0.748891, 631.857729, 29.673684)" fill="none" stroke-linejoin="miter" d="M -0.00219775 2.000162 L 107.45364 2.000162 " stroke="#000000" stroke-width="4" stroke-opacity="1" stroke-miterlimit="4"/><g clip-path="url(#284f047893)"><g transform="matrix(1, 0, 0, 1, 420, 29)"><g clip-path="url(#0c5ec2d8e7)"><g clip-path="url(#13e81c332e)"><path fill="#99ffce" d="M 0.664062 0.34375 L 80.527344 0.34375 L 80.527344 101.421875 L 0.664062 101.421875 Z M 0.664062 0.34375 " fill-opacity="1" fill-rule="nonzero"/></g></g></g></g><g clip-path="url(#eb5d522c57)"><g transform="matrix(1, 0, 0, 1, 421, 29)"><g clip-path="url(#faf177beac)"><g clip-path="url(#f1d881d7be)"><path fill="#99ffce" d="M 0.164062 0.460938 L 119.171875 0.460938 L 119.171875 48.441406 L 0.164062 48.441406 Z M 0.164062 0.460938 " fill-opacity="1" fill-rule="nonzero"/></g></g></g></g><g clip-path="url(#d6b5efc20c)"><g transform="matrix(1, 0, 0, 1, 526, 45)"><g clip-path="url(#7a13f58b15)"><g clip-path="url(#fdf5c31a94)"><path fill="#99ffce" d="M 0.792969 0.730469 L 26.945312 0.730469 L 26.945312 23.734375 L 0.792969 23.734375 Z M 0.792969 0.730469 " fill-opacity="1" fill-rule="nonzero"/></g></g></g></g><g clip-path="url(#85ed932bce)"><g transform="matrix(1, 0, 0, 1, 776, 242)"><g clip-path="url(#6a466551ce)"><g clip-path="url(#7beb490a81)"><path fill="#fff3c2" d="M 0.636719 0.285156 L 178.890625 0.285156 L 178.890625 172.484375 L 0.636719 172.484375 Z M 0.636719 0.285156 " fill-opacity="1" fill-rule="nonzero"/></g></g></g></g><g clip-path="url(#04351aeebc)"><g transform="matrix(1, 0, 0, 1, 777, 42)"><g clip-path="url(#7bab37c622)"><g clip-path="url(#944561b80d)"><path fill="#fff3c2" d="M 0.328125 0.675781 L 177.753906 0.675781 L 177.753906 188.492188 L 0.328125 188.492188 Z M 0.328125 0.675781 " fill-opacity="1" fill-rule="nonzero"/></g></g></g></g><g clip-path="url(#f2c195ff4c)"><g transform="matrix(1, 0, 0, 1, 762, 179)"><g clip-path="url(#f0ae8776bd)"><g clip-path="url(#9af1b32afb)"><path fill="#fff3c2" d="M 0.796875 0.0234375 L 46.386719 0.0234375 L 46.386719 26.367188 L 0.796875 26.367188 Z M 0.796875 0.0234375 " fill-opacity="1" fill-rule="nonzero"/></g></g></g></g><g clip-path="url(#400809e1e2)"><g transform="matrix(1, 0, 0, 1, 762, 340)"><g clip-path="url(#f460dd6c50)"><g clip-path="url(#5fd2612452)"><path fill="#fff3c2" d="M 0.789062 0.789062 L 46.375 0.789062 L 46.375 27.136719 L 0.789062 27.136719 Z M 0.789062 0.789062 " fill-opacity="1" fill-rule="nonzero"/></g></g></g></g><g clip-path="url(#a0e9db9dc8)"><g transform="matrix(1, 0, 0, 1, 776, 426)"><g clip-path="url(#524ede52a2)"><g clip-path="url(#35437a2d85)"><path fill="#fff3c2" d="M 0.703125 0.222656 L 179.003906 0.222656 L 179.003906 196.632812 L 0.703125 196.632812 Z M 0.703125 0.222656 " fill-opacity="1" fill-rule="nonzero"/></g></g></g></g><g clip-path="url(#f0d8ac0407)"><g transform="matrix(1, 0, 0, 1, 762, 471)"><g clip-path="url(#67d12cebdf)"><g clip-path="url(#9a22efbc7c)"><path fill="#fff3c2" d="M 0.789062 0.324219 L 46.375 0.324219 L 46.375 26.667969 L 0.789062 26.667969 Z M 0.789062 0.324219 " fill-opacity="1" fill-rule="nonzero"/></g></g></g></g><g clip-path="url(#b95d104dbe)"><g transform="matrix(1, 0, 0, 1, 420, 532)"><g clip-path="url(#60311aaed6)"><g clip-path="url(#2be3c310a0)"><path fill="#99ffce" d="M 0.925781 0.566406 L 64.199219 0.566406 L 64.199219 111.539062 L 0.925781 111.539062 Z M 0.925781 0.566406 " fill-opacity="1" fill-rule="nonzero"/></g></g></g></g><g clip-path="url(#c270ff591c)"><g transform="matrix(1, 0, 0, 1, 434, 519)"><g clip-path="url(#9c554ec15c)"><g clip-path="url(#956ccddcf6)"><path fill="#99ffce" d="M 0.601562 0.199219 L 22.351562 0.199219 L 22.351562 85.328125 L 0.601562 85.328125 Z M 0.601562 0.199219 " fill-opacity="1" fill-rule="nonzero"/></g></g></g></g><g clip-path="url(#eb733b3bed)"><g transform="matrix(1, 0, 0, 1, 703, 532)"><g clip-path="url(#0c03540145)"><g clip-path="url(#94323913a7)"><path fill="#99ffce" d="M 0.246094 0.566406 L 60.097656 0.566406 L 60.097656 111.621094 L 0.246094 111.621094 Z M 0.246094 0.566406 " fill-opacity="1" fill-rule="nonzero"/></g></g></g></g><g clip-path="url(#c753cdb189)"><g transform="matrix(1, 0, 0, 1, 728, 518)"><g clip-path="url(#d74a32346b)"><g clip-path="url(#6608ecb86f)"><path fill="#99ffce" d="M 0.71875 0.898438 L 22.128906 0.898438 L 22.128906 86.285156 L 0.71875 86.285156 Z M 0.71875 0.898438 " fill-opacity="1" fill-rule="nonzero"/></g></g></g></g><g clip-path="url(#34f72a15a8)"><g transform="matrix(1, 0, 0, 1, 243, 42)"><g clip-path="url(#8c86d2c5d7)"><g clip-path="url(#1514a3745e)"><path fill="#fff3c2" d="M 0.164062 0.277344 L 163.527344 0.277344 L 163.527344 583.539062 L 0.164062 583.539062 Z M 0.164062 0.277344 " fill-opacity="1" fill-rule="nonzero"/></g></g></g></g><g clip-path="url(#de07b2ffd6)"><g transform="matrix(1, 0, 0, 1, 367, 399)"><g clip-path="url(#d152b47a43)"><g clip-path="url(#865a269007)"><path fill="#fff3c2" d="M 0.453125 0.878906 L 54.328125 0.878906 L 54.328125 27.660156 L 0.453125 27.660156 Z M 0.453125 0.878906 " fill-opacity="1" fill-rule="nonzero"/></g></g></g></g><g clip-path="url(#d76e4675b3)"><g transform="matrix(1, 0, 0, 1, 641, 29)"><g clip-path="url(#d5e94848e4)"><g clip-path="url(#3439055d7f)"><path fill="#ffd699" d="M 0.203125 0.695312 L 121.769531 0.695312 L 121.769531 109.128906 L 0.203125 109.128906 Z M 0.203125 0.695312 " fill-opacity="1" fill-rule="nonzero"/></g></g></g></g><g clip-path="url(#0cc8461894)"><g transform="matrix(1, 0, 0, 1, 671, 43)"><g clip-path="url(#0e2f646880)"><g clip-path="url(#02854ba4cd)"><path fill="#ffd699" d="M 0.996094 0.125 L 36.019531 0.125 L 36.019531 108.066406 L 0.996094 108.066406 Z M 0.996094 0.125 " fill-opacity="1" fill-rule="nonzero"/></g></g></g></g><path stroke-linecap="butt" transform="matrix(0.748891, 0, 0, 0.748891, 466.64019, 233.829876)" fill="none" stroke-linejoin="miter" d="M 0.000580515 2.000625 L 339.445439 2.000625 " stroke="#000000" stroke-width="4" stroke-opacity="1" stroke-miterlimit="4"/><g clip-path="url(#f71f44ef33)"><g transform="matrix(1, 0, 0, 1, 455, 154)"><g clip-path="url(#503b35a2c9)"><g clip-path="url(#f0238789d6)"><path fill="#d9d9d9" d="M 0.566406 0.375 L 183.066406 0.375 L 183.066406 79.828125 L 0.566406 79.828125 Z M 0.566406 0.375 " fill-opacity="1" fill-rule="nonzero"/></g></g></g></g><g clip-path="url(#e180d126b3)"><g transform="matrix(1, 0, 0, 1, 579, 150)"><g clip-path="url(#c74c6530b8)"><g clip-path="url(#bd84c47451)"><path fill="#d9d9d9" d="M 0.0351562 0.800781 L 183.730469 0.800781 L 183.730469 83.59375 L 0.0351562 83.59375 Z M 0.0351562 0.800781 " fill-opacity="1" fill-rule="nonzero"/></g></g></g></g><g clip-path="url(#5af291db75)"><g transform="matrix(1, 0, 0, 1, 567, 29)"><g clip-path="url(#8a5b85c174)"><g clip-path="url(#4a9ebf3432)"><path fill="#d9d9d9" d="M 0.210938 0.742188 L 61.738281 0.742188 L 61.738281 128.605469 L 0.210938 128.605469 Z M 0.210938 0.742188 " fill-opacity="1" fill-rule="nonzero"/></g></g></g></g><g clip-path="url(#71d4e253dd)"><g transform="matrix(1, 0, 0, 1, 421, 195)"><g clip-path="url(#5d856ee9e5)"><g clip-path="url(#f941e41d7e)"><path fill="#d9d9d9" d="M 0.164062 0.601562 L 44.113281 0.601562 L 44.113281 324.207031 L 0.164062 324.207031 Z M 0.164062 0.601562 " fill-opacity="1" fill-rule="nonzero"/></g></g></g></g><g clip-path="url(#276dac53b7)"><g transform="matrix(1, 0, 0, 1, 552, 29)"><g clip-path="url(#3ec99cc61b)"><g clip-path="url(#6894f5492e)"><path fill="#d9d9d9" d="M 0.878906 0.738281 L 61.894531 0.738281 L 61.894531 48.503906 L 0.878906 48.503906 Z M 0.878906 0.738281 " fill-opacity="1" fill-rule="nonzero"/></g></g></g></g><g clip-path="url(#23cfe2163d)"><g transform="matrix(1, 0, 0, 1, 421, 144)"><g clip-path="url(#da2d8833d6)"><g clip-path="url(#c690a9b6e6)"><path fill="#d9d9d9" d="M 0.375 0.460938 L 79.292969 0.460938 L 79.292969 88.011719 L 0.375 88.011719 Z M 0.375 0.460938 " fill-opacity="1" fill-rule="nonzero"/></g></g></g></g><g clip-path="url(#fa6dfe1ea0)"><g transform="matrix(1, 0, 0, 1, 720, 233)"><g clip-path="url(#15877ba047)"><g clip-path="url(#599e25fbe6)"><path fill="#d9d9d9" d="M 0.992188 0.078125 L 42.796875 0.078125 L 42.796875 285.855469 L 0.992188 285.855469 Z M 0.992188 0.078125 " fill-opacity="1" fill-rule="nonzero"/></g></g></g></g><g clip-path="url(#a8b4d8040e)"><g transform="matrix(1, 0, 0, 1, 777, 204)"><g clip-path="url(#ee5f14cfdb)"><g clip-path="url(#cd056af5d5)"><path fill="#fff3c2" d="M 0.0859375 0.246094 L 45.675781 0.246094 L 45.675781 26.589844 L 0.0859375 26.589844 Z M 0.0859375 0.246094 " fill-opacity="1" fill-rule="nonzero"/></g></g></g></g><path stroke-linecap="butt" transform="matrix(0.74889, -0.000596648, 0.000596648, 0.74889, 503.302586, 343.249566)" fill="none" stroke-linejoin="miter" d="M 0.000814884 2.499069 L 240.017411 2.502515 " stroke="#000000" stroke-width="5" stroke-opacity="1" stroke-miterlimit="4"/><path stroke-linecap="butt" transform="matrix(0.748891, 0, 0, 0.748891, 551.867021, 276.386572)" fill="none" stroke-linejoin="miter" d="M 0.000222352 2.498683 L 108.572294 2.498683 " stroke="#000000" stroke-width="5" stroke-opacity="1" stroke-miterlimit="4"/><path stroke-linecap="butt" transform="matrix(0, 0.748891, -0.748891, 0, 632.982575, 235.600637)" fill="none" stroke-linejoin="miter" d="M 0.00123598 2.5013 L 146.061056 2.5013 " stroke="#000000" stroke-width="5" stroke-opacity="1" stroke-miterlimit="4"/><path stroke-linecap="butt" transform="matrix(0.00000000130706, 0.748891, -0.748891, 0.00000000130706, 555.788523, 235.862499)" fill="none" stroke-linejoin="miter" d="M 0.0010441 2.497768 L 145.706173 2.497768 " stroke="#000000" stroke-width="5" stroke-opacity="1" stroke-miterlimit="4"/><path stroke-linecap="butt" transform="matrix(0.748891, 0, 0, 0.748891, 504.417151, 264.160701)" fill="none" stroke-linejoin="miter" d="M 0.00109205 2.49776 L 66.098872 2.49776 " stroke="#000000" stroke-width="5" stroke-opacity="1" stroke-miterlimit="4"/><path stroke-linecap="butt" transform="matrix(0.748891, 0, 0, 0.748891, 504.417151, 276.386572)" fill="none" stroke-linejoin="miter" d="M 0.00109205 2.498683 L 71.335786 2.498683 " stroke="#000000" stroke-width="5" stroke-opacity="1" stroke-miterlimit="4"/><path stroke-linecap="butt" transform="matrix(0.748891, 0.000000000000001288, -0.000000000000001288, 0.748891, 504.417151, 250.276068)" fill="none" stroke-linejoin="miter" d="M 0.00109205 2.500192 L 66.098872 2.500192 " stroke="#000000" stroke-width="5" stroke-opacity="1" stroke-miterlimit="4"/><path stroke-linecap="butt" transform="matrix(0.748891, 0, 0, 0.748891, 504.417151, 301.110199)" fill="none" stroke-linejoin="miter" d="M 0.00109205 2.502603 L 178.744679 2.502603 " stroke="#000000" stroke-width="5" stroke-opacity="1" stroke-miterlimit="4"/><path stroke-linecap="butt" transform="matrix(0.748891, 0, 0, 0.748891, 504.417151, 314.139753)" fill="none" stroke-linejoin="miter" d="M 0.00109205 2.499652 L 171.932518 2.499652 " stroke="#000000" stroke-width="5" stroke-opacity="1" stroke-miterlimit="4"/><path stroke-linecap="butt" transform="matrix(0.748891, 0, 0, 0.748891, 504.417151, 289.310024)" fill="none" stroke-linejoin="miter" d="M 0.00109205 2.501794 L 178.744679 2.501794 " stroke="#000000" stroke-width="5" stroke-opacity="1" stroke-miterlimit="4"/><path stroke-linecap="butt" transform="matrix(0, 0.748891, -0.748891, 0, 530.931685, 235.595925)" fill="none" stroke-linejoin="miter" d="M 0.00231113 1.499674 L 128.317131 1.499674 " stroke="#000000" stroke-width="3" stroke-opacity="1" stroke-miterlimit="4"/><path stroke-linecap="butt" transform="matrix(-0.748891, 0, 0, -0.748891, 541.555146, 331.828048)" fill="none" stroke-linejoin="miter" d="M 1.497619 1.50212 L 16.092126 1.50212 " stroke="#000000" stroke-width="3" stroke-opacity="1" stroke-miterlimit="4"/><path stroke-linecap="round" transform="matrix(-0.748891, 0, 0, -0.748891, 541.555146, 331.828048)" fill="none" stroke-linejoin="round" d="M 7.501292 -2.999331 L 1.497619 1.50212 L 7.501292 5.998355 " stroke="#000000" stroke-width="3" stroke-opacity="1" stroke-miterlimit="4"/><path stroke-linecap="butt" transform="matrix(0, -0.748891, 0.748891, 0, 656.133764, 331.687954)" fill="none" stroke-linejoin="miter" d="M 0.000606739 1.500952 L 128.315427 1.500952 " stroke="#000000" stroke-width="3" stroke-opacity="1" stroke-miterlimit="4"/><path stroke-linecap="butt" transform="matrix(-0.748891, 0, 0, -0.748891, 657.245932, 331.828048)" fill="none" stroke-linejoin="miter" d="M -0.000215996 1.50212 L 14.594291 1.50212 " stroke="#000000" stroke-width="3" stroke-opacity="1" stroke-miterlimit="4"/><path stroke-linecap="round" transform="matrix(-0.748891, 0, 0, -0.748891, 657.245932, 331.828048)" fill="none" stroke-linejoin="round" d="M 8.595834 -2.999331 L 14.594291 1.50212 L 8.595834 5.998355 " stroke="#000000" stroke-width="3" stroke-opacity="1" stroke-miterlimit="4"/><path stroke-linecap="butt" transform="matrix(0.748891, 0, 0, 0.748891, 631.592634, 264.160701)" fill="none" stroke-linejoin="miter" d="M 0.00149037 2.49776 L 66.099271 2.49776 " stroke="#000000" stroke-width="5" stroke-opacity="1" stroke-miterlimit="4"/><path stroke-linecap="butt" transform="matrix(0.748891, 0, 0, 0.748891, 631.592634, 276.386572)" fill="none" stroke-linejoin="miter" d="M 0.00149037 2.498683 L 68.712512 2.498683 " stroke="#000000" stroke-width="5" stroke-opacity="1" stroke-miterlimit="4"/><path stroke-linecap="butt" transform="matrix(0.748891, 0, 0, 0.748891, 631.592634, 250.276068)" fill="none" stroke-linejoin="miter" d="M 0.00149037 2.500192 L 68.712512 2.500192 " stroke="#000000" stroke-width="5" stroke-opacity="1" stroke-miterlimit="4"/><path stroke-linecap="butt" transform="matrix(0.748891, 0, 0, 0.748891, 631.592634, 301.110199)" fill="none" stroke-linejoin="miter" d="M 0.00149037 2.502603 L 68.712512 2.502603 " stroke="#000000" stroke-width="5" stroke-opacity="1" stroke-miterlimit="4"/><path stroke-linecap="butt" transform="matrix(0.748891, 0, 0, 0.748891, 631.592634, 314.139753)" fill="none" stroke-linejoin="miter" d="M 0.00149037 2.499652 L 68.712512 2.499652 " stroke="#000000" stroke-width="5" stroke-opacity="1" stroke-miterlimit="4"/><path stroke-linecap="butt" transform="matrix(0.748891, 0, 0, 0.748891, 631.592634, 289.310024)" fill="none" stroke-linejoin="miter" d="M 0.00149037 2.501794 L 68.712512 2.501794 " stroke="#000000" stroke-width="5" stroke-opacity="1" stroke-miterlimit="4"/><path stroke-linecap="butt" transform="matrix(0.748891, 0, 0, 0.748891, 553.824896, 325.315042)" fill="none" stroke-linejoin="miter" d="M -0.000904806 2.500309 L 103.203852 2.500309 " stroke="#000000" stroke-width="5" stroke-opacity="1" stroke-miterlimit="4"/><path stroke-linecap="butt" transform="matrix(0.748891, 0, 0, 0.748891, 553.824896, 337.115244)" fill="none" stroke-linejoin="miter" d="M -0.000904806 2.501083 L 103.203852 2.501083 " stroke="#000000" stroke-width="5" stroke-opacity="1" stroke-miterlimit="4"/><path stroke-linecap="butt" transform="matrix(0, 0.748891, -0.748891, 0, 573.665582, 240.560588)" fill="none" stroke-linejoin="miter" d="M 2.751411 0.497554 L 127.837497 0.497554 " stroke="#000000" stroke-width="1" stroke-opacity="1" stroke-miterlimit="4"/><path stroke-linecap="round" transform="matrix(0, 0.748891, -0.748891, 0, 573.665582, 240.560588)" fill-opacity="1" fill="#000000" fill-rule="nonzero" stroke-linejoin="round" d="M 2.501041 -0.999453 L 0.498078 0.497554 L 2.501041 1.999776 Z M 2.501041 -0.999453 " stroke="#000000" stroke-width="1" stroke-opacity="1" stroke-miterlimit="4"/><path stroke-linecap="butt" transform="matrix(0, -0.748891, 0.748891, 0, 610.88405, 334.753811)" fill="none" stroke-linejoin="miter" d="M 2.748732 0.499088 L 125.784909 0.499088 " stroke="#000000" stroke-width="1" stroke-opacity="1" stroke-miterlimit="4"/><path stroke-linecap="round" transform="matrix(0, -0.748891, 0.748891, 0, 610.88405, 334.753811)" fill-opacity="1" fill="#000000" fill-rule="nonzero" stroke-linejoin="round" d="M 2.498361 -0.997918 L 0.500614 0.499088 L 2.498361 2.001311 Z M 2.498361 -0.997918 " stroke="#000000" stroke-width="1" stroke-opacity="1" stroke-miterlimit="4"/><path stroke-linecap="butt" transform="matrix(-0.0000592007, 0.748891, -0.748891, -0.0000592007, 506.296399, 235.864035)" fill="none" stroke-linejoin="miter" d="M -0.000809641 2.497852 L 148.395801 2.501769 " stroke="#000000" stroke-width="5" stroke-opacity="1" stroke-miterlimit="4"/><path stroke-linecap="butt" transform="matrix(0.00152099, 0.748889, -0.748889, 0.00152099, 684.694698, 235.860218)" fill="none" stroke-linejoin="miter" d="M -0.000982261 2.49767 L 148.395924 2.501749 " stroke="#000000" stroke-width="5" stroke-opacity="1" stroke-miterlimit="4"/><g fill="#000000" fill-opacity="1"><g transform="translate(445.255763, 77.396859)"><g><path d="M 6.796875 -4.609375 L 2.46875 -4.609375 L 2.46875 -1.078125 L 7.5 -1.078125 L 7.5 0 L 1.15625 0 L 1.15625 -9.984375 L 7.4375 -9.984375 L 7.4375 -8.90625 L 2.46875 -8.90625 L 2.46875 -5.6875 L 6.796875 -5.6875 Z M 6.796875 -4.609375 "/></g></g></g><g fill="#000000" fill-opacity="1"><g transform="translate(453.236493, 77.396859)"><g><path d="M 3.453125 -4.71875 L 5.09375 -7.421875 L 6.578125 -7.421875 L 4.15625 -3.75 L 6.65625 0 L 5.1875 0 L 3.46875 -2.78125 L 1.75 0 L 0.28125 0 L 2.78125 -3.75 L 0.359375 -7.421875 L 1.828125 -7.421875 Z M 3.453125 -4.71875 "/></g></g></g><g fill="#000000" fill-opacity="1"><g transform="translate(460.195635, 77.396859)"><g><path d="M 2.34375 0 L 1.0625 0 L 1.0625 -7.421875 L 2.34375 -7.421875 Z M 0.96875 -9.390625 C 0.96875 -9.597656 1.03125 -9.769531 1.15625 -9.90625 C 1.28125 -10.050781 1.460938 -10.125 1.703125 -10.125 C 1.953125 -10.125 2.140625 -10.050781 2.265625 -9.90625 C 2.398438 -9.769531 2.46875 -9.597656 2.46875 -9.390625 C 2.46875 -9.179688 2.398438 -9.007812 2.265625 -8.875 C 2.140625 -8.738281 1.953125 -8.671875 1.703125 -8.671875 C 1.460938 -8.671875 1.28125 -8.738281 1.15625 -8.875 C 1.03125 -9.007812 0.96875 -9.179688 0.96875 -9.390625 Z M 0.96875 -9.390625 "/></g></g></g><g fill="#000000" fill-opacity="1"><g transform="translate(463.603214, 77.396859)"><g><path d="M 2.6875 -9.21875 L 2.6875 -7.421875 L 4.0625 -7.421875 L 4.0625 -6.4375 L 2.6875 -6.4375 L 2.6875 -1.84375 C 2.6875 -1.539062 2.742188 -1.316406 2.859375 -1.171875 C 2.984375 -1.023438 3.195312 -0.953125 3.5 -0.953125 C 3.644531 -0.953125 3.847656 -0.976562 4.109375 -1.03125 L 4.109375 0 C 3.765625 0.09375 3.4375 0.140625 3.125 0.140625 C 2.5625 0.140625 2.132812 -0.03125 1.84375 -0.375 C 1.550781 -0.71875 1.40625 -1.207031 1.40625 -1.84375 L 1.40625 -6.4375 L 0.0625 -6.4375 L 0.0625 -7.421875 L 1.40625 -7.421875 L 1.40625 -9.21875 Z M 2.6875 -9.21875 "/></g></g></g><g fill="#000000" fill-opacity="1"><g transform="translate(468.190077, 77.396859)"><g/></g></g><g fill="#000000" fill-opacity="1"><g transform="translate(471.66622, 77.396859)"><g><path d="M 5 0 L 3.71875 0 L 3.71875 -8.453125 L 1.171875 -7.515625 L 1.171875 -8.671875 L 4.796875 -10.03125 L 5 -10.03125 Z M 5 0 "/></g></g></g><g fill="#000000" fill-opacity="1"><g transform="translate(292.151741, 310.768809)"><g><path d="M 4.828125 -4.046875 L 2.46875 -4.046875 L 2.46875 0 L 1.15625 0 L 1.15625 -9.984375 L 4.453125 -9.984375 C 5.578125 -9.984375 6.441406 -9.726562 7.046875 -9.21875 C 7.660156 -8.707031 7.96875 -7.960938 7.96875 -6.984375 C 7.96875 -6.359375 7.796875 -5.8125 7.453125 -5.34375 C 7.117188 -4.882812 6.65625 -4.546875 6.0625 -4.328125 L 8.40625 -0.078125 L 8.40625 0 L 6.984375 0 Z M 2.46875 -5.109375 L 4.5 -5.109375 C 5.15625 -5.109375 5.675781 -5.273438 6.0625 -5.609375 C 6.445312 -5.953125 6.640625 -6.410156 6.640625 -6.984375 C 6.640625 -7.597656 6.453125 -8.066406 6.078125 -8.390625 C 5.710938 -8.722656 5.1875 -8.894531 4.5 -8.90625 L 2.46875 -8.90625 Z M 2.46875 -5.109375 "/></g></g></g><g fill="#000000" fill-opacity="1"><g transform="translate(300.797532, 310.768809)"><g><path d="M 0.625 -3.78125 C 0.625 -4.507812 0.765625 -5.160156 1.046875 -5.734375 C 1.335938 -6.316406 1.738281 -6.765625 2.25 -7.078125 C 2.757812 -7.398438 3.335938 -7.5625 3.984375 -7.5625 C 4.992188 -7.5625 5.8125 -7.207031 6.4375 -6.5 C 7.0625 -5.800781 7.375 -4.875 7.375 -3.71875 L 7.375 -3.625 C 7.375 -2.90625 7.234375 -2.257812 6.953125 -1.6875 C 6.679688 -1.113281 6.285156 -0.664062 5.765625 -0.34375 C 5.253906 -0.0195312 4.664062 0.140625 4 0.140625 C 3 0.140625 2.1875 -0.207031 1.5625 -0.90625 C 0.9375 -1.613281 0.625 -2.539062 0.625 -3.6875 Z M 1.90625 -3.625 C 1.90625 -2.800781 2.09375 -2.140625 2.46875 -1.640625 C 2.851562 -1.148438 3.363281 -0.90625 4 -0.90625 C 4.644531 -0.90625 5.15625 -1.15625 5.53125 -1.65625 C 5.914062 -2.164062 6.109375 -2.875 6.109375 -3.78125 C 6.109375 -4.59375 5.914062 -5.25 5.53125 -5.75 C 5.144531 -6.257812 4.628906 -6.515625 3.984375 -6.515625 C 3.359375 -6.515625 2.851562 -6.265625 2.46875 -5.765625 C 2.09375 -5.265625 1.90625 -4.550781 1.90625 -3.625 Z M 1.90625 -3.625 "/></g></g></g><g fill="#000000" fill-opacity="1"><g transform="translate(308.805688, 310.768809)"><g><path d="M 0.625 -3.78125 C 0.625 -4.507812 0.765625 -5.160156 1.046875 -5.734375 C 1.335938 -6.316406 1.738281 -6.765625 2.25 -7.078125 C 2.757812 -7.398438 3.335938 -7.5625 3.984375 -7.5625 C 4.992188 -7.5625 5.8125 -7.207031 6.4375 -6.5 C 7.0625 -5.800781 7.375 -4.875 7.375 -3.71875 L 7.375 -3.625 C 7.375 -2.90625 7.234375 -2.257812 6.953125 -1.6875 C 6.679688 -1.113281 6.285156 -0.664062 5.765625 -0.34375 C 5.253906 -0.0195312 4.664062 0.140625 4 0.140625 C 3 0.140625 2.1875 -0.207031 1.5625 -0.90625 C 0.9375 -1.613281 0.625 -2.539062 0.625 -3.6875 Z M 1.90625 -3.625 C 1.90625 -2.800781 2.09375 -2.140625 2.46875 -1.640625 C 2.851562 -1.148438 3.363281 -0.90625 4 -0.90625 C 4.644531 -0.90625 5.15625 -1.15625 5.53125 -1.65625 C 5.914062 -2.164062 6.109375 -2.875 6.109375 -3.78125 C 6.109375 -4.59375 5.914062 -5.25 5.53125 -5.75 C 5.144531 -6.257812 4.628906 -6.515625 3.984375 -6.515625 C 3.359375 -6.515625 2.851562 -6.265625 2.46875 -5.765625 C 2.09375 -5.265625 1.90625 -4.550781 1.90625 -3.625 Z M 1.90625 -3.625 "/></g></g></g><g fill="#000000" fill-opacity="1"><g transform="translate(316.813843, 310.768809)"><g><path d="M 2.15625 -7.421875 L 2.1875 -6.59375 C 2.726562 -7.238281 3.460938 -7.5625 4.390625 -7.5625 C 5.429688 -7.5625 6.140625 -7.160156 6.515625 -6.359375 C 6.753906 -6.722656 7.070312 -7.015625 7.46875 -7.234375 C 7.863281 -7.453125 8.332031 -7.5625 8.875 -7.5625 C 10.5 -7.5625 11.328125 -6.695312 11.359375 -4.96875 L 11.359375 0 L 10.09375 0 L 10.09375 -4.890625 C 10.09375 -5.421875 9.96875 -5.816406 9.71875 -6.078125 C 9.476562 -6.347656 9.070312 -6.484375 8.5 -6.484375 C 8.03125 -6.484375 7.640625 -6.34375 7.328125 -6.0625 C 7.015625 -5.78125 6.835938 -5.398438 6.796875 -4.921875 L 6.796875 0 L 5.515625 0 L 5.515625 -4.859375 C 5.515625 -5.941406 4.988281 -6.484375 3.9375 -6.484375 C 3.101562 -6.484375 2.53125 -6.128906 2.21875 -5.421875 L 2.21875 0 L 0.953125 0 L 0.953125 -7.421875 Z M 2.15625 -7.421875 "/></g></g></g><g fill="#000000" fill-opacity="1"><g transform="translate(329.120897, 310.768809)"><g/></g></g><g fill="#000000" fill-opacity="1"><g transform="translate(332.597039, 310.768809)"><g><path d="M 7.375 0 L 0.828125 0 L 0.828125 -0.90625 L 4.28125 -4.75 C 4.800781 -5.332031 5.15625 -5.804688 5.34375 -6.171875 C 5.539062 -6.535156 5.640625 -6.910156 5.640625 -7.296875 C 5.640625 -7.816406 5.476562 -8.242188 5.15625 -8.578125 C 4.84375 -8.910156 4.425781 -9.078125 3.90625 -9.078125 C 3.269531 -9.078125 2.773438 -8.894531 2.421875 -8.53125 C 2.078125 -8.175781 1.90625 -7.679688 1.90625 -7.046875 L 0.640625 -7.046875 C 0.640625 -7.960938 0.9375 -8.703125 1.53125 -9.265625 C 2.125 -9.835938 2.914062 -10.125 3.90625 -10.125 C 4.832031 -10.125 5.5625 -9.878906 6.09375 -9.390625 C 6.632812 -8.898438 6.90625 -8.253906 6.90625 -7.453125 C 6.90625 -6.460938 6.28125 -5.289062 5.03125 -3.9375 L 2.359375 -1.03125 L 7.375 -1.03125 Z M 7.375 0 "/></g></g></g><g fill="#000000" fill-opacity="1"><g transform="translate(340.481781, 310.768809)"><g><path d="M 7.09375 -4.265625 C 7.09375 -2.773438 6.835938 -1.664062 6.328125 -0.9375 C 5.816406 -0.21875 5.023438 0.140625 3.953125 0.140625 C 2.890625 0.140625 2.097656 -0.210938 1.578125 -0.921875 C 1.066406 -1.628906 0.800781 -2.6875 0.78125 -4.09375 L 0.78125 -5.78125 C 0.78125 -7.25 1.035156 -8.335938 1.546875 -9.046875 C 2.054688 -9.765625 2.851562 -10.125 3.9375 -10.125 C 5.007812 -10.125 5.800781 -9.78125 6.3125 -9.09375 C 6.820312 -8.40625 7.082031 -7.34375 7.09375 -5.90625 Z M 5.828125 -6 C 5.828125 -7.070312 5.675781 -7.851562 5.375 -8.34375 C 5.070312 -8.832031 4.59375 -9.078125 3.9375 -9.078125 C 3.289062 -9.078125 2.816406 -8.832031 2.515625 -8.34375 C 2.222656 -7.851562 2.070312 -7.101562 2.0625 -6.09375 L 2.0625 -4.0625 C 2.0625 -2.976562 2.21875 -2.179688 2.53125 -1.671875 C 2.84375 -1.160156 3.316406 -0.90625 3.953125 -0.90625 C 4.578125 -0.90625 5.039062 -1.144531 5.34375 -1.625 C 5.644531 -2.113281 5.804688 -2.878906 5.828125 -3.921875 Z M 5.828125 -6 "/></g></g></g><g fill="#000000" fill-opacity="1"><g transform="translate(348.366523, 310.768809)"><g><path d="M 6.1875 -3.359375 L 7.578125 -3.359375 L 7.578125 -2.3125 L 6.1875 -2.3125 L 6.1875 0 L 4.90625 0 L 4.90625 -2.3125 L 0.359375 -2.3125 L 0.359375 -3.0625 L 4.828125 -9.984375 L 6.1875 -9.984375 Z M 1.796875 -3.359375 L 4.90625 -3.359375 L 4.90625 -8.25 L 4.765625 -7.984375 Z M 1.796875 -3.359375 "/></g></g></g><g fill="#000000" fill-opacity="1"><g transform="translate(835.760365, 77.396859)"><g><path d="M 4.828125 -4.046875 L 2.46875 -4.046875 L 2.46875 0 L 1.15625 0 L 1.15625 -9.984375 L 4.453125 -9.984375 C 5.578125 -9.984375 6.441406 -9.726562 7.046875 -9.21875 C 7.660156 -8.707031 7.96875 -7.960938 7.96875 -6.984375 C 7.96875 -6.359375 7.796875 -5.8125 7.453125 -5.34375 C 7.117188 -4.882812 6.65625 -4.546875 6.0625 -4.328125 L 8.40625 -0.078125 L 8.40625 0 L 6.984375 0 Z M 2.46875 -5.109375 L 4.5 -5.109375 C 5.15625 -5.109375 5.675781 -5.273438 6.0625 -5.609375 C 6.445312 -5.953125 6.640625 -6.410156 6.640625 -6.984375 C 6.640625 -7.597656 6.453125 -8.066406 6.078125 -8.390625 C 5.710938 -8.722656 5.1875 -8.894531 4.5 -8.90625 L 2.46875 -8.90625 Z M 2.46875 -5.109375 "/></g></g></g><g fill="#000000" fill-opacity="1"><g transform="translate(844.406156, 77.396859)"><g><path d="M 0.625 -3.78125 C 0.625 -4.507812 0.765625 -5.160156 1.046875 -5.734375 C 1.335938 -6.316406 1.738281 -6.765625 2.25 -7.078125 C 2.757812 -7.398438 3.335938 -7.5625 3.984375 -7.5625 C 4.992188 -7.5625 5.8125 -7.207031 6.4375 -6.5 C 7.0625 -5.800781 7.375 -4.875 7.375 -3.71875 L 7.375 -3.625 C 7.375 -2.90625 7.234375 -2.257812 6.953125 -1.6875 C 6.679688 -1.113281 6.285156 -0.664062 5.765625 -0.34375 C 5.253906 -0.0195312 4.664062 0.140625 4 0.140625 C 3 0.140625 2.1875 -0.207031 1.5625 -0.90625 C 0.9375 -1.613281 0.625 -2.539062 0.625 -3.6875 Z M 1.90625 -3.625 C 1.90625 -2.800781 2.09375 -2.140625 2.46875 -1.640625 C 2.851562 -1.148438 3.363281 -0.90625 4 -0.90625 C 4.644531 -0.90625 5.15625 -1.15625 5.53125 -1.65625 C 5.914062 -2.164062 6.109375 -2.875 6.109375 -3.78125 C 6.109375 -4.59375 5.914062 -5.25 5.53125 -5.75 C 5.144531 -6.257812 4.628906 -6.515625 3.984375 -6.515625 C 3.359375 -6.515625 2.851562 -6.265625 2.46875 -5.765625 C 2.09375 -5.265625 1.90625 -4.550781 1.90625 -3.625 Z M 1.90625 -3.625 "/></g></g></g><g fill="#000000" fill-opacity="1"><g transform="translate(852.414312, 77.396859)"><g><path d="M 0.625 -3.78125 C 0.625 -4.507812 0.765625 -5.160156 1.046875 -5.734375 C 1.335938 -6.316406 1.738281 -6.765625 2.25 -7.078125 C 2.757812 -7.398438 3.335938 -7.5625 3.984375 -7.5625 C 4.992188 -7.5625 5.8125 -7.207031 6.4375 -6.5 C 7.0625 -5.800781 7.375 -4.875 7.375 -3.71875 L 7.375 -3.625 C 7.375 -2.90625 7.234375 -2.257812 6.953125 -1.6875 C 6.679688 -1.113281 6.285156 -0.664062 5.765625 -0.34375 C 5.253906 -0.0195312 4.664062 0.140625 4 0.140625 C 3 0.140625 2.1875 -0.207031 1.5625 -0.90625 C 0.9375 -1.613281 0.625 -2.539062 0.625 -3.6875 Z M 1.90625 -3.625 C 1.90625 -2.800781 2.09375 -2.140625 2.46875 -1.640625 C 2.851562 -1.148438 3.363281 -0.90625 4 -0.90625 C 4.644531 -0.90625 5.15625 -1.15625 5.53125 -1.65625 C 5.914062 -2.164062 6.109375 -2.875 6.109375 -3.78125 C 6.109375 -4.59375 5.914062 -5.25 5.53125 -5.75 C 5.144531 -6.257812 4.628906 -6.515625 3.984375 -6.515625 C 3.359375 -6.515625 2.851562 -6.265625 2.46875 -5.765625 C 2.09375 -5.265625 1.90625 -4.550781 1.90625 -3.625 Z M 1.90625 -3.625 "/></g></g></g><g fill="#000000" fill-opacity="1"><g transform="translate(860.422467, 77.396859)"><g><path d="M 2.15625 -7.421875 L 2.1875 -6.59375 C 2.726562 -7.238281 3.460938 -7.5625 4.390625 -7.5625 C 5.429688 -7.5625 6.140625 -7.160156 6.515625 -6.359375 C 6.753906 -6.722656 7.070312 -7.015625 7.46875 -7.234375 C 7.863281 -7.453125 8.332031 -7.5625 8.875 -7.5625 C 10.5 -7.5625 11.328125 -6.695312 11.359375 -4.96875 L 11.359375 0 L 10.09375 0 L 10.09375 -4.890625 C 10.09375 -5.421875 9.96875 -5.816406 9.71875 -6.078125 C 9.476562 -6.347656 9.070312 -6.484375 8.5 -6.484375 C 8.03125 -6.484375 7.640625 -6.34375 7.328125 -6.0625 C 7.015625 -5.78125 6.835938 -5.398438 6.796875 -4.921875 L 6.796875 0 L 5.515625 0 L 5.515625 -4.859375 C 5.515625 -5.941406 4.988281 -6.484375 3.9375 -6.484375 C 3.101562 -6.484375 2.53125 -6.128906 2.21875 -5.421875 L 2.21875 0 L 0.953125 0 L 0.953125 -7.421875 Z M 2.15625 -7.421875 "/></g></g></g><g fill="#000000" fill-opacity="1"><g transform="translate(872.729521, 77.396859)"><g/></g></g><g fill="#000000" fill-opacity="1"><g transform="translate(876.205663, 77.396859)"><g><path d="M 7.375 0 L 0.828125 0 L 0.828125 -0.90625 L 4.28125 -4.75 C 4.800781 -5.332031 5.15625 -5.804688 5.34375 -6.171875 C 5.539062 -6.535156 5.640625 -6.910156 5.640625 -7.296875 C 5.640625 -7.816406 5.476562 -8.242188 5.15625 -8.578125 C 4.84375 -8.910156 4.425781 -9.078125 3.90625 -9.078125 C 3.269531 -9.078125 2.773438 -8.894531 2.421875 -8.53125 C 2.078125 -8.175781 1.90625 -7.679688 1.90625 -7.046875 L 0.640625 -7.046875 C 0.640625 -7.960938 0.9375 -8.703125 1.53125 -9.265625 C 2.125 -9.835938 2.914062 -10.125 3.90625 -10.125 C 4.832031 -10.125 5.5625 -9.878906 6.09375 -9.390625 C 6.632812 -8.898438 6.90625 -8.253906 6.90625 -7.453125 C 6.90625 -6.460938 6.28125 -5.289062 5.03125 -3.9375 L 2.359375 -1.03125 L 7.375 -1.03125 Z M 7.375 0 "/></g></g></g><g fill="#000000" fill-opacity="1"><g transform="translate(884.090405, 77.396859)"><g><path d="M 7.09375 -4.265625 C 7.09375 -2.773438 6.835938 -1.664062 6.328125 -0.9375 C 5.816406 -0.21875 5.023438 0.140625 3.953125 0.140625 C 2.890625 0.140625 2.097656 -0.210938 1.578125 -0.921875 C 1.066406 -1.628906 0.800781 -2.6875 0.78125 -4.09375 L 0.78125 -5.78125 C 0.78125 -7.25 1.035156 -8.335938 1.546875 -9.046875 C 2.054688 -9.765625 2.851562 -10.125 3.9375 -10.125 C 5.007812 -10.125 5.800781 -9.78125 6.3125 -9.09375 C 6.820312 -8.40625 7.082031 -7.34375 7.09375 -5.90625 Z M 5.828125 -6 C 5.828125 -7.070312 5.675781 -7.851562 5.375 -8.34375 C 5.070312 -8.832031 4.59375 -9.078125 3.9375 -9.078125 C 3.289062 -9.078125 2.816406 -8.832031 2.515625 -8.34375 C 2.222656 -7.851562 2.070312 -7.101562 2.0625 -6.09375 L 2.0625 -4.0625 C 2.0625 -2.976562 2.21875 -2.179688 2.53125 -1.671875 C 2.84375 -1.160156 3.316406 -0.90625 3.953125 -0.90625 C 4.578125 -0.90625 5.039062 -1.144531 5.34375 -1.625 C 5.644531 -2.113281 5.804688 -2.878906 5.828125 -3.921875 Z M 5.828125 -6 "/></g></g></g><g fill="#000000" fill-opacity="1"><g transform="translate(891.975147, 77.396859)"><g><path d="M 2.671875 -5.609375 L 3.625 -5.609375 C 4.226562 -5.617188 4.703125 -5.773438 5.046875 -6.078125 C 5.390625 -6.390625 5.5625 -6.804688 5.5625 -7.328125 C 5.5625 -8.492188 4.976562 -9.078125 3.8125 -9.078125 C 3.257812 -9.078125 2.816406 -8.921875 2.484375 -8.609375 C 2.160156 -8.296875 2 -7.878906 2 -7.359375 L 0.734375 -7.359375 C 0.734375 -8.148438 1.019531 -8.804688 1.59375 -9.328125 C 2.175781 -9.859375 2.914062 -10.125 3.8125 -10.125 C 4.75 -10.125 5.484375 -9.875 6.015625 -9.375 C 6.554688 -8.875 6.828125 -8.179688 6.828125 -7.296875 C 6.828125 -6.859375 6.6875 -6.4375 6.40625 -6.03125 C 6.125 -5.625 5.738281 -5.320312 5.25 -5.125 C 5.800781 -4.945312 6.222656 -4.65625 6.515625 -4.25 C 6.816406 -3.851562 6.96875 -3.363281 6.96875 -2.78125 C 6.96875 -1.882812 6.675781 -1.171875 6.09375 -0.640625 C 5.507812 -0.117188 4.75 0.140625 3.8125 0.140625 C 2.875 0.140625 2.109375 -0.113281 1.515625 -0.625 C 0.929688 -1.132812 0.640625 -1.804688 0.640625 -2.640625 L 1.921875 -2.640625 C 1.921875 -2.109375 2.09375 -1.6875 2.4375 -1.375 C 2.78125 -1.0625 3.238281 -0.90625 3.8125 -0.90625 C 4.425781 -0.90625 4.894531 -1.0625 5.21875 -1.375 C 5.539062 -1.695312 5.703125 -2.15625 5.703125 -2.75 C 5.703125 -3.332031 5.523438 -3.78125 5.171875 -4.09375 C 4.816406 -4.40625 4.300781 -4.566406 3.625 -4.578125 L 2.671875 -4.578125 Z M 2.671875 -5.609375 "/></g></g></g><g transform="matrix(1, 0, 0, 1, 835, 270)"><g clip-path="url(#4abd465b89)"><g fill="#000000" fill-opacity="1"><g transform="translate(0.736111, 14.060249)"><g><path d="M 4.828125 -4.046875 L 2.46875 -4.046875 L 2.46875 0 L 1.15625 0 L 1.15625 -9.984375 L 4.453125 -9.984375 C 5.578125 -9.984375 6.441406 -9.726562 7.046875 -9.21875 C 7.660156 -8.707031 7.96875 -7.960938 7.96875 -6.984375 C 7.96875 -6.359375 7.796875 -5.8125 7.453125 -5.34375 C 7.117188 -4.882812 6.65625 -4.546875 6.0625 -4.328125 L 8.40625 -0.078125 L 8.40625 0 L 6.984375 0 Z M 2.46875 -5.109375 L 4.5 -5.109375 C 5.15625 -5.109375 5.675781 -5.273438 6.0625 -5.609375 C 6.445312 -5.953125 6.640625 -6.410156 6.640625 -6.984375 C 6.640625 -7.597656 6.453125 -8.066406 6.078125 -8.390625 C 5.710938 -8.722656 5.1875 -8.894531 4.5 -8.90625 L 2.46875 -8.90625 Z M 2.46875 -5.109375 "/></g></g><g transform="translate(9.387093, 14.060249)"><g><path d="M 0.625 -3.78125 C 0.625 -4.507812 0.765625 -5.160156 1.046875 -5.734375 C 1.335938 -6.316406 1.738281 -6.765625 2.25 -7.078125 C 2.757812 -7.398438 3.335938 -7.5625 3.984375 -7.5625 C 4.992188 -7.5625 5.8125 -7.207031 6.4375 -6.5 C 7.0625 -5.800781 7.375 -4.875 7.375 -3.71875 L 7.375 -3.625 C 7.375 -2.90625 7.234375 -2.257812 6.953125 -1.6875 C 6.679688 -1.113281 6.285156 -0.664062 5.765625 -0.34375 C 5.253906 -0.0195312 4.664062 0.140625 4 0.140625 C 3 0.140625 2.1875 -0.207031 1.5625 -0.90625 C 0.9375 -1.613281 0.625 -2.539062 0.625 -3.6875 Z M 1.90625 -3.625 C 1.90625 -2.800781 2.09375 -2.140625 2.46875 -1.640625 C 2.851562 -1.148438 3.363281 -0.90625 4 -0.90625 C 4.644531 -0.90625 5.15625 -1.15625 5.53125 -1.65625 C 5.914062 -2.164062 6.109375 -2.875 6.109375 -3.78125 C 6.109375 -4.59375 5.914062 -5.25 5.53125 -5.75 C 5.144531 -6.257812 4.628906 -6.515625 3.984375 -6.515625 C 3.359375 -6.515625 2.851562 -6.265625 2.46875 -5.765625 C 2.09375 -5.265625 1.90625 -4.550781 1.90625 -3.625 Z M 1.90625 -3.625 "/></g></g><g transform="translate(17.400057, 14.060249)"><g><path d="M 0.625 -3.78125 C 0.625 -4.507812 0.765625 -5.160156 1.046875 -5.734375 C 1.335938 -6.316406 1.738281 -6.765625 2.25 -7.078125 C 2.757812 -7.398438 3.335938 -7.5625 3.984375 -7.5625 C 4.992188 -7.5625 5.8125 -7.207031 6.4375 -6.5 C 7.0625 -5.800781 7.375 -4.875 7.375 -3.71875 L 7.375 -3.625 C 7.375 -2.90625 7.234375 -2.257812 6.953125 -1.6875 C 6.679688 -1.113281 6.285156 -0.664062 5.765625 -0.34375 C 5.253906 -0.0195312 4.664062 0.140625 4 0.140625 C 3 0.140625 2.1875 -0.207031 1.5625 -0.90625 C 0.9375 -1.613281 0.625 -2.539062 0.625 -3.6875 Z M 1.90625 -3.625 C 1.90625 -2.800781 2.09375 -2.140625 2.46875 -1.640625 C 2.851562 -1.148438 3.363281 -0.90625 4 -0.90625 C 4.644531 -0.90625 5.15625 -1.15625 5.53125 -1.65625 C 5.914062 -2.164062 6.109375 -2.875 6.109375 -3.78125 C 6.109375 -4.59375 5.914062 -5.25 5.53125 -5.75 C 5.144531 -6.257812 4.628906 -6.515625 3.984375 -6.515625 C 3.359375 -6.515625 2.851562 -6.265625 2.46875 -5.765625 C 2.09375 -5.265625 1.90625 -4.550781 1.90625 -3.625 Z M 1.90625 -3.625 "/></g></g><g transform="translate(25.41302, 14.060249)"><g><path d="M 2.15625 -7.421875 L 2.1875 -6.59375 C 2.726562 -7.238281 3.460938 -7.5625 4.390625 -7.5625 C 5.429688 -7.5625 6.140625 -7.160156 6.515625 -6.359375 C 6.753906 -6.722656 7.070312 -7.015625 7.46875 -7.234375 C 7.863281 -7.453125 8.332031 -7.5625 8.875 -7.5625 C 10.5 -7.5625 11.328125 -6.695312 11.359375 -4.96875 L 11.359375 0 L 10.09375 0 L 10.09375 -4.890625 C 10.09375 -5.421875 9.96875 -5.816406 9.71875 -6.078125 C 9.476562 -6.347656 9.070312 -6.484375 8.5 -6.484375 C 8.03125 -6.484375 7.640625 -6.34375 7.328125 -6.0625 C 7.015625 -5.78125 6.835938 -5.398438 6.796875 -4.921875 L 6.796875 0 L 5.515625 0 L 5.515625 -4.859375 C 5.515625 -5.941406 4.988281 -6.484375 3.9375 -6.484375 C 3.101562 -6.484375 2.53125 -6.128906 2.21875 -5.421875 L 2.21875 0 L 0.953125 0 L 0.953125 -7.421875 Z M 2.15625 -7.421875 "/></g></g><g transform="translate(37.727463, 14.060249)"><g/></g><g transform="translate(41.205693, 14.060249)"><g><path d="M 7.375 0 L 0.828125 0 L 0.828125 -0.90625 L 4.28125 -4.75 C 4.800781 -5.332031 5.15625 -5.804688 5.34375 -6.171875 C 5.539062 -6.535156 5.640625 -6.910156 5.640625 -7.296875 C 5.640625 -7.816406 5.476562 -8.242188 5.15625 -8.578125 C 4.84375 -8.910156 4.425781 -9.078125 3.90625 -9.078125 C 3.269531 -9.078125 2.773438 -8.894531 2.421875 -8.53125 C 2.078125 -8.175781 1.90625 -7.679688 1.90625 -7.046875 L 0.640625 -7.046875 C 0.640625 -7.960938 0.9375 -8.703125 1.53125 -9.265625 C 2.125 -9.835938 2.914062 -10.125 3.90625 -10.125 C 4.832031 -10.125 5.5625 -9.878906 6.09375 -9.390625 C 6.632812 -8.898438 6.90625 -8.253906 6.90625 -7.453125 C 6.90625 -6.460938 6.28125 -5.289062 5.03125 -3.9375 L 2.359375 -1.03125 L 7.375 -1.03125 Z M 7.375 0 "/></g></g><g transform="translate(49.095169, 14.060249)"><g><path d="M 7.09375 -4.265625 C 7.09375 -2.773438 6.835938 -1.664062 6.328125 -0.9375 C 5.816406 -0.21875 5.023438 0.140625 3.953125 0.140625 C 2.890625 0.140625 2.097656 -0.210938 1.578125 -0.921875 C 1.066406 -1.628906 0.800781 -2.6875 0.78125 -4.09375 L 0.78125 -5.78125 C 0.78125 -7.25 1.035156 -8.335938 1.546875 -9.046875 C 2.054688 -9.765625 2.851562 -10.125 3.9375 -10.125 C 5.007812 -10.125 5.800781 -9.78125 6.3125 -9.09375 C 6.820312 -8.40625 7.082031 -7.34375 7.09375 -5.90625 Z M 5.828125 -6 C 5.828125 -7.070312 5.675781 -7.851562 5.375 -8.34375 C 5.070312 -8.832031 4.59375 -9.078125 3.9375 -9.078125 C 3.289062 -9.078125 2.816406 -8.832031 2.515625 -8.34375 C 2.222656 -7.851562 2.070312 -7.101562 2.0625 -6.09375 L 2.0625 -4.0625 C 2.0625 -2.976562 2.21875 -2.179688 2.53125 -1.671875 C 2.84375 -1.160156 3.316406 -0.90625 3.953125 -0.90625 C 4.578125 -0.90625 5.039062 -1.144531 5.34375 -1.625 C 5.644531 -2.113281 5.804688 -2.878906 5.828125 -3.921875 Z M 5.828125 -6 "/></g></g><g transform="translate(56.984645, 14.060249)"><g><path d="M 7.375 0 L 0.828125 0 L 0.828125 -0.90625 L 4.28125 -4.75 C 4.800781 -5.332031 5.15625 -5.804688 5.34375 -6.171875 C 5.539062 -6.535156 5.640625 -6.910156 5.640625 -7.296875 C 5.640625 -7.816406 5.476562 -8.242188 5.15625 -8.578125 C 4.84375 -8.910156 4.425781 -9.078125 3.90625 -9.078125 C 3.269531 -9.078125 2.773438 -8.894531 2.421875 -8.53125 C 2.078125 -8.175781 1.90625 -7.679688 1.90625 -7.046875 L 0.640625 -7.046875 C 0.640625 -7.960938 0.9375 -8.703125 1.53125 -9.265625 C 2.125 -9.835938 2.914062 -10.125 3.90625 -10.125 C 4.832031 -10.125 5.5625 -9.878906 6.09375 -9.390625 C 6.632812 -8.898438 6.90625 -8.253906 6.90625 -7.453125 C 6.90625 -6.460938 6.28125 -5.289062 5.03125 -3.9375 L 2.359375 -1.03125 L 7.375 -1.03125 Z M 7.375 0 "/></g></g></g></g></g><g fill="#000000" fill-opacity="1"><g transform="translate(835.760365, 465.883197)"><g><path d="M 4.828125 -4.046875 L 2.46875 -4.046875 L 2.46875 0 L 1.15625 0 L 1.15625 -9.984375 L 4.453125 -9.984375 C 5.578125 -9.984375 6.441406 -9.726562 7.046875 -9.21875 C 7.660156 -8.707031 7.96875 -7.960938 7.96875 -6.984375 C 7.96875 -6.359375 7.796875 -5.8125 7.453125 -5.34375 C 7.117188 -4.882812 6.65625 -4.546875 6.0625 -4.328125 L 8.40625 -0.078125 L 8.40625 0 L 6.984375 0 Z M 2.46875 -5.109375 L 4.5 -5.109375 C 5.15625 -5.109375 5.675781 -5.273438 6.0625 -5.609375 C 6.445312 -5.953125 6.640625 -6.410156 6.640625 -6.984375 C 6.640625 -7.597656 6.453125 -8.066406 6.078125 -8.390625 C 5.710938 -8.722656 5.1875 -8.894531 4.5 -8.90625 L 2.46875 -8.90625 Z M 2.46875 -5.109375 "/></g></g></g><g fill="#000000" fill-opacity="1"><g transform="translate(844.406156, 465.883197)"><g><path d="M 0.625 -3.78125 C 0.625 -4.507812 0.765625 -5.160156 1.046875 -5.734375 C 1.335938 -6.316406 1.738281 -6.765625 2.25 -7.078125 C 2.757812 -7.398438 3.335938 -7.5625 3.984375 -7.5625 C 4.992188 -7.5625 5.8125 -7.207031 6.4375 -6.5 C 7.0625 -5.800781 7.375 -4.875 7.375 -3.71875 L 7.375 -3.625 C 7.375 -2.90625 7.234375 -2.257812 6.953125 -1.6875 C 6.679688 -1.113281 6.285156 -0.664062 5.765625 -0.34375 C 5.253906 -0.0195312 4.664062 0.140625 4 0.140625 C 3 0.140625 2.1875 -0.207031 1.5625 -0.90625 C 0.9375 -1.613281 0.625 -2.539062 0.625 -3.6875 Z M 1.90625 -3.625 C 1.90625 -2.800781 2.09375 -2.140625 2.46875 -1.640625 C 2.851562 -1.148438 3.363281 -0.90625 4 -0.90625 C 4.644531 -0.90625 5.15625 -1.15625 5.53125 -1.65625 C 5.914062 -2.164062 6.109375 -2.875 6.109375 -3.78125 C 6.109375 -4.59375 5.914062 -5.25 5.53125 -5.75 C 5.144531 -6.257812 4.628906 -6.515625 3.984375 -6.515625 C 3.359375 -6.515625 2.851562 -6.265625 2.46875 -5.765625 C 2.09375 -5.265625 1.90625 -4.550781 1.90625 -3.625 Z M 1.90625 -3.625 "/></g></g></g><g fill="#000000" fill-opacity="1"><g transform="translate(852.414312, 465.883197)"><g><path d="M 0.625 -3.78125 C 0.625 -4.507812 0.765625 -5.160156 1.046875 -5.734375 C 1.335938 -6.316406 1.738281 -6.765625 2.25 -7.078125 C 2.757812 -7.398438 3.335938 -7.5625 3.984375 -7.5625 C 4.992188 -7.5625 5.8125 -7.207031 6.4375 -6.5 C 7.0625 -5.800781 7.375 -4.875 7.375 -3.71875 L 7.375 -3.625 C 7.375 -2.90625 7.234375 -2.257812 6.953125 -1.6875 C 6.679688 -1.113281 6.285156 -0.664062 5.765625 -0.34375 C 5.253906 -0.0195312 4.664062 0.140625 4 0.140625 C 3 0.140625 2.1875 -0.207031 1.5625 -0.90625 C 0.9375 -1.613281 0.625 -2.539062 0.625 -3.6875 Z M 1.90625 -3.625 C 1.90625 -2.800781 2.09375 -2.140625 2.46875 -1.640625 C 2.851562 -1.148438 3.363281 -0.90625 4 -0.90625 C 4.644531 -0.90625 5.15625 -1.15625 5.53125 -1.65625 C 5.914062 -2.164062 6.109375 -2.875 6.109375 -3.78125 C 6.109375 -4.59375 5.914062 -5.25 5.53125 -5.75 C 5.144531 -6.257812 4.628906 -6.515625 3.984375 -6.515625 C 3.359375 -6.515625 2.851562 -6.265625 2.46875 -5.765625 C 2.09375 -5.265625 1.90625 -4.550781 1.90625 -3.625 Z M 1.90625 -3.625 "/></g></g></g><g fill="#000000" fill-opacity="1"><g transform="translate(860.422467, 465.883197)"><g><path d="M 2.15625 -7.421875 L 2.1875 -6.59375 C 2.726562 -7.238281 3.460938 -7.5625 4.390625 -7.5625 C 5.429688 -7.5625 6.140625 -7.160156 6.515625 -6.359375 C 6.753906 -6.722656 7.070312 -7.015625 7.46875 -7.234375 C 7.863281 -7.453125 8.332031 -7.5625 8.875 -7.5625 C 10.5 -7.5625 11.328125 -6.695312 11.359375 -4.96875 L 11.359375 0 L 10.09375 0 L 10.09375 -4.890625 C 10.09375 -5.421875 9.96875 -5.816406 9.71875 -6.078125 C 9.476562 -6.347656 9.070312 -6.484375 8.5 -6.484375 C 8.03125 -6.484375 7.640625 -6.34375 7.328125 -6.0625 C 7.015625 -5.78125 6.835938 -5.398438 6.796875 -4.921875 L 6.796875 0 L 5.515625 0 L 5.515625 -4.859375 C 5.515625 -5.941406 4.988281 -6.484375 3.9375 -6.484375 C 3.101562 -6.484375 2.53125 -6.128906 2.21875 -5.421875 L 2.21875 0 L 0.953125 0 L 0.953125 -7.421875 Z M 2.15625 -7.421875 "/></g></g></g><g fill="#000000" fill-opacity="1"><g transform="translate(872.729521, 465.883197)"><g/></g></g><g fill="#000000" fill-opacity="1"><g transform="translate(876.205663, 465.883197)"><g><path d="M 7.375 0 L 0.828125 0 L 0.828125 -0.90625 L 4.28125 -4.75 C 4.800781 -5.332031 5.15625 -5.804688 5.34375 -6.171875 C 5.539062 -6.535156 5.640625 -6.910156 5.640625 -7.296875 C 5.640625 -7.816406 5.476562 -8.242188 5.15625 -8.578125 C 4.84375 -8.910156 4.425781 -9.078125 3.90625 -9.078125 C 3.269531 -9.078125 2.773438 -8.894531 2.421875 -8.53125 C 2.078125 -8.175781 1.90625 -7.679688 1.90625 -7.046875 L 0.640625 -7.046875 C 0.640625 -7.960938 0.9375 -8.703125 1.53125 -9.265625 C 2.125 -9.835938 2.914062 -10.125 3.90625 -10.125 C 4.832031 -10.125 5.5625 -9.878906 6.09375 -9.390625 C 6.632812 -8.898438 6.90625 -8.253906 6.90625 -7.453125 C 6.90625 -6.460938 6.28125 -5.289062 5.03125 -3.9375 L 2.359375 -1.03125 L 7.375 -1.03125 Z M 7.375 0 "/></g></g></g><g fill="#000000" fill-opacity="1"><g transform="translate(884.090405, 465.883197)"><g><path d="M 7.09375 -4.265625 C 7.09375 -2.773438 6.835938 -1.664062 6.328125 -0.9375 C 5.816406 -0.21875 5.023438 0.140625 3.953125 0.140625 C 2.890625 0.140625 2.097656 -0.210938 1.578125 -0.921875 C 1.066406 -1.628906 0.800781 -2.6875 0.78125 -4.09375 L 0.78125 -5.78125 C 0.78125 -7.25 1.035156 -8.335938 1.546875 -9.046875 C 2.054688 -9.765625 2.851562 -10.125 3.9375 -10.125 C 5.007812 -10.125 5.800781 -9.78125 6.3125 -9.09375 C 6.820312 -8.40625 7.082031 -7.34375 7.09375 -5.90625 Z M 5.828125 -6 C 5.828125 -7.070312 5.675781 -7.851562 5.375 -8.34375 C 5.070312 -8.832031 4.59375 -9.078125 3.9375 -9.078125 C 3.289062 -9.078125 2.816406 -8.832031 2.515625 -8.34375 C 2.222656 -7.851562 2.070312 -7.101562 2.0625 -6.09375 L 2.0625 -4.0625 C 2.0625 -2.976562 2.21875 -2.179688 2.53125 -1.671875 C 2.84375 -1.160156 3.316406 -0.90625 3.953125 -0.90625 C 4.578125 -0.90625 5.039062 -1.144531 5.34375 -1.625 C 5.644531 -2.113281 5.804688 -2.878906 5.828125 -3.921875 Z M 5.828125 -6 "/></g></g></g><g fill="#000000" fill-opacity="1"><g transform="translate(891.975147, 465.883197)"><g><path d="M 5 0 L 3.71875 0 L 3.71875 -8.453125 L 1.171875 -7.515625 L 1.171875 -8.671875 L 4.796875 -10.03125 L 5 -10.03125 Z M 5 0 "/></g></g></g><g fill="#000000" fill-opacity="1"><g transform="translate(433.061573, 574.585264)"><g><path d="M 6.796875 -4.609375 L 2.46875 -4.609375 L 2.46875 -1.078125 L 7.5 -1.078125 L 7.5 0 L 1.15625 0 L 1.15625 -9.984375 L 7.4375 -9.984375 L 7.4375 -8.90625 L 2.46875 -8.90625 L 2.46875 -5.6875 L 6.796875 -5.6875 Z M 6.796875 -4.609375 "/></g></g></g><g fill="#000000" fill-opacity="1"><g transform="translate(441.042303, 574.585264)"><g><path d="M 3.453125 -4.71875 L 5.09375 -7.421875 L 6.578125 -7.421875 L 4.15625 -3.75 L 6.65625 0 L 5.1875 0 L 3.46875 -2.78125 L 1.75 0 L 0.28125 0 L 2.78125 -3.75 L 0.359375 -7.421875 L 1.828125 -7.421875 Z M 3.453125 -4.71875 "/></g></g></g><g fill="#000000" fill-opacity="1"><g transform="translate(448.001445, 574.585264)"><g><path d="M 2.34375 0 L 1.0625 0 L 1.0625 -7.421875 L 2.34375 -7.421875 Z M 0.96875 -9.390625 C 0.96875 -9.597656 1.03125 -9.769531 1.15625 -9.90625 C 1.28125 -10.050781 1.460938 -10.125 1.703125 -10.125 C 1.953125 -10.125 2.140625 -10.050781 2.265625 -9.90625 C 2.398438 -9.769531 2.46875 -9.597656 2.46875 -9.390625 C 2.46875 -9.179688 2.398438 -9.007812 2.265625 -8.875 C 2.140625 -8.738281 1.953125 -8.671875 1.703125 -8.671875 C 1.460938 -8.671875 1.28125 -8.738281 1.15625 -8.875 C 1.03125 -9.007812 0.96875 -9.179688 0.96875 -9.390625 Z M 0.96875 -9.390625 "/></g></g></g><g fill="#000000" fill-opacity="1"><g transform="translate(451.409024, 574.585264)"><g><path d="M 2.6875 -9.21875 L 2.6875 -7.421875 L 4.0625 -7.421875 L 4.0625 -6.4375 L 2.6875 -6.4375 L 2.6875 -1.84375 C 2.6875 -1.539062 2.742188 -1.316406 2.859375 -1.171875 C 2.984375 -1.023438 3.195312 -0.953125 3.5 -0.953125 C 3.644531 -0.953125 3.847656 -0.976562 4.109375 -1.03125 L 4.109375 0 C 3.765625 0.09375 3.4375 0.140625 3.125 0.140625 C 2.5625 0.140625 2.132812 -0.03125 1.84375 -0.375 C 1.550781 -0.71875 1.40625 -1.207031 1.40625 -1.84375 L 1.40625 -6.4375 L 0.0625 -6.4375 L 0.0625 -7.421875 L 1.40625 -7.421875 L 1.40625 -9.21875 Z M 2.6875 -9.21875 "/></g></g></g><g fill="#000000" fill-opacity="1"><g transform="translate(455.995887, 574.585264)"><g/></g></g><g fill="#000000" fill-opacity="1"><g transform="translate(459.47203, 574.585264)"><g><path d="M 7.375 0 L 0.828125 0 L 0.828125 -0.90625 L 4.28125 -4.75 C 4.800781 -5.332031 5.15625 -5.804688 5.34375 -6.171875 C 5.539062 -6.535156 5.640625 -6.910156 5.640625 -7.296875 C 5.640625 -7.816406 5.476562 -8.242188 5.15625 -8.578125 C 4.84375 -8.910156 4.425781 -9.078125 3.90625 -9.078125 C 3.269531 -9.078125 2.773438 -8.894531 2.421875 -8.53125 C 2.078125 -8.175781 1.90625 -7.679688 1.90625 -7.046875 L 0.640625 -7.046875 C 0.640625 -7.960938 0.9375 -8.703125 1.53125 -9.265625 C 2.125 -9.835938 2.914062 -10.125 3.90625 -10.125 C 4.832031 -10.125 5.5625 -9.878906 6.09375 -9.390625 C 6.632812 -8.898438 6.90625 -8.253906 6.90625 -7.453125 C 6.90625 -6.460938 6.28125 -5.289062 5.03125 -3.9375 L 2.359375 -1.03125 L 7.375 -1.03125 Z M 7.375 0 "/></g></g></g><g fill="#000000" fill-opacity="1"><g transform="translate(716.765116, 574.585264)"><g><path d="M 6.796875 -4.609375 L 2.46875 -4.609375 L 2.46875 -1.078125 L 7.5 -1.078125 L 7.5 0 L 1.15625 0 L 1.15625 -9.984375 L 7.4375 -9.984375 L 7.4375 -8.90625 L 2.46875 -8.90625 L 2.46875 -5.6875 L 6.796875 -5.6875 Z M 6.796875 -4.609375 "/></g></g></g><g fill="#000000" fill-opacity="1"><g transform="translate(724.745846, 574.585264)"><g><path d="M 3.453125 -4.71875 L 5.09375 -7.421875 L 6.578125 -7.421875 L 4.15625 -3.75 L 6.65625 0 L 5.1875 0 L 3.46875 -2.78125 L 1.75 0 L 0.28125 0 L 2.78125 -3.75 L 0.359375 -7.421875 L 1.828125 -7.421875 Z M 3.453125 -4.71875 "/></g></g></g><g fill="#000000" fill-opacity="1"><g transform="translate(731.704988, 574.585264)"><g><path d="M 2.34375 0 L 1.0625 0 L 1.0625 -7.421875 L 2.34375 -7.421875 Z M 0.96875 -9.390625 C 0.96875 -9.597656 1.03125 -9.769531 1.15625 -9.90625 C 1.28125 -10.050781 1.460938 -10.125 1.703125 -10.125 C 1.953125 -10.125 2.140625 -10.050781 2.265625 -9.90625 C 2.398438 -9.769531 2.46875 -9.597656 2.46875 -9.390625 C 2.46875 -9.179688 2.398438 -9.007812 2.265625 -8.875 C 2.140625 -8.738281 1.953125 -8.671875 1.703125 -8.671875 C 1.460938 -8.671875 1.28125 -8.738281 1.15625 -8.875 C 1.03125 -9.007812 0.96875 -9.179688 0.96875 -9.390625 Z M 0.96875 -9.390625 "/></g></g></g><g fill="#000000" fill-opacity="1"><g transform="translate(735.112568, 574.585264)"><g><path d="M 2.6875 -9.21875 L 2.6875 -7.421875 L 4.0625 -7.421875 L 4.0625 -6.4375 L 2.6875 -6.4375 L 2.6875 -1.84375 C 2.6875 -1.539062 2.742188 -1.316406 2.859375 -1.171875 C 2.984375 -1.023438 3.195312 -0.953125 3.5 -0.953125 C 3.644531 -0.953125 3.847656 -0.976562 4.109375 -1.03125 L 4.109375 0 C 3.765625 0.09375 3.4375 0.140625 3.125 0.140625 C 2.5625 0.140625 2.132812 -0.03125 1.84375 -0.375 C 1.550781 -0.71875 1.40625 -1.207031 1.40625 -1.84375 L 1.40625 -6.4375 L 0.0625 -6.4375 L 0.0625 -7.421875 L 1.40625 -7.421875 L 1.40625 -9.21875 Z M 2.6875 -9.21875 "/></g></g></g><g fill="#000000" fill-opacity="1"><g transform="translate(739.699431, 574.585264)"><g/></g></g><g fill="#000000" fill-opacity="1"><g transform="translate(743.175573, 574.585264)"><g><path d="M 2.671875 -5.609375 L 3.625 -5.609375 C 4.226562 -5.617188 4.703125 -5.773438 5.046875 -6.078125 C 5.390625 -6.390625 5.5625 -6.804688 5.5625 -7.328125 C 5.5625 -8.492188 4.976562 -9.078125 3.8125 -9.078125 C 3.257812 -9.078125 2.816406 -8.921875 2.484375 -8.609375 C 2.160156 -8.296875 2 -7.878906 2 -7.359375 L 0.734375 -7.359375 C 0.734375 -8.148438 1.019531 -8.804688 1.59375 -9.328125 C 2.175781 -9.859375 2.914062 -10.125 3.8125 -10.125 C 4.75 -10.125 5.484375 -9.875 6.015625 -9.375 C 6.554688 -8.875 6.828125 -8.179688 6.828125 -7.296875 C 6.828125 -6.859375 6.6875 -6.4375 6.40625 -6.03125 C 6.125 -5.625 5.738281 -5.320312 5.25 -5.125 C 5.800781 -4.945312 6.222656 -4.65625 6.515625 -4.25 C 6.816406 -3.851562 6.96875 -3.363281 6.96875 -2.78125 C 6.96875 -1.882812 6.675781 -1.171875 6.09375 -0.640625 C 5.507812 -0.117188 4.75 0.140625 3.8125 0.140625 C 2.875 0.140625 2.109375 -0.113281 1.515625 -0.625 C 0.929688 -1.132812 0.640625 -1.804688 0.640625 -2.640625 L 1.921875 -2.640625 C 1.921875 -2.109375 2.09375 -1.6875 2.4375 -1.375 C 2.78125 -1.0625 3.238281 -0.90625 3.8125 -0.90625 C 4.425781 -0.90625 4.894531 -1.0625 5.21875 -1.375 C 5.539062 -1.695312 5.703125 -2.15625 5.703125 -2.75 C 5.703125 -3.332031 5.523438 -3.78125 5.171875 -4.09375 C 4.816406 -4.40625 4.300781 -4.566406 3.625 -4.578125 L 2.671875 -4.578125 Z M 2.671875 -5.609375 "/></g></g></g><g fill="#000000" fill-opacity="1"><g transform="translate(684.648304, 77.396859)"><g><path d="M 8.0625 -8.90625 L 4.84375 -8.90625 L 4.84375 0 L 3.546875 0 L 3.546875 -8.90625 L 0.34375 -8.90625 L 0.34375 -9.984375 L 8.0625 -9.984375 Z M 8.0625 -8.90625 "/></g></g></g><g fill="#000000" fill-opacity="1"><g transform="translate(692.34756, 77.396859)"><g><path d="M 0.625 -3.78125 C 0.625 -4.507812 0.765625 -5.160156 1.046875 -5.734375 C 1.335938 -6.316406 1.738281 -6.765625 2.25 -7.078125 C 2.757812 -7.398438 3.335938 -7.5625 3.984375 -7.5625 C 4.992188 -7.5625 5.8125 -7.207031 6.4375 -6.5 C 7.0625 -5.800781 7.375 -4.875 7.375 -3.71875 L 7.375 -3.625 C 7.375 -2.90625 7.234375 -2.257812 6.953125 -1.6875 C 6.679688 -1.113281 6.285156 -0.664062 5.765625 -0.34375 C 5.253906 -0.0195312 4.664062 0.140625 4 0.140625 C 3 0.140625 2.1875 -0.207031 1.5625 -0.90625 C 0.9375 -1.613281 0.625 -2.539062 0.625 -3.6875 Z M 1.90625 -3.625 C 1.90625 -2.800781 2.09375 -2.140625 2.46875 -1.640625 C 2.851562 -1.148438 3.363281 -0.90625 4 -0.90625 C 4.644531 -0.90625 5.15625 -1.15625 5.53125 -1.65625 C 5.914062 -2.164062 6.109375 -2.875 6.109375 -3.78125 C 6.109375 -4.59375 5.914062 -5.25 5.53125 -5.75 C 5.144531 -6.257812 4.628906 -6.515625 3.984375 -6.515625 C 3.359375 -6.515625 2.851562 -6.265625 2.46875 -5.765625 C 2.09375 -5.265625 1.90625 -4.550781 1.90625 -3.625 Z M 1.90625 -3.625 "/></g></g></g><g fill="#000000" fill-opacity="1"><g transform="translate(700.355715, 77.396859)"><g><path d="M 2.34375 0 L 1.0625 0 L 1.0625 -7.421875 L 2.34375 -7.421875 Z M 0.96875 -9.390625 C 0.96875 -9.597656 1.03125 -9.769531 1.15625 -9.90625 C 1.28125 -10.050781 1.460938 -10.125 1.703125 -10.125 C 1.953125 -10.125 2.140625 -10.050781 2.265625 -9.90625 C 2.398438 -9.769531 2.46875 -9.597656 2.46875 -9.390625 C 2.46875 -9.179688 2.398438 -9.007812 2.265625 -8.875 C 2.140625 -8.738281 1.953125 -8.671875 1.703125 -8.671875 C 1.460938 -8.671875 1.28125 -8.738281 1.15625 -8.875 C 1.03125 -9.007812 0.96875 -9.179688 0.96875 -9.390625 Z M 0.96875 -9.390625 "/></g></g></g><g fill="#000000" fill-opacity="1"><g transform="translate(703.763295, 77.396859)"><g><path d="M 2.34375 0 L 1.0625 0 L 1.0625 -10.53125 L 2.34375 -10.53125 Z M 2.34375 0 "/></g></g></g><g fill="#000000" fill-opacity="1"><g transform="translate(707.170875, 77.396859)"><g><path d="M 4.046875 0.140625 C 3.035156 0.140625 2.210938 -0.1875 1.578125 -0.84375 C 0.953125 -1.507812 0.640625 -2.394531 0.640625 -3.5 L 0.640625 -3.734375 C 0.640625 -4.472656 0.78125 -5.128906 1.0625 -5.703125 C 1.34375 -6.285156 1.734375 -6.738281 2.234375 -7.0625 C 2.742188 -7.394531 3.289062 -7.5625 3.875 -7.5625 C 4.84375 -7.5625 5.59375 -7.242188 6.125 -6.609375 C 6.664062 -5.972656 6.9375 -5.0625 6.9375 -3.875 L 6.9375 -3.34375 L 1.90625 -3.34375 C 1.925781 -2.613281 2.140625 -2.023438 2.546875 -1.578125 C 2.953125 -1.128906 3.472656 -0.90625 4.109375 -0.90625 C 4.554688 -0.90625 4.9375 -0.992188 5.25 -1.171875 C 5.5625 -1.359375 5.832031 -1.601562 6.0625 -1.90625 L 6.84375 -1.296875 C 6.21875 -0.335938 5.285156 0.140625 4.046875 0.140625 Z M 3.875 -6.515625 C 3.363281 -6.515625 2.9375 -6.328125 2.59375 -5.953125 C 2.25 -5.578125 2.035156 -5.054688 1.953125 -4.390625 L 5.671875 -4.390625 L 5.671875 -4.484375 C 5.628906 -5.128906 5.453125 -5.628906 5.140625 -5.984375 C 4.828125 -6.335938 4.40625 -6.515625 3.875 -6.515625 Z M 3.875 -6.515625 "/></g></g></g><g fill="#000000" fill-opacity="1"><g transform="translate(714.609957, 77.396859)"><g><path d="M 2.6875 -9.21875 L 2.6875 -7.421875 L 4.0625 -7.421875 L 4.0625 -6.4375 L 2.6875 -6.4375 L 2.6875 -1.84375 C 2.6875 -1.539062 2.742188 -1.316406 2.859375 -1.171875 C 2.984375 -1.023438 3.195312 -0.953125 3.5 -0.953125 C 3.644531 -0.953125 3.847656 -0.976562 4.109375 -1.03125 L 4.109375 0 C 3.765625 0.09375 3.4375 0.140625 3.125 0.140625 C 2.5625 0.140625 2.132812 -0.03125 1.84375 -0.375 C 1.550781 -0.71875 1.40625 -1.207031 1.40625 -1.84375 L 1.40625 -6.4375 L 0.0625 -6.4375 L 0.0625 -7.421875 L 1.40625 -7.421875 L 1.40625 -9.21875 Z M 2.6875 -9.21875 "/></g></g></g><g clip-path="url(#918b857d8e)"><g transform="matrix(1, 0, 0, 1, 498, 378)"><g clip-path="url(#49ce4eed81)"><g clip-path="url(#4179c9c71e)"><path fill="#737373" d="M 0.421875 0.859375 L 190.222656 0.859375 L 190.222656 245.523438 L 0.421875 245.523438 Z M 0.421875 0.859375 " fill-opacity="1" fill-rule="nonzero"/></g></g></g></g><g clip-path="url(#590d73f5ce)"><g transform="matrix(1, 0, 0, 1, 468, 346)"><g clip-path="url(#a82a858927)"><g clip-path="url(#fc0f74a788)"><path fill="#737373" d="M 0.136719 0.992188 L 250.066406 0.992188 L 250.066406 173.453125 L 0.136719 173.453125 Z M 0.136719 0.992188 " fill-opacity="1" fill-rule="nonzero"/></g></g></g></g><g clip-path="url(#4acb17a66d)"><g transform="matrix(1, 0, 0, 1, 468, 236)"><g clip-path="url(#d8b2c43767)"><g clip-path="url(#6e449feb58)"><path fill="#737373" d="M 0.109375 0.0742188 L 34.9375 0.0742188 L 34.9375 172.589844 L 0.109375 172.589844 Z M 0.109375 0.0742188 " fill-opacity="1" fill-rule="nonzero"/></g></g></g></g><g clip-path="url(#b8042642b1)"><g transform="matrix(1, 0, 0, 1, 684, 236)"><g clip-path="url(#93d01f9022)"><g clip-path="url(#14e8e02d14)"><path fill="#737373" d="M 0.308594 0.28125 L 33.996094 0.28125 L 33.996094 172.007812 L 0.308594 172.007812 Z M 0.308594 0.28125 " fill-opacity="1" fill-rule="nonzero"/></g></g></g></g></svg>