<svg xmlns="http://www.w3.org/2000/svg" xmlns:xlink="http://www.w3.org/1999/xlink" width="1600" zoomAndPan="magnify" viewBox="0 0 1200 675.000002" height="900" preserveAspectRatio="xMidYMid meet" version="1.0"><defs><g/><clipPath id="d366b952cd"><path d="M 0.886719 0 L 1199.113281 0 L 1199.113281 674 L 0.886719 674 Z M 0.886719 0 " clip-rule="nonzero"/></clipPath><clipPath id="31899be17e"><path d="M 457.515625 208.34375 L 489.6875 208.34375 L 489.6875 250.28125 L 457.515625 250.28125 Z M 457.515625 208.34375 " clip-rule="nonzero"/></clipPath><clipPath id="543a191227"><path d="M 489.511719 208.34375 L 521.679688 208.34375 L 521.679688 250.28125 L 489.511719 250.28125 Z M 489.511719 208.34375 " clip-rule="nonzero"/></clipPath><clipPath id="9430db0495"><path d="M 411.535156 208.707031 L 443.707031 208.707031 L 443.707031 250.644531 L 411.535156 250.644531 Z M 411.535156 208.707031 " clip-rule="nonzero"/></clipPath><clipPath id="2250a85da2"><path d="M 535.1875 208.707031 L 567.359375 208.707031 L 567.359375 250.644531 L 535.1875 250.644531 Z M 535.1875 208.707031 " clip-rule="nonzero"/></clipPath><clipPath id="2aa284edb8"><path d="M 339.613281 33.09375 L 406.65625 33.09375 L 406.65625 118.144531 L 339.613281 118.144531 Z M 339.613281 33.09375 " clip-rule="nonzero"/></clipPath><clipPath id="6a08d1c413"><path d="M 0.613281 0.09375 L 67.65625 0.09375 L 67.65625 85.144531 L 0.613281 85.144531 Z M 0.613281 0.09375 " clip-rule="nonzero"/></clipPath><clipPath id="b0464f1c88"><rect x="0" width="68" y="0" height="86"/></clipPath><clipPath id="54e59ab99f"><path d="M 403.90625 33.09375 L 440.898438 33.09375 L 440.898438 73.496094 L 403.90625 73.496094 Z M 403.90625 33.09375 " clip-rule="nonzero"/></clipPath><clipPath id="31b195a508"><path d="M 0.90625 0.09375 L 37.898438 0.09375 L 37.898438 40.496094 L 0.90625 40.496094 Z M 0.90625 0.09375 " clip-rule="nonzero"/></clipPath><clipPath id="98d4508944"><rect x="0" width="38" y="0" height="41"/></clipPath><clipPath id="3c1b7bef5c"><path d="M 429.511719 46.34375 L 451.828125 46.34375 L 451.828125 65.964844 L 429.511719 65.964844 Z M 429.511719 46.34375 " clip-rule="nonzero"/></clipPath><clipPath id="1f24bcd7ce"><path d="M 0.511719 0.34375 L 22.828125 0.34375 L 22.828125 19.964844 L 0.511719 19.964844 Z M 0.511719 0.34375 " clip-rule="nonzero"/></clipPath><clipPath id="8f06c1a6ba"><rect x="0" width="23" y="0" height="20"/></clipPath><clipPath id="6709a13092"><path d="M 643.183594 213.378906 L 794.484375 213.378906 L 794.484375 359.976562 L 643.183594 359.976562 Z M 643.183594 213.378906 " clip-rule="nonzero"/></clipPath><clipPath id="c1905f278b"><path d="M 0.183594 0.378906 L 151.484375 0.378906 L 151.484375 146.976562 L 0.183594 146.976562 Z M 0.183594 0.378906 " clip-rule="nonzero"/></clipPath><clipPath id="d3ada6f90b"><rect x="0" width="152" y="0" height="147"/></clipPath><clipPath id="4d8342c72b"><path d="M 643.433594 44.121094 L 794.484375 44.121094 L 794.484375 203.613281 L 643.433594 203.613281 Z M 643.433594 44.121094 " clip-rule="nonzero"/></clipPath><clipPath id="a585cf164d"><path d="M 0.433594 0.121094 L 151.484375 0.121094 L 151.484375 159.613281 L 0.433594 159.613281 Z M 0.433594 0.121094 " clip-rule="nonzero"/></clipPath><clipPath id="8c50c679ae"><rect x="0" width="152" y="0" height="160"/></clipPath><clipPath id="7452c74008"><path d="M 630.78125 160.019531 L 669.683594 160.019531 L 669.683594 182.488281 L 630.78125 182.488281 Z M 630.78125 160.019531 " clip-rule="nonzero"/></clipPath><clipPath id="42c23c3dee"><path d="M 0.78125 0.0195312 L 39.683594 0.0195312 L 39.683594 22.488281 L 0.78125 22.488281 Z M 0.78125 0.0195312 " clip-rule="nonzero"/></clipPath><clipPath id="388fab1009"><rect x="0" width="40" y="0" height="23"/></clipPath><clipPath id="6be993218d"><path d="M 630.773438 297.976562 L 669.675781 297.976562 L 669.675781 320.445312 L 630.773438 320.445312 Z M 630.773438 297.976562 " clip-rule="nonzero"/></clipPath><clipPath id="97e44cd8fe"><path d="M 0.773438 0.976562 L 39.675781 0.976562 L 39.675781 23.445312 L 0.773438 23.445312 Z M 0.773438 0.976562 " clip-rule="nonzero"/></clipPath><clipPath id="b2e8175dfd"><rect x="0" width="40" y="0" height="24"/></clipPath><clipPath id="805d40aee9"><path d="M 643.433594 369.765625 L 794.734375 369.765625 L 794.734375 537.671875 L 643.433594 537.671875 Z M 643.433594 369.765625 " clip-rule="nonzero"/></clipPath><clipPath id="4bddeaa1a2"><path d="M 0.433594 0.765625 L 151.734375 0.765625 L 151.734375 168.671875 L 0.433594 168.671875 Z M 0.433594 0.765625 " clip-rule="nonzero"/></clipPath><clipPath id="a341808f32"><rect x="0" width="152" y="0" height="169"/></clipPath><clipPath id="b10775dcff"><path d="M 630.773438 409.300781 L 669.675781 409.300781 L 669.675781 431.765625 L 630.773438 431.765625 Z M 630.773438 409.300781 " clip-rule="nonzero"/></clipPath><clipPath id="396ce13737"><path d="M 0.773438 0.300781 L 39.675781 0.300781 L 39.675781 22.765625 L 0.773438 22.765625 Z M 0.773438 0.300781 " clip-rule="nonzero"/></clipPath><clipPath id="d1b0bdafff"><rect x="0" width="40" y="0" height="23"/></clipPath><clipPath id="ee259eeea3"><path d="M 339.613281 461.527344 L 392.675781 461.527344 L 392.675781 556.183594 L 339.613281 556.183594 Z M 339.613281 461.527344 " clip-rule="nonzero"/></clipPath><clipPath id="a32d981733"><path d="M 0.613281 0.527344 L 53.675781 0.527344 L 53.675781 95.183594 L 0.613281 95.183594 Z M 0.613281 0.527344 " clip-rule="nonzero"/></clipPath><clipPath id="d11f97ac7e"><rect x="0" width="54" y="0" height="96"/></clipPath><clipPath id="5a5f89023b"><path d="M 350.890625 450.128906 L 369.4375 450.128906 L 369.4375 522.722656 L 350.890625 522.722656 Z M 350.890625 450.128906 " clip-rule="nonzero"/></clipPath><clipPath id="9a03feff20"><path d="M 0.890625 0.128906 L 19.4375 0.128906 L 19.4375 72.722656 L 0.890625 72.722656 Z M 0.890625 0.128906 " clip-rule="nonzero"/></clipPath><clipPath id="3d75689b7d"><rect x="0" width="20" y="0" height="73"/></clipPath><clipPath id="54f26509b9"><path d="M 580.378906 461.527344 L 630.78125 461.527344 L 630.78125 556.183594 L 580.378906 556.183594 Z M 580.378906 461.527344 " clip-rule="nonzero"/></clipPath><clipPath id="66c22d8221"><path d="M 0.378906 0.527344 L 50.78125 0.527344 L 50.78125 95.183594 L 0.378906 95.183594 Z M 0.378906 0.527344 " clip-rule="nonzero"/></clipPath><clipPath id="98180d2728"><rect x="0" width="51" y="0" height="96"/></clipPath><clipPath id="1c1560f7ef"><path d="M 601.71875 450.128906 L 619.976562 450.128906 L 619.976562 522.722656 L 601.71875 522.722656 Z M 601.71875 450.128906 " clip-rule="nonzero"/></clipPath><clipPath id="af330d5dab"><path d="M 0.71875 0.128906 L 18.976562 0.128906 L 18.976562 72.722656 L 0.71875 72.722656 Z M 0.71875 0.128906 " clip-rule="nonzero"/></clipPath><clipPath id="79266a8900"><rect x="0" width="19" y="0" height="73"/></clipPath><clipPath id="89ed8114d4"><path d="M 188.140625 44.121094 L 326.40625 44.121094 L 326.40625 540.011719 L 188.140625 540.011719 Z M 188.140625 44.121094 " clip-rule="nonzero"/></clipPath><clipPath id="8df0c12399"><path d="M 0.140625 0.121094 L 138.40625 0.121094 L 138.40625 496 L 0.140625 496 Z M 0.140625 0.121094 " clip-rule="nonzero"/></clipPath><clipPath id="fb07cd2abf"><rect x="0" width="139" y="0" height="497"/></clipPath><clipPath id="a69530d08a"><path d="M 293.625 348.371094 L 339.613281 348.371094 L 339.613281 371.210938 L 293.625 371.210938 Z M 293.625 348.371094 " clip-rule="nonzero"/></clipPath><clipPath id="2f99440430"><path d="M 0.625 0.371094 L 46.613281 0.371094 L 46.613281 23.210938 L 0.625 23.210938 Z M 0.625 0.371094 " clip-rule="nonzero"/></clipPath><clipPath id="32084cf540"><rect x="0" width="47" y="0" height="24"/></clipPath><clipPath id="ab33f364d1"><path d="M 528.214844 33.09375 L 630.773438 33.09375 L 630.773438 125.441406 L 528.214844 125.441406 Z M 528.214844 33.09375 " clip-rule="nonzero"/></clipPath><clipPath id="4691bef16f"><path d="M 0.214844 0.09375 L 102.773438 0.09375 L 102.773438 92.441406 L 0.214844 92.441406 Z M 0.214844 0.09375 " clip-rule="nonzero"/></clipPath><clipPath id="f7cc785017"><rect x="0" width="103" y="0" height="93"/></clipPath><clipPath id="33dbf568dd"><path d="M 553.34375 44.121094 L 583.214844 44.121094 L 583.214844 136.152344 L 553.34375 136.152344 Z M 553.34375 44.121094 " clip-rule="nonzero"/></clipPath><clipPath id="e9b3a5048a"><path d="M 0.34375 0.121094 L 30.214844 0.121094 L 30.214844 92.152344 L 0.34375 92.152344 Z M 0.34375 0.121094 " clip-rule="nonzero"/></clipPath><clipPath id="6eb9e636d3"><rect x="0" width="31" y="0" height="93"/></clipPath></defs><g clip-path="url(#d366b952cd)"><path fill="#ffffff" d="M 0.886719 0 L 1199.113281 0 L 1199.113281 674 L 0.886719 674 Z M 0.886719 0 " fill-opacity="1" fill-rule="nonzero"/><path fill="#ffffff" d="M 0.886719 0 L 1199.113281 0 L 1199.113281 674 L 0.886719 674 Z M 0.886719 0 " fill-opacity="1" fill-rule="nonzero"/></g><path stroke-linecap="butt" transform="matrix(0, -0.748891, 0.748891, 0, 804.332532, 550.062036)" fill="none" stroke-linejoin="miter" d="M -0.000619638 2.002294 L 692.31521 2.002294 " stroke="#000000" stroke-width="4" stroke-opacity="1" stroke-miterlimit="4"/><path stroke-linecap="butt" transform="matrix(-0.748891, 0.00000000130706, -0.00000000130706, -0.748891, 805.826383, 550.666468)" fill="none" stroke-linejoin="miter" d="M -0.00232605 2.00096 L 221.053855 2.00096 " stroke="#000000" stroke-width="4" stroke-opacity="1" stroke-miterlimit="4"/><path stroke-linecap="butt" transform="matrix(-0.748891, 0.00000000130706, -0.00000000130706, -0.748891, 643.182991, 566.822661)" fill="none" stroke-linejoin="miter" d="M -0.000805495 2.000883 L 101.487871 2.000883 " stroke="#000000" stroke-width="4" stroke-opacity="1" stroke-miterlimit="4"/><path stroke-linecap="butt" transform="matrix(0, 0.748891, -0.748891, 0, 643.280814, 550.065008)" fill="none" stroke-linejoin="miter" d="M 0.00186769 2.00238 L 22.456961 2.00238 " stroke="#000000" stroke-width="4" stroke-opacity="1" stroke-miterlimit="4"/><path stroke-linecap="butt" transform="matrix(-0.748891, 0.00000000130706, -0.00000000130706, -0.748891, 569.884344, 550.666468)" fill="none" stroke-linejoin="miter" d="M 0.00204496 2.00096 L 223.53585 2.00096 " stroke="#000000" stroke-width="4" stroke-opacity="1" stroke-miterlimit="4"/><path stroke-linecap="butt" transform="matrix(0, -0.748891, 0.748891, 0, 566.88907, 566.877012)" fill="none" stroke-linejoin="miter" d="M -0.0025291 1.999824 L 23.652256 1.999824 " stroke="#000000" stroke-width="4" stroke-opacity="1" stroke-miterlimit="4"/><path stroke-linecap="butt" transform="matrix(-0.74889, -0.000565352, 0.000565352, -0.74889, 405.401988, 566.881182)" fill="none" stroke-linejoin="miter" d="M 0.00103525 2.000786 L 103.487492 2.000903 " stroke="#000000" stroke-width="4" stroke-opacity="1" stroke-miterlimit="4"/><path stroke-linecap="butt" transform="matrix(0.00000000130706, -0.748891, 0.748891, 0.00000000130706, 402.405187, 566.877012)" fill="none" stroke-linejoin="miter" d="M -0.0025291 1.999167 L 23.652256 1.999166 " stroke="#000000" stroke-width="4" stroke-opacity="1" stroke-miterlimit="4"/><path stroke-linecap="butt" transform="matrix(0.00000000130706, -0.748891, 0.748891, 0.00000000130706, 326.402775, 566.877012)" fill="none" stroke-linejoin="miter" d="M -0.0025291 2.002387 L 23.652256 2.002387 " stroke="#000000" stroke-width="4" stroke-opacity="1" stroke-miterlimit="4"/><path stroke-linecap="butt" transform="matrix(-0.748891, -0.00000000130706, 0.00000000130706, -0.748891, 329.391375, 550.666468)" fill="none" stroke-linejoin="miter" d="M 0.00100169 2.00096 L 203.061812 2.000959 " stroke="#000000" stroke-width="4" stroke-opacity="1" stroke-miterlimit="4"/><path stroke-linecap="butt" transform="matrix(-0.00173085, -0.748889, 0.748889, -0.00173085, 177.029631, 550.064768)" fill="none" stroke-linejoin="miter" d="M -0.00159387 1.999911 L 692.321293 1.998691 " stroke="#000000" stroke-width="4" stroke-opacity="1" stroke-miterlimit="4"/><path stroke-linecap="butt" transform="matrix(-0.748891, 0, 0, -0.748891, 327.004286, 34.590194)" fill="none" stroke-linejoin="miter" d="M 0.000507185 1.998214 L 199.863879 1.998214 " stroke="#000000" stroke-width="4" stroke-opacity="1" stroke-miterlimit="4"/><path stroke-linecap="butt" transform="matrix(-0.748891, 0, 0, -0.748891, 601.713173, 453.124619)" fill="none" stroke-linejoin="miter" d="M -0.0022311 2.002454 L 46.118079 2.002454 " stroke="#000000" stroke-width="4" stroke-opacity="1" stroke-miterlimit="4"/><path stroke-linecap="butt" transform="matrix(-0.748891, 0, 0, -0.748891, 405.398825, 453.124619)" fill="none" stroke-linejoin="miter" d="M 0.000516872 2.002454 L 48.228111 2.002454 " stroke="#000000" stroke-width="4" stroke-opacity="1" stroke-miterlimit="4"/><path stroke-linecap="butt" transform="matrix(0, -0.748891, 0.748891, 0, 566.891011, 540.009817)" fill="none" stroke-linejoin="miter" d="M -0.00254006 2.002448 L 120.023977 2.002448 " stroke="#000000" stroke-width="4" stroke-opacity="1" stroke-miterlimit="4"/><path stroke-linecap="butt" transform="matrix(0, -0.748891, 0.748891, 0, 402.407147, 540.009817)" fill="none" stroke-linejoin="miter" d="M -0.00254006 2.001765 L 120.023977 2.001765 " stroke="#000000" stroke-width="4" stroke-opacity="1" stroke-miterlimit="4"/><path stroke-linecap="butt" transform="matrix(-0.748882, 0.00358257, -0.00358257, -0.748882, 640.291626, 23.891532)" fill="none" stroke-linejoin="miter" d="M -0.000923499 1.998977 L 418.331029 2.002464 " stroke="#000000" stroke-width="4" stroke-opacity="1" stroke-miterlimit="4"/><path stroke-linecap="butt" transform="matrix(0, -0.748891, 0.748891, 0, 326.404824, 34.588709)" fill="none" stroke-linejoin="miter" d="M -0.00151512 1.999651 L 16.288208 1.999651 " stroke="#000000" stroke-width="4" stroke-opacity="1" stroke-miterlimit="4"/><path stroke-linecap="butt" transform="matrix(-0.748891, 0.000000194752, -0.000000194752, -0.748891, 805.826503, 34.59019)" fill="none" stroke-linejoin="miter" d="M -0.00216656 1.998209 L 221.054015 1.998267 " stroke="#000000" stroke-width="4" stroke-opacity="1" stroke-miterlimit="4"/><path stroke-linecap="butt" transform="matrix(0.00532143, -0.748872, 0.748872, 0.00532143, 640.187021, 34.577889)" fill="none" stroke-linejoin="miter" d="M -0.00176301 1.998449 L 18.286172 1.998901 " stroke="#000000" stroke-width="4" stroke-opacity="1" stroke-miterlimit="4"/><path stroke-linecap="butt" transform="matrix(-0.748891, 0.00000000130706, -0.00000000130706, -0.748891, 569.884344, 541.509802)" fill="none" stroke-linejoin="miter" d="M 0.00204496 2.000404 L 223.53585 2.000404 " stroke="#000000" stroke-width="4" stroke-opacity="1" stroke-miterlimit="4"/><path stroke-linecap="butt" transform="matrix(-0.748891, 0, 0, -0.748891, 328.917204, 542.789075)" fill="none" stroke-linejoin="miter" d="M -0.00102111 1.997764 L 190.73948 1.997764 " stroke="#000000" stroke-width="4" stroke-opacity="1" stroke-miterlimit="4"/><path stroke-linecap="butt" transform="matrix(0, -0.748891, 0.748891, 0, 185.060838, 542.788835)" fill="none" stroke-linejoin="miter" d="M -0.000303311 1.999966 L 665.875371 1.999966 " stroke="#000000" stroke-width="4" stroke-opacity="1" stroke-miterlimit="4"/><path stroke-linecap="butt" transform="matrix(-0.748891, 0, 0, -0.748891, 329.398044, 44.121083)" fill="none" stroke-linejoin="miter" d="M -0.00052481 1.997732 L 192.737723 1.997732 " stroke="#000000" stroke-width="4" stroke-opacity="1" stroke-miterlimit="4"/><path stroke-linecap="butt" transform="matrix(0, -0.748891, 0.748891, 0, 326.40143, 542.783635)" fill="none" stroke-linejoin="miter" d="M -0.00203126 1.998967 L 229.608471 1.998967 " stroke="#000000" stroke-width="4" stroke-opacity="1" stroke-miterlimit="4"/><path stroke-linecap="butt" transform="matrix(-0.748891, 0, 0, -0.748891, 350.877746, 453.124619)" fill="none" stroke-linejoin="miter" d="M -0.00154948 2.002454 L 19.031815 2.002454 " stroke="#000000" stroke-width="4" stroke-opacity="1" stroke-miterlimit="4"/><path stroke-linecap="butt" transform="matrix(0, -0.748891, 0.748891, 0, 336.633058, 557.460715)" fill="none" stroke-linejoin="miter" d="M -0.000297551 1.99742 L 131.950109 1.99742 " stroke="#000000" stroke-width="4" stroke-opacity="1" stroke-miterlimit="4"/><path stroke-linecap="butt" transform="matrix(-0.748891, 0, 0, -0.748891, 350.877746, 461.697007)" fill="none" stroke-linejoin="miter" d="M -0.00154948 2.000009 L 19.031815 2.000009 " stroke="#000000" stroke-width="4" stroke-opacity="1" stroke-miterlimit="4"/><path stroke-linecap="butt" transform="matrix(-0.748891, -0.00000000130706, 0.00000000130706, -0.748891, 394.16546, 461.697007)" fill="none" stroke-linejoin="miter" d="M 0.00186588 2.000009 L 33.233318 2.000009 " stroke="#000000" stroke-width="4" stroke-opacity="1" stroke-miterlimit="4"/><path stroke-linecap="butt" transform="matrix(0.00000000130706, -0.748891, 0.748891, 0.00000000130706, 369.286761, 461.527745)" fill="none" stroke-linejoin="miter" d="M 0.000536201 2.00082 L 15.220969 2.00082 " stroke="#000000" stroke-width="4" stroke-opacity="1" stroke-miterlimit="4"/><path stroke-linecap="butt" transform="matrix(0.00000000130706, -0.748891, 0.748891, 0.00000000130706, 347.891983, 461.527745)" fill="none" stroke-linejoin="miter" d="M 0.000536201 2.00115 L 15.220969 2.00115 " stroke="#000000" stroke-width="4" stroke-opacity="1" stroke-miterlimit="4"/><path stroke-linecap="butt" transform="matrix(0.00000000130706, -0.748891, 0.748891, 0.00000000130706, 336.633848, 348.367004)" fill="none" stroke-linejoin="miter" d="M -0.000244983 2.00158 L 294.273624 2.001579 " stroke="#000000" stroke-width="4" stroke-opacity="1" stroke-miterlimit="4"/><path stroke-linecap="butt" transform="matrix(-0.748891, 0, 0, -0.748891, 409.349827, 130.986411)" fill="none" stroke-linejoin="miter" d="M -0.00231731 2.000466 L 95.096699 2.000466 " stroke="#000000" stroke-width="4" stroke-opacity="1" stroke-miterlimit="4"/><path stroke-linecap="butt" transform="matrix(-0.748891, 0.00000000130706, -0.00000000130706, -0.748891, 462.695994, 139.147942)" fill="none" stroke-linejoin="miter" d="M 0.000909562 2.002302 L 74.840789 2.002302 " stroke="#000000" stroke-width="4" stroke-opacity="1" stroke-miterlimit="4"/><path stroke-linecap="butt" transform="matrix(0, -0.748891, 0.748891, 0, 406.653941, 138.994172)" fill="none" stroke-linejoin="miter" d="M -0.0025665 2.00083 L 14.696261 2.00083 " stroke="#000000" stroke-width="4" stroke-opacity="1" stroke-miterlimit="4"/><path stroke-linecap="butt" transform="matrix(-0.748891, 0, 0, -0.748891, 443.529549, 33.091871)" fill="none" stroke-linejoin="miter" d="M -0.00227117 2.000454 L 142.740142 2.000454 " stroke="#000000" stroke-width="4" stroke-opacity="1" stroke-miterlimit="4"/><path stroke-linecap="butt" transform="matrix(0, -0.748891, 0.748891, 0, 336.635838, 120.997439)" fill="none" stroke-linejoin="miter" d="M 0.00179638 1.998924 L 121.222789 1.998924 " stroke="#000000" stroke-width="4" stroke-opacity="1" stroke-miterlimit="4"/><path stroke-linecap="butt" transform="matrix(-0.748891, 0, 0, -0.748891, 797.377964, 44.121083)" fill="none" stroke-linejoin="miter" d="M -0.00125879 1.997732 L 209.772607 1.997732 " stroke="#000000" stroke-width="4" stroke-opacity="1" stroke-miterlimit="4"/><path stroke-linecap="butt" transform="matrix(-0.748891, 0, 0, -0.748891, 633.658685, 136.15238)" fill="none" stroke-linejoin="miter" d="M -0.0019646 1.997796 L 67.363316 1.997796 " stroke="#000000" stroke-width="4" stroke-opacity="1" stroke-miterlimit="4"/><path stroke-linecap="butt" transform="matrix(0.00366653, -0.748882, 0.748882, 0.00366653, 524.735665, 127.978371)" fill="none" stroke-linejoin="miter" d="M 0.00178093 2.001256 L 130.561051 1.998403 " stroke="#000000" stroke-width="4" stroke-opacity="1" stroke-miterlimit="4"/><path stroke-linecap="butt" transform="matrix(-0.748891, 0, 0, -0.748891, 553.337962, 136.15238)" fill="none" stroke-linejoin="miter" d="M -0.00251305 1.997796 L 47.557427 1.997796 " stroke="#000000" stroke-width="4" stroke-opacity="1" stroke-miterlimit="4"/><path stroke-linecap="butt" transform="matrix(0, -0.748891, 0.748891, 0, 392.672915, 557.460715)" fill="none" stroke-linejoin="miter" d="M -0.000297551 2.001574 L 131.950109 2.001574 " stroke="#000000" stroke-width="4" stroke-opacity="1" stroke-miterlimit="4"/><path stroke-linecap="butt" transform="matrix(-0.748891, 0, 0, -0.748891, 395.58885, 558.962761)" fill="none" stroke-linejoin="miter" d="M -0.00132662 2.000182 L 78.729726 2.000182 " stroke="#000000" stroke-width="4" stroke-opacity="1" stroke-miterlimit="4"/><path stroke-linecap="butt" transform="matrix(0.00000000130706, -0.748891, 0.748891, 0.00000000130706, 336.63382, 452.655394)" fill="none" stroke-linejoin="miter" d="M -0.00114319 2.001618 L 108.758707 2.001618 " stroke="#000000" stroke-width="4" stroke-opacity="1" stroke-miterlimit="4"/><path stroke-linecap="butt" transform="matrix(0, -0.748891, 0.748891, 0, 326.405497, 348.369022)" fill="none" stroke-linejoin="miter" d="M 0.00244941 1.998752 L 410.067404 1.998752 " stroke="#000000" stroke-width="4" stroke-opacity="1" stroke-miterlimit="4"/><path stroke-linecap="butt" transform="matrix(-0.748891, 0, 0, -0.748891, 339.608494, 348.370426)" fill="none" stroke-linejoin="miter" d="M -0.00117602 2.002072 L 16.831016 2.002072 " stroke="#000000" stroke-width="4" stroke-opacity="1" stroke-miterlimit="4"/><path stroke-linecap="butt" transform="matrix(-0.748891, 0, 0, -0.748891, 339.608494, 373.833142)" fill="none" stroke-linejoin="miter" d="M -0.00117602 1.99923 L 16.831016 1.99923 " stroke="#000000" stroke-width="4" stroke-opacity="1" stroke-miterlimit="4"/><path stroke-linecap="butt" transform="matrix(0, -0.748891, 0.748891, 0, 794.480057, 540.006581)" fill="none" stroke-linejoin="miter" d="M -0.00164401 1.998297 L 231.324939 1.998297 " stroke="#000000" stroke-width="4" stroke-opacity="1" stroke-miterlimit="4"/><path stroke-linecap="butt" transform="matrix(-0.748891, 0, 0, -0.748891, 797.377964, 540.862833)" fill="none" stroke-linejoin="miter" d="M -0.00125879 2.002364 L 209.783039 2.002364 " stroke="#000000" stroke-width="4" stroke-opacity="1" stroke-miterlimit="4"/><path stroke-linecap="butt" transform="matrix(-0.748891, 0, 0, -0.748891, 633.654539, 453.124619)" fill="none" stroke-linejoin="miter" d="M -0.00228455 2.002454 L 18.259105 2.002454 " stroke="#000000" stroke-width="4" stroke-opacity="1" stroke-miterlimit="4"/><path stroke-linecap="butt" transform="matrix(0, -0.748891, 0.748891, 0, 577.375478, 557.462824)" fill="none" stroke-linejoin="miter" d="M 0.00251845 2.002325 L 131.097493 2.002325 " stroke="#000000" stroke-width="4" stroke-opacity="1" stroke-miterlimit="4"/><path stroke-linecap="butt" transform="matrix(-0.748891, 0, 0, -0.748891, 633.662016, 558.962761)" fill="none" stroke-linejoin="miter" d="M 0.0024834 2.000182 L 75.170974 2.000182 " stroke="#000000" stroke-width="4" stroke-opacity="1" stroke-miterlimit="4"/><path stroke-linecap="butt" transform="matrix(0.00000000130706, 0.748891, -0.748891, 0.00000000130706, 633.714786, 459.290276)" fill="none" stroke-linejoin="miter" d="M -0.00162061 1.99767 L 129.387705 1.99767 " stroke="#000000" stroke-width="4" stroke-opacity="1" stroke-miterlimit="4"/><path stroke-linecap="butt" transform="matrix(-0.748891, -0.00000000130706, 0.00000000130706, -0.748891, 601.716624, 461.529255)" fill="none" stroke-linejoin="miter" d="M 0.0023769 2.000299 L 32.503582 2.000299 " stroke="#000000" stroke-width="4" stroke-opacity="1" stroke-miterlimit="4"/><path stroke-linecap="butt" transform="matrix(0.00000000130706, 0.748891, -0.748891, 0.00000000130706, 601.67193, 450.130566)" fill="none" stroke-linejoin="miter" d="M -0.00221689 1.99782 L 15.223432 1.99782 " stroke="#000000" stroke-width="4" stroke-opacity="1" stroke-miterlimit="4"/><path stroke-linecap="butt" transform="matrix(0, 0.748891, -0.748891, 0, 643.181481, 431.770647)" fill="none" stroke-linejoin="miter" d="M -0.00148993 2.000142 L 144.54046 2.000142 " stroke="#000000" stroke-width="4" stroke-opacity="1" stroke-miterlimit="4"/><path stroke-linecap="butt" transform="matrix(-0.748876, -0.00459358, 0.00459358, -0.748876, 633.645049, 461.613083)" fill="none" stroke-linejoin="miter" d="M 0.00251193 1.997504 L 18.259047 2.000275 " stroke="#000000" stroke-width="4" stroke-opacity="1" stroke-miterlimit="4"/><path stroke-linecap="butt" transform="matrix(0.00000000130706, 0.748891, -0.748891, 0.00000000130706, 622.981328, 450.130566)" fill="none" stroke-linejoin="miter" d="M -0.00221689 1.998894 L 15.223432 1.998894 " stroke="#000000" stroke-width="4" stroke-opacity="1" stroke-miterlimit="4"/><path stroke-linecap="butt" transform="matrix(-0.00202693, 0.748888, -0.748888, -0.00202693, 633.717062, 431.773595)" fill="none" stroke-linejoin="miter" d="M -0.0000108423 2.000717 L 27.895517 1.99824 " stroke="#000000" stroke-width="4" stroke-opacity="1" stroke-miterlimit="4"/><path stroke-linecap="butt" transform="matrix(-0.748891, 0, 0, -0.748891, 795.973788, 369.712195)" fill="none" stroke-linejoin="miter" d="M 0.00151106 1.999426 L 207.902815 1.999426 " stroke="#000000" stroke-width="4" stroke-opacity="1" stroke-miterlimit="4"/><path stroke-linecap="butt" transform="matrix(-0.748891, 0, 0, -0.748891, 795.973788, 363.026417)" fill="none" stroke-linejoin="miter" d="M 0.00151106 2.001726 L 207.902815 2.001726 " stroke="#000000" stroke-width="4" stroke-opacity="1" stroke-miterlimit="4"/><path stroke-linecap="butt" transform="matrix(0, 0.748891, -0.748891, 0, 643.280981, 368.215469)" fill="none" stroke-linejoin="miter" d="M -0.000834274 2.002604 L 54.861575 2.002604 " stroke="#000000" stroke-width="4" stroke-opacity="1" stroke-miterlimit="4"/><path stroke-linecap="butt" transform="matrix(0, 0.748891, -0.748891, 0, 633.714978, 320.447077)" fill="none" stroke-linejoin="miter" d="M -0.00235584 1.997926 L 118.65234 1.997926 " stroke="#000000" stroke-width="4" stroke-opacity="1" stroke-miterlimit="4"/><path stroke-linecap="butt" transform="matrix(-0.748891, 0, 0, -0.748891, 641.772968, 434.762902)" fill="none" stroke-linejoin="miter" d="M -0.000627591 1.999327 L 14.703416 1.999327 " stroke="#000000" stroke-width="4" stroke-opacity="1" stroke-miterlimit="4"/><path stroke-linecap="butt" transform="matrix(-0.748891, 0, 0, -0.748891, 643.174627, 409.300217)" fill="none" stroke-linejoin="miter" d="M -0.00154139 2.00221 L 16.559416 2.00221 " stroke="#000000" stroke-width="4" stroke-opacity="1" stroke-miterlimit="4"/><path stroke-linecap="butt" transform="matrix(-0.0000000941084, 0.748891, -0.748891, -0.0000000941084, 643.280981, 320.443889)" fill="none" stroke-linejoin="miter" d="M 0.00190041 2.002604 L 54.86431 2.002597 " stroke="#000000" stroke-width="4" stroke-opacity="1" stroke-miterlimit="4"/><path stroke-linecap="butt" transform="matrix(-0.748891, 0, 0, -0.748891, 797.377964, 213.584629)" fill="none" stroke-linejoin="miter" d="M -0.00125879 2.001216 L 209.772607 2.001216 " stroke="#000000" stroke-width="4" stroke-opacity="1" stroke-miterlimit="4"/><path stroke-linecap="butt" transform="matrix(-0.748891, -0.00000000130706, 0.00000000130706, -0.748891, 794.476007, 206.759752)" fill="none" stroke-linejoin="miter" d="M -0.000741949 2.000336 L 205.902815 2.000336 " stroke="#000000" stroke-width="4" stroke-opacity="1" stroke-miterlimit="4"/><path stroke-linecap="butt" transform="matrix(0.000451655, -0.74889, 0.74889, 0.000451655, 794.391987, 363.023989)" fill="none" stroke-linejoin="miter" d="M 0.00194386 2.001143 L 203.553094 1.998351 " stroke="#000000" stroke-width="4" stroke-opacity="1" stroke-miterlimit="4"/><path stroke-linecap="butt" transform="matrix(0.000232346, -0.74889, 0.74889, 0.000232346, 794.341087, 206.757717)" fill="none" stroke-linejoin="miter" d="M 0.000493465 2.001303 L 220.973232 2.000554 " stroke="#000000" stroke-width="4" stroke-opacity="1" stroke-miterlimit="4"/><path stroke-linecap="butt" transform="matrix(0, -0.748891, 0.748891, 0, 640.18393, 160.015265)" fill="none" stroke-linejoin="miter" d="M -0.000481317 2.002514 L 158.56221 2.002514 " stroke="#000000" stroke-width="4" stroke-opacity="1" stroke-miterlimit="4"/><path stroke-linecap="butt" transform="matrix(0.00000000130706, -0.748891, 0.748891, 0.00000000130706, 630.841275, 127.990586)" fill="none" stroke-linejoin="miter" d="M -0.00213882 2.001052 L 130.71728 2.001052 " stroke="#000000" stroke-width="4" stroke-opacity="1" stroke-miterlimit="4"/><path stroke-linecap="butt" transform="matrix(0, -0.748891, 0.748891, 0, 516.23124, 136.150844)" fill="none" stroke-linejoin="miter" d="M -0.0020024 2.001933 L 141.457262 2.001933 " stroke="#000000" stroke-width="4" stroke-opacity="1" stroke-miterlimit="4"/><path stroke-linecap="butt" transform="matrix(-0.748891, 0, 0, -0.748891, 632.335246, 33.091871)" fill="none" stroke-linejoin="miter" d="M -0.000923795 2.000454 L 141.677415 2.000454 " stroke="#000000" stroke-width="4" stroke-opacity="1" stroke-miterlimit="4"/><path stroke-linecap="butt" transform="matrix(-0.748891, -0.00000000130706, 0.00000000130706, -0.748891, 553.339016, 127.990849)" fill="none" stroke-linejoin="miter" d="M -0.00110504 2.001176 L 36.193063 2.001176 " stroke="#000000" stroke-width="4" stroke-opacity="1" stroke-miterlimit="4"/><path stroke-linecap="butt" transform="matrix(-0.748891, 0, 0, -0.748891, 633.658685, 127.990849)" fill="none" stroke-linejoin="miter" d="M -0.0019646 2.001176 L 67.363316 2.001176 " stroke="#000000" stroke-width="4" stroke-opacity="1" stroke-miterlimit="4"/><path stroke-linecap="butt" transform="matrix(0, -0.748891, 0.748891, 0, 550.345204, 136.148388)" fill="none" stroke-linejoin="miter" d="M -0.0000663549 2.001022 L 14.698761 2.001022 " stroke="#000000" stroke-width="4" stroke-opacity="1" stroke-miterlimit="4"/><path stroke-linecap="butt" transform="matrix(0, -0.748891, 0.748891, 0, 583.209898, 136.148388)" fill="none" stroke-linejoin="miter" d="M -0.0000663549 1.999135 L 14.698761 1.999135 " stroke="#000000" stroke-width="4" stroke-opacity="1" stroke-miterlimit="4"/><path stroke-linecap="butt" transform="matrix(0, -0.748891, 0.748891, 0, 640.285084, 297.974248)" fill="none" stroke-linejoin="miter" d="M 0.0021259 1.997844 L 116.017501 1.997844 " stroke="#000000" stroke-width="4" stroke-opacity="1" stroke-miterlimit="4"/><path stroke-linecap="butt" transform="matrix(-0.748891, 0, 0, -0.748891, 643.174627, 323.438368)" fill="none" stroke-linejoin="miter" d="M -0.00154139 1.998906 L 16.559416 1.998906 " stroke="#000000" stroke-width="4" stroke-opacity="1" stroke-miterlimit="4"/><path stroke-linecap="butt" transform="matrix(-0.748891, 0, 0, -0.748891, 643.174627, 297.975653)" fill="none" stroke-linejoin="miter" d="M -0.00154139 2.001748 L 16.559416 2.001748 " stroke="#000000" stroke-width="4" stroke-opacity="1" stroke-miterlimit="4"/><path stroke-linecap="butt" transform="matrix(0.00138475, -0.748889, 0.748889, 0.00138475, 630.45015, 297.969479)" fill="none" stroke-linejoin="miter" d="M -0.000540769 2.001723 L 154.21223 1.99824 " stroke="#000000" stroke-width="4" stroke-opacity="1" stroke-miterlimit="4"/><path stroke-linecap="butt" transform="matrix(0, -0.748891, 0.748891, 0, 640.186086, 206.841485)" fill="none" stroke-linejoin="miter" d="M 0.00219151 1.999634 L 32.524261 1.999634 " stroke="#000000" stroke-width="4" stroke-opacity="1" stroke-miterlimit="4"/><path stroke-linecap="butt" transform="matrix(0, -0.748891, 0.748891, 0, 630.661781, 160.015219)" fill="none" stroke-linejoin="miter" d="M -0.000542117 2.000794 L 35.499891 2.000794 " stroke="#000000" stroke-width="4" stroke-opacity="1" stroke-miterlimit="4"/><path stroke-linecap="butt" transform="matrix(-0.748891, -0.00000000130706, 0.00000000130706, -0.748891, 643.177143, 160.020573)" fill="none" stroke-linejoin="miter" d="M 0.00181861 1.999138 L 16.573208 1.999138 " stroke="#000000" stroke-width="4" stroke-opacity="1" stroke-miterlimit="4"/><path stroke-linecap="butt" transform="matrix(-0.748891, -0.00000000130706, 0.00000000130706, -0.748891, 643.177143, 185.483288)" fill="none" stroke-linejoin="miter" d="M 0.00181861 2.001512 L 16.573208 2.001512 " stroke="#000000" stroke-width="4" stroke-opacity="1" stroke-miterlimit="4"/><path stroke-linecap="butt" transform="matrix(0.00000000130706, -0.748891, 0.748891, 0.00000000130706, 461.20569, 138.990529)" fill="none" stroke-linejoin="miter" d="M -0.00221445 1.999539 L 87.455289 1.999538 " stroke="#000000" stroke-width="4" stroke-opacity="1" stroke-miterlimit="4"/><path stroke-linecap="butt" transform="matrix(0, -0.748891, 0.748891, 0, 376.713445, 450.127187)" fill="none" stroke-linejoin="miter" d="M -0.00229512 1.999615 L 324.973242 1.999615 " stroke="#000000" stroke-width="4" stroke-opacity="1" stroke-miterlimit="4"/><path stroke-linecap="butt" transform="matrix(0, -0.748891, 0.748891, 0, 592.355325, 450.128889)" fill="none" stroke-linejoin="miter" d="M -0.0000231151 1.997939 L 324.860761 1.997939 " stroke="#000000" stroke-width="4" stroke-opacity="1" stroke-miterlimit="4"/><path stroke-linecap="butt" transform="matrix(0.748891, 0, 0, 0.748891, 378.213098, 282.101894)" fill="none" stroke-linejoin="miter" d="M 0.00233167 2.00252 L 287.943917 2.00252 " stroke="#000000" stroke-width="4" stroke-opacity="1" stroke-miterlimit="4"/><path stroke-linecap="butt" transform="matrix(0.00487635, -0.748875, 0.748875, 0.00487635, 406.3552, 119.488155)" fill="none" stroke-linejoin="miter" d="M 0.00241018 1.998133 L 61.427924 1.999801 " stroke="#000000" stroke-width="4" stroke-opacity="1" stroke-miterlimit="4"/><path stroke-linecap="butt" transform="matrix(-0.748891, 0, 0, -0.748891, 409.346592, 120.998896)" fill="none" stroke-linejoin="miter" d="M -0.00142126 2.001489 L 95.337533 2.001489 " stroke="#000000" stroke-width="4" stroke-opacity="1" stroke-miterlimit="4"/><path stroke-linecap="butt" transform="matrix(-0.748891, -0.00000000130706, 0.00000000130706, -0.748891, 443.522024, 76.492969)" fill="none" stroke-linejoin="miter" d="M -0.00188707 1.99879 L 47.636294 1.99879 " stroke="#000000" stroke-width="4" stroke-opacity="1" stroke-miterlimit="4"/><path stroke-linecap="butt" transform="matrix(0, -0.748891, 0.748891, 0, 448.986792, 46.340396)" fill="none" stroke-linejoin="miter" d="M 0.000737645 1.999735 L 21.694288 1.999735 " stroke="#000000" stroke-width="4" stroke-opacity="1" stroke-miterlimit="4"/><path stroke-linecap="butt" transform="matrix(0, -0.748891, 0.748891, 0, 448.984707, 74.990632)" fill="none" stroke-linejoin="miter" d="M -0.00207726 2.002519 L 12.057429 2.002519 " stroke="#000000" stroke-width="4" stroke-opacity="1" stroke-miterlimit="4"/><path stroke-linecap="butt" transform="matrix(0, -0.748891, 0.748891, 0, 440.750554, 46.341947)" fill="none" stroke-linejoin="miter" d="M -0.002408 2.002223 L 21.534661 2.002223 " stroke="#000000" stroke-width="4" stroke-opacity="1" stroke-miterlimit="4"/><path stroke-linecap="butt" transform="matrix(0, -0.748891, 0.748891, 0, 440.746912, 76.488413)" fill="none" stroke-linejoin="miter" d="M 0.000175751 2.001871 L 14.057429 2.001871 " stroke="#000000" stroke-width="4" stroke-opacity="1" stroke-miterlimit="4"/><path stroke-linecap="butt" transform="matrix(-0.748891, 0, 0, -0.748891, 451.821049, 46.342922)" fill="none" stroke-linejoin="miter" d="M 0.000983609 2.001857 L 12.790737 2.001857 " stroke="#000000" stroke-width="4" stroke-opacity="1" stroke-miterlimit="4"/><path stroke-linecap="butt" transform="matrix(-0.748866, 0.0060226, -0.0060226, -0.748866, 451.829365, 68.810054)" fill="none" stroke-linejoin="miter" d="M 0.00122147 1.999772 L 14.590963 2.00235 " stroke="#000000" stroke-width="4" stroke-opacity="1" stroke-miterlimit="4"/><path stroke-linecap="butt" transform="matrix(-0.748891, -0.00000000130706, 0.00000000130706, -0.748891, 463.955424, 76.492969)" fill="none" stroke-linejoin="miter" d="M -0.00214645 1.99879 L 19.996188 1.99879 " stroke="#000000" stroke-width="4" stroke-opacity="1" stroke-miterlimit="4"/><path stroke-linecap="butt" transform="matrix(-0.748891, 0, 0, -0.748891, 519.11587, 33.091871)" fill="none" stroke-linejoin="miter" d="M -0.00175863 2.000454 L 93.64198 2.000454 " stroke="#000000" stroke-width="4" stroke-opacity="1" stroke-miterlimit="4"/><g clip-path="url(#31899be17e)"><path fill="#000000" d="M 489.703125 157.144531 L 457.53125 157.144531 L 457.53125 250.757812 L 489.703125 250.757812 Z M 488.464844 239.261719 L 476.542969 239.261719 L 477.226562 237.3125 L 474.132812 237.3125 L 474.132812 230.226562 L 488.464844 230.226562 Z M 488.464844 228.996094 L 474.132812 228.996094 L 474.132812 219.964844 L 488.464844 219.964844 Z M 488.464844 218.730469 L 474.132812 218.730469 L 474.132812 209.699219 L 488.464844 209.699219 Z M 488.464844 208.46875 L 474.132812 208.46875 L 474.132812 199.433594 L 488.464844 199.433594 Z M 488.464844 198.203125 L 474.132812 198.203125 L 474.132812 189.171875 L 488.464844 189.171875 Z M 488.464844 187.9375 L 474.132812 187.9375 L 474.132812 178.90625 L 488.464844 178.90625 Z M 488.464844 177.675781 L 474.132812 177.675781 L 474.132812 168.640625 L 488.464844 168.640625 Z M 488.464844 158.378906 L 488.464844 167.410156 L 474.132812 167.410156 L 474.132812 158.378906 Z M 458.769531 158.378906 L 473.101562 158.378906 L 473.101562 167.410156 L 458.769531 167.410156 Z M 458.769531 168.640625 L 473.101562 168.640625 L 473.101562 177.675781 L 458.769531 177.675781 Z M 458.769531 178.90625 L 473.101562 178.90625 L 473.101562 187.9375 L 458.769531 187.9375 Z M 458.769531 189.171875 L 473.101562 189.171875 L 473.101562 198.203125 L 458.769531 198.203125 Z M 458.769531 199.433594 L 473.101562 199.433594 L 473.101562 208.46875 L 458.769531 208.46875 Z M 458.769531 209.699219 L 473.101562 209.699219 L 473.101562 218.730469 L 458.769531 218.730469 Z M 458.769531 219.964844 L 473.101562 219.964844 L 473.101562 228.996094 L 458.769531 228.996094 Z M 458.769531 230.226562 L 473.101562 230.226562 L 473.101562 237.3125 L 470.007812 237.3125 L 470.695312 239.261719 L 458.769531 239.261719 Z M 458.769531 249.523438 L 458.769531 240.492188 L 471.128906 240.492188 L 473.617188 247.574219 L 476.109375 240.492188 L 488.464844 240.492188 L 488.464844 249.523438 Z M 458.769531 249.523438 " fill-opacity="1" fill-rule="nonzero"/></g><g clip-path="url(#543a191227)"><path fill="#000000" d="M 521.699219 157.144531 L 489.527344 157.144531 L 489.527344 250.757812 L 521.699219 250.757812 Z M 520.460938 239.261719 L 508.535156 239.261719 L 509.21875 237.3125 L 506.128906 237.3125 L 506.128906 230.226562 L 520.460938 230.226562 Z M 520.460938 228.996094 L 506.128906 228.996094 L 506.128906 219.964844 L 520.460938 219.964844 Z M 520.460938 218.730469 L 506.128906 218.730469 L 506.128906 209.699219 L 520.460938 209.699219 Z M 520.460938 208.46875 L 506.128906 208.46875 L 506.128906 199.433594 L 520.460938 199.433594 Z M 520.460938 198.203125 L 506.128906 198.203125 L 506.128906 189.171875 L 520.460938 189.171875 Z M 520.460938 187.9375 L 506.128906 187.9375 L 506.128906 178.90625 L 520.460938 178.90625 Z M 520.460938 177.675781 L 506.128906 177.675781 L 506.128906 168.640625 L 520.460938 168.640625 Z M 520.460938 158.378906 L 520.460938 167.410156 L 506.128906 167.410156 L 506.128906 158.378906 Z M 490.761719 158.378906 L 505.097656 158.378906 L 505.097656 167.410156 L 490.761719 167.410156 Z M 490.761719 168.640625 L 505.097656 168.640625 L 505.097656 177.675781 L 490.761719 177.675781 Z M 490.761719 178.90625 L 505.097656 178.90625 L 505.097656 187.9375 L 490.761719 187.9375 Z M 490.761719 189.171875 L 505.097656 189.171875 L 505.097656 198.203125 L 490.761719 198.203125 Z M 490.761719 199.433594 L 505.097656 199.433594 L 505.097656 208.46875 L 490.761719 208.46875 Z M 490.761719 209.699219 L 505.097656 209.699219 L 505.097656 218.730469 L 490.761719 218.730469 Z M 490.761719 219.964844 L 505.097656 219.964844 L 505.097656 228.996094 L 490.761719 228.996094 Z M 490.761719 230.226562 L 505.097656 230.226562 L 505.097656 237.3125 L 502.003906 237.3125 L 502.6875 239.261719 L 490.761719 239.261719 Z M 490.761719 249.523438 L 490.761719 240.492188 L 503.121094 240.492188 L 505.613281 247.574219 L 508.101562 240.492188 L 520.460938 240.492188 L 520.460938 249.523438 Z M 490.761719 249.523438 " fill-opacity="1" fill-rule="nonzero"/></g><g clip-path="url(#9430db0495)"><path fill="#000000" d="M 411.519531 301.84375 L 443.691406 301.84375 L 443.691406 208.230469 L 411.519531 208.230469 Z M 412.757812 219.726562 L 424.683594 219.726562 L 423.996094 221.679688 L 427.089844 221.679688 L 427.089844 228.761719 L 412.757812 228.761719 Z M 412.757812 229.992188 L 427.089844 229.992188 L 427.089844 239.023438 L 412.757812 239.023438 Z M 412.757812 240.257812 L 427.089844 240.257812 L 427.089844 249.289062 L 412.757812 249.289062 Z M 412.757812 250.519531 L 427.089844 250.519531 L 427.089844 259.554688 L 412.757812 259.554688 Z M 412.757812 260.785156 L 427.089844 260.785156 L 427.089844 269.820312 L 412.757812 269.820312 Z M 412.757812 271.050781 L 427.089844 271.050781 L 427.089844 280.082031 L 412.757812 280.082031 Z M 412.757812 281.316406 L 427.089844 281.316406 L 427.089844 290.347656 L 412.757812 290.347656 Z M 412.757812 300.613281 L 412.757812 291.578125 L 427.089844 291.578125 L 427.089844 300.613281 Z M 442.453125 300.613281 L 428.121094 300.613281 L 428.121094 291.578125 L 442.453125 291.578125 Z M 442.453125 290.347656 L 428.121094 290.347656 L 428.121094 281.316406 L 442.453125 281.316406 Z M 442.453125 280.082031 L 428.121094 280.082031 L 428.121094 271.050781 L 442.453125 271.050781 Z M 442.453125 269.820312 L 428.121094 269.820312 L 428.121094 260.785156 L 442.453125 260.785156 Z M 442.453125 259.554688 L 428.121094 259.554688 L 428.121094 250.519531 L 442.453125 250.519531 Z M 442.453125 249.289062 L 428.121094 249.289062 L 428.121094 240.257812 L 442.453125 240.257812 Z M 442.453125 239.023438 L 428.121094 239.023438 L 428.121094 229.992188 L 442.453125 229.992188 Z M 442.453125 228.761719 L 428.121094 228.761719 L 428.121094 221.679688 L 431.214844 221.679688 L 430.53125 219.726562 L 442.453125 219.726562 Z M 442.453125 209.464844 L 442.453125 218.496094 L 430.097656 218.496094 L 427.605469 211.414062 L 425.117188 218.496094 L 412.757812 218.496094 L 412.757812 209.464844 Z M 442.453125 209.464844 " fill-opacity="1" fill-rule="nonzero"/></g><g clip-path="url(#2250a85da2)"><path fill="#000000" d="M 535.171875 301.84375 L 567.34375 301.84375 L 567.34375 208.230469 L 535.171875 208.230469 Z M 536.40625 219.726562 L 548.332031 219.726562 L 547.648438 221.679688 L 550.742188 221.679688 L 550.742188 228.761719 L 536.40625 228.761719 Z M 536.40625 229.992188 L 550.742188 229.992188 L 550.742188 239.023438 L 536.40625 239.023438 Z M 536.40625 240.257812 L 550.742188 240.257812 L 550.742188 249.289062 L 536.40625 249.289062 Z M 536.40625 250.519531 L 550.742188 250.519531 L 550.742188 259.554688 L 536.40625 259.554688 Z M 536.40625 260.785156 L 550.742188 260.785156 L 550.742188 269.820312 L 536.40625 269.820312 Z M 536.40625 271.050781 L 550.742188 271.050781 L 550.742188 280.082031 L 536.40625 280.082031 Z M 536.40625 281.316406 L 550.742188 281.316406 L 550.742188 290.347656 L 536.40625 290.347656 Z M 536.40625 300.613281 L 536.40625 291.578125 L 550.742188 291.578125 L 550.742188 300.613281 Z M 566.105469 300.613281 L 551.773438 300.613281 L 551.773438 291.578125 L 566.105469 291.578125 Z M 566.105469 290.347656 L 551.773438 290.347656 L 551.773438 281.316406 L 566.105469 281.316406 Z M 566.105469 280.082031 L 551.773438 280.082031 L 551.773438 271.050781 L 566.105469 271.050781 Z M 566.105469 269.820312 L 551.773438 269.820312 L 551.773438 260.785156 L 566.105469 260.785156 Z M 566.105469 259.554688 L 551.773438 259.554688 L 551.773438 250.519531 L 566.105469 250.519531 Z M 566.105469 249.289062 L 551.773438 249.289062 L 551.773438 240.257812 L 566.105469 240.257812 Z M 566.105469 239.023438 L 551.773438 239.023438 L 551.773438 229.992188 L 566.105469 229.992188 Z M 566.105469 228.761719 L 551.773438 228.761719 L 551.773438 221.679688 L 554.867188 221.679688 L 554.179688 219.726562 L 566.105469 219.726562 Z M 566.105469 209.464844 L 566.105469 218.496094 L 553.746094 218.496094 L 551.257812 211.414062 L 548.765625 218.496094 L 536.40625 218.496094 L 536.40625 209.464844 Z M 566.105469 209.464844 " fill-opacity="1" fill-rule="nonzero"/></g><path stroke-linecap="butt" transform="matrix(-0.748891, 0, 0, -0.748891, 567.178848, 251.022938)" fill="none" stroke-linejoin="miter" d="M -0.00112072 0.500074 L 207.832375 0.500074 " stroke="#000000" stroke-width="1" stroke-opacity="1" stroke-miterlimit="4"/><path stroke-linecap="butt" transform="matrix(-0.748891, 0, 0, -0.748891, 567.178848, 283.97412)" fill="none" stroke-linejoin="miter" d="M -0.00112072 0.49748 L 207.832375 0.49748 " stroke="#000000" stroke-width="1" stroke-opacity="1" stroke-miterlimit="4"/><path stroke-linecap="butt" transform="matrix(-0.00626102, 0.748864, -0.748864, -0.00626102, 412.283872, 238.81974)" fill="none" stroke-linejoin="miter" d="M -0.000279002 0.499046 L 59.803826 0.499801 " stroke="#000000" stroke-width="1" stroke-opacity="1" stroke-miterlimit="4"/><path stroke-linecap="butt" transform="matrix(0, 0.748891, -0.748891, 0, 567.555402, 243.158215)" fill="none" stroke-linejoin="miter" d="M 0.00259272 0.501695 L 54.004354 0.501695 " stroke="#000000" stroke-width="1" stroke-opacity="1" stroke-miterlimit="4"/><g clip-path="url(#2aa284edb8)"><g transform="matrix(1, 0, 0, 1, 339, 33)"><g clip-path="url(#b0464f1c88)"><g clip-path="url(#6a08d1c413)"><path fill="#99ffce" d="M 0.613281 0.09375 L 67.65625 0.09375 L 67.65625 85.210938 L 0.613281 85.210938 Z M 0.613281 0.09375 " fill-opacity="1" fill-rule="nonzero"/></g></g></g></g><g clip-path="url(#54e59ab99f)"><g transform="matrix(1, 0, 0, 1, 403, 33)"><g clip-path="url(#98d4508944)"><g clip-path="url(#31b195a508)"><path fill="#99ffce" d="M 0.90625 0.09375 L 37.898438 0.09375 L 37.898438 40.554688 L 0.90625 40.554688 Z M 0.90625 0.09375 " fill-opacity="1" fill-rule="nonzero"/></g></g></g></g><g clip-path="url(#3c1b7bef5c)"><g transform="matrix(1, 0, 0, 1, 429, 46)"><g clip-path="url(#8f06c1a6ba)"><g clip-path="url(#1f24bcd7ce)"><path fill="#99ffce" d="M 0.511719 0.34375 L 22.816406 0.34375 L 22.816406 19.964844 L 0.511719 19.964844 Z M 0.511719 0.34375 " fill-opacity="1" fill-rule="nonzero"/></g></g></g></g><g clip-path="url(#6709a13092)"><g transform="matrix(1, 0, 0, 1, 643, 213)"><g clip-path="url(#d3ada6f90b)"><g clip-path="url(#c1905f278b)"><path fill="#fff3c2" d="M 0.183594 0.378906 L 151.367188 0.378906 L 151.367188 146.976562 L 0.183594 146.976562 Z M 0.183594 0.378906 " fill-opacity="1" fill-rule="nonzero"/></g></g></g></g><g clip-path="url(#4d8342c72b)"><g transform="matrix(1, 0, 0, 1, 643, 44)"><g clip-path="url(#8c50c679ae)"><g clip-path="url(#a585cf164d)"><path fill="#fff3c2" d="M 0.433594 0.121094 L 151.484375 0.121094 L 151.484375 159.433594 L 0.433594 159.433594 Z M 0.433594 0.121094 " fill-opacity="1" fill-rule="nonzero"/></g></g></g></g><g clip-path="url(#7452c74008)"><g transform="matrix(1, 0, 0, 1, 630, 160)"><g clip-path="url(#388fab1009)"><g clip-path="url(#42c23c3dee)"><path fill="#fff3c2" d="M 0.78125 0.0195312 L 39.660156 0.0195312 L 39.660156 22.488281 L 0.78125 22.488281 Z M 0.78125 0.0195312 " fill-opacity="1" fill-rule="nonzero"/></g></g></g></g><g clip-path="url(#6be993218d)"><g transform="matrix(1, 0, 0, 1, 630, 297)"><g clip-path="url(#b2e8175dfd)"><g clip-path="url(#97e44cd8fe)"><path fill="#fff3c2" d="M 0.773438 0.976562 L 39.652344 0.976562 L 39.652344 23.445312 L 0.773438 23.445312 Z M 0.773438 0.976562 " fill-opacity="1" fill-rule="nonzero"/></g></g></g></g><g clip-path="url(#805d40aee9)"><g transform="matrix(1, 0, 0, 1, 643, 369)"><g clip-path="url(#a341808f32)"><g clip-path="url(#4bddeaa1a2)"><path fill="#fff3c2" d="M 0.433594 0.765625 L 151.734375 0.765625 L 151.734375 168.617188 L 0.433594 168.617188 Z M 0.433594 0.765625 " fill-opacity="1" fill-rule="nonzero"/></g></g></g></g><g clip-path="url(#b10775dcff)"><g transform="matrix(1, 0, 0, 1, 630, 409)"><g clip-path="url(#d1b0bdafff)"><g clip-path="url(#396ce13737)"><path fill="#fff3c2" d="M 0.773438 0.300781 L 39.652344 0.300781 L 39.652344 22.765625 L 0.773438 22.765625 Z M 0.773438 0.300781 " fill-opacity="1" fill-rule="nonzero"/></g></g></g></g><g clip-path="url(#ee259eeea3)"><g transform="matrix(1, 0, 0, 1, 339, 461)"><g clip-path="url(#d11f97ac7e)"><g clip-path="url(#a32d981733)"><path fill="#99ffce" d="M 0.613281 0.527344 L 53.675781 0.527344 L 53.675781 95.261719 L 0.613281 95.261719 Z M 0.613281 0.527344 " fill-opacity="1" fill-rule="nonzero"/></g></g></g></g><g clip-path="url(#5a5f89023b)"><g transform="matrix(1, 0, 0, 1, 350, 450)"><g clip-path="url(#3d75689b7d)"><g clip-path="url(#9a03feff20)"><path fill="#99ffce" d="M 0.890625 0.128906 L 19.4375 0.128906 L 19.4375 72.730469 L 0.890625 72.730469 Z M 0.890625 0.128906 " fill-opacity="1" fill-rule="nonzero"/></g></g></g></g><g clip-path="url(#54f26509b9)"><g transform="matrix(1, 0, 0, 1, 580, 461)"><g clip-path="url(#98180d2728)"><g clip-path="url(#66c22d8221)"><path fill="#99ffce" d="M 0.378906 0.527344 L 50.78125 0.527344 L 50.78125 95.234375 L 0.378906 95.234375 Z M 0.378906 0.527344 " fill-opacity="1" fill-rule="nonzero"/></g></g></g></g><g clip-path="url(#1c1560f7ef)"><g transform="matrix(1, 0, 0, 1, 601, 450)"><g clip-path="url(#79266a8900)"><g clip-path="url(#af330d5dab)"><path fill="#99ffce" d="M 0.71875 0.128906 L 18.976562 0.128906 L 18.976562 72.730469 L 0.71875 72.730469 Z M 0.71875 0.128906 " fill-opacity="1" fill-rule="nonzero"/></g></g></g></g><g clip-path="url(#89ed8114d4)"><g transform="matrix(1, 0, 0, 1, 188, 44)"><g clip-path="url(#fb07cd2abf)"><g clip-path="url(#8df0c12399)"><path fill="#fff3c2" d="M 0.140625 0.121094 L 138.40625 0.121094 L 138.40625 495.941406 L 0.140625 495.941406 Z M 0.140625 0.121094 " fill-opacity="1" fill-rule="nonzero"/></g></g></g></g><g clip-path="url(#a69530d08a)"><g transform="matrix(1, 0, 0, 1, 293, 348)"><g clip-path="url(#32084cf540)"><g clip-path="url(#2f99440430)"><path fill="#fff3c2" d="M 0.625 0.371094 L 46.570312 0.371094 L 46.570312 23.210938 L 0.625 23.210938 Z M 0.625 0.371094 " fill-opacity="1" fill-rule="nonzero"/></g></g></g></g><g clip-path="url(#ab33f364d1)"><g transform="matrix(1, 0, 0, 1, 528, 33)"><g clip-path="url(#f7cc785017)"><g clip-path="url(#4691bef16f)"><path fill="#ffd699" d="M 0.214844 0.09375 L 102.664062 0.09375 L 102.664062 92.441406 L 0.214844 92.441406 Z M 0.214844 0.09375 " fill-opacity="1" fill-rule="nonzero"/></g></g></g></g><g clip-path="url(#33dbf568dd)"><g transform="matrix(1, 0, 0, 1, 553, 44)"><g clip-path="url(#6eb9e636d3)"><g clip-path="url(#e9b3a5048a)"><path fill="#ffd699" d="M 0.34375 0.121094 L 30.214844 0.121094 L 30.214844 92.179688 L 0.34375 92.179688 Z M 0.34375 0.121094 " fill-opacity="1" fill-rule="nonzero"/></g></g></g></g><path stroke-linecap="butt" transform="matrix(0.748891, -0.00000165082, 0.00000165082, 0.748891, 376.685011, 206.844615)" fill="none" stroke-linejoin="miter" d="M -0.00189698 2.001808 L 290.782435 2.002449 " stroke="#000000" stroke-width="4" stroke-opacity="1" stroke-miterlimit="4"/><g fill="#000000" fill-opacity="1"><g transform="translate(363.57776, 52.858485)"><g><path d="M 5.8125 -3.9375 L 2.109375 -3.9375 L 2.109375 -0.921875 L 6.40625 -0.921875 L 6.40625 0 L 0.984375 0 L 0.984375 -8.515625 L 6.34375 -8.515625 L 6.34375 -7.59375 L 2.109375 -7.59375 L 2.109375 -4.859375 L 5.8125 -4.859375 Z M 5.8125 -3.9375 "/></g></g><g transform="translate(370.387983, 52.858485)"><g><path d="M 2.9375 -4.015625 L 4.34375 -6.328125 L 5.609375 -6.328125 L 3.546875 -3.203125 L 5.671875 0 L 4.421875 0 L 2.96875 -2.375 L 1.5 0 L 0.234375 0 L 2.375 -3.203125 L 0.296875 -6.328125 L 1.5625 -6.328125 Z M 2.9375 -4.015625 "/></g></g><g transform="translate(376.326451, 52.858485)"><g><path d="M 2 0 L 0.90625 0 L 0.90625 -6.328125 L 2 -6.328125 Z M 0.828125 -8.015625 C 0.828125 -8.191406 0.878906 -8.335938 0.984375 -8.453125 C 1.085938 -8.578125 1.242188 -8.640625 1.453125 -8.640625 C 1.671875 -8.640625 1.832031 -8.578125 1.9375 -8.453125 C 2.050781 -8.335938 2.109375 -8.191406 2.109375 -8.015625 C 2.109375 -7.835938 2.050781 -7.6875 1.9375 -7.5625 C 1.832031 -7.445312 1.671875 -7.390625 1.453125 -7.390625 C 1.242188 -7.390625 1.085938 -7.445312 0.984375 -7.5625 C 0.878906 -7.6875 0.828125 -7.835938 0.828125 -8.015625 Z M 0.828125 -8.015625 "/></g></g><g transform="translate(379.234252, 52.858485)"><g><path d="M 2.28125 -7.859375 L 2.28125 -6.328125 L 3.46875 -6.328125 L 3.46875 -5.5 L 2.28125 -5.5 L 2.28125 -1.5625 C 2.28125 -1.3125 2.332031 -1.125 2.4375 -1 C 2.550781 -0.875 2.734375 -0.8125 2.984375 -0.8125 C 3.109375 -0.8125 3.28125 -0.832031 3.5 -0.875 L 3.5 0 C 3.21875 0.0703125 2.941406 0.109375 2.671875 0.109375 C 2.179688 0.109375 1.8125 -0.0351562 1.5625 -0.328125 C 1.320312 -0.617188 1.203125 -1.03125 1.203125 -1.5625 L 1.203125 -5.5 L 0.046875 -5.5 L 0.046875 -6.328125 L 1.203125 -6.328125 L 1.203125 -7.859375 Z M 2.28125 -7.859375 "/></g></g><g transform="translate(383.148375, 52.858485)"><g/></g><g transform="translate(386.114683, 52.858485)"><g><path d="M 4.265625 0 L 3.171875 0 L 3.171875 -7.21875 L 1 -6.40625 L 1 -7.390625 L 4.09375 -8.5625 L 4.265625 -8.5625 Z M 4.265625 0 "/></g></g></g><g fill="#000000" fill-opacity="1"><g transform="translate(229.384976, 272.22242)"><g><path d="M 4.109375 -3.453125 L 2.109375 -3.453125 L 2.109375 0 L 0.984375 0 L 0.984375 -8.515625 L 3.796875 -8.515625 C 4.765625 -8.515625 5.503906 -8.296875 6.015625 -7.859375 C 6.535156 -7.421875 6.796875 -6.785156 6.796875 -5.953125 C 6.796875 -5.421875 6.648438 -4.957031 6.359375 -4.5625 C 6.078125 -4.175781 5.679688 -3.882812 5.171875 -3.6875 L 7.171875 -0.0625 L 7.171875 0 L 5.96875 0 Z M 2.109375 -4.359375 L 3.84375 -4.359375 C 4.394531 -4.359375 4.835938 -4.503906 5.171875 -4.796875 C 5.503906 -5.085938 5.671875 -5.472656 5.671875 -5.953125 C 5.671875 -6.484375 5.507812 -6.890625 5.1875 -7.171875 C 4.875 -7.453125 4.421875 -7.59375 3.828125 -7.59375 L 2.109375 -7.59375 Z M 2.109375 -4.359375 "/></g></g><g transform="translate(236.762718, 272.22242)"><g><path d="M 0.53125 -3.21875 C 0.53125 -3.84375 0.648438 -4.398438 0.890625 -4.890625 C 1.140625 -5.390625 1.476562 -5.773438 1.90625 -6.046875 C 2.34375 -6.316406 2.84375 -6.453125 3.40625 -6.453125 C 4.269531 -6.453125 4.96875 -6.148438 5.5 -5.546875 C 6.03125 -4.953125 6.296875 -4.160156 6.296875 -3.171875 L 6.296875 -3.09375 C 6.296875 -2.476562 6.175781 -1.925781 5.9375 -1.4375 C 5.707031 -0.945312 5.367188 -0.566406 4.921875 -0.296875 C 4.484375 -0.0234375 3.984375 0.109375 3.421875 0.109375 C 2.554688 0.109375 1.859375 -0.1875 1.328125 -0.78125 C 0.796875 -1.375 0.53125 -2.160156 0.53125 -3.140625 Z M 1.625 -3.09375 C 1.625 -2.394531 1.785156 -1.832031 2.109375 -1.40625 C 2.429688 -0.976562 2.867188 -0.765625 3.421875 -0.765625 C 3.972656 -0.765625 4.410156 -0.976562 4.734375 -1.40625 C 5.054688 -1.84375 5.21875 -2.445312 5.21875 -3.21875 C 5.21875 -3.914062 5.050781 -4.476562 4.71875 -4.90625 C 4.382812 -5.34375 3.945312 -5.5625 3.40625 -5.5625 C 2.875 -5.5625 2.441406 -5.347656 2.109375 -4.921875 C 1.785156 -4.492188 1.625 -3.882812 1.625 -3.09375 Z M 1.625 -3.09375 "/></g></g><g transform="translate(243.596343, 272.22242)"><g><path d="M 0.53125 -3.21875 C 0.53125 -3.84375 0.648438 -4.398438 0.890625 -4.890625 C 1.140625 -5.390625 1.476562 -5.773438 1.90625 -6.046875 C 2.34375 -6.316406 2.84375 -6.453125 3.40625 -6.453125 C 4.269531 -6.453125 4.96875 -6.148438 5.5 -5.546875 C 6.03125 -4.953125 6.296875 -4.160156 6.296875 -3.171875 L 6.296875 -3.09375 C 6.296875 -2.476562 6.175781 -1.925781 5.9375 -1.4375 C 5.707031 -0.945312 5.367188 -0.566406 4.921875 -0.296875 C 4.484375 -0.0234375 3.984375 0.109375 3.421875 0.109375 C 2.554688 0.109375 1.859375 -0.1875 1.328125 -0.78125 C 0.796875 -1.375 0.53125 -2.160156 0.53125 -3.140625 Z M 1.625 -3.09375 C 1.625 -2.394531 1.785156 -1.832031 2.109375 -1.40625 C 2.429688 -0.976562 2.867188 -0.765625 3.421875 -0.765625 C 3.972656 -0.765625 4.410156 -0.976562 4.734375 -1.40625 C 5.054688 -1.84375 5.21875 -2.445312 5.21875 -3.21875 C 5.21875 -3.914062 5.050781 -4.476562 4.71875 -4.90625 C 4.382812 -5.34375 3.945312 -5.5625 3.40625 -5.5625 C 2.875 -5.5625 2.441406 -5.347656 2.109375 -4.921875 C 1.785156 -4.492188 1.625 -3.882812 1.625 -3.09375 Z M 1.625 -3.09375 "/></g></g><g transform="translate(250.429969, 272.22242)"><g><path d="M 1.84375 -6.328125 L 1.859375 -5.625 C 2.328125 -6.175781 2.957031 -6.453125 3.75 -6.453125 C 4.632812 -6.453125 5.234375 -6.113281 5.546875 -5.4375 C 5.765625 -5.738281 6.039062 -5.984375 6.375 -6.171875 C 6.707031 -6.359375 7.109375 -6.453125 7.578125 -6.453125 C 8.960938 -6.453125 9.664062 -5.71875 9.6875 -4.25 L 9.6875 0 L 8.609375 0 L 8.609375 -4.171875 C 8.609375 -4.628906 8.503906 -4.96875 8.296875 -5.1875 C 8.085938 -5.414062 7.738281 -5.53125 7.25 -5.53125 C 6.851562 -5.53125 6.519531 -5.410156 6.25 -5.171875 C 5.988281 -4.929688 5.835938 -4.609375 5.796875 -4.203125 L 5.796875 0 L 4.703125 0 L 4.703125 -4.15625 C 4.703125 -5.070312 4.253906 -5.53125 3.359375 -5.53125 C 2.640625 -5.53125 2.148438 -5.226562 1.890625 -4.625 L 1.890625 0 L 0.8125 0 L 0.8125 -6.328125 Z M 1.84375 -6.328125 "/></g></g><g transform="translate(260.931988, 272.22242)"><g/></g><g transform="translate(263.898297, 272.22242)"><g><path d="M 6.296875 0 L 0.703125 0 L 0.703125 -0.78125 L 3.65625 -4.0625 C 4.09375 -4.550781 4.394531 -4.953125 4.5625 -5.265625 C 4.726562 -5.578125 4.8125 -5.894531 4.8125 -6.21875 C 4.8125 -6.664062 4.675781 -7.03125 4.40625 -7.3125 C 4.132812 -7.601562 3.773438 -7.75 3.328125 -7.75 C 2.785156 -7.75 2.363281 -7.59375 2.0625 -7.28125 C 1.769531 -6.976562 1.625 -6.554688 1.625 -6.015625 L 0.546875 -6.015625 C 0.546875 -6.796875 0.796875 -7.425781 1.296875 -7.90625 C 1.804688 -8.394531 2.484375 -8.640625 3.328125 -8.640625 C 4.117188 -8.640625 4.742188 -8.429688 5.203125 -8.015625 C 5.671875 -7.597656 5.90625 -7.046875 5.90625 -6.359375 C 5.90625 -5.515625 5.367188 -4.515625 4.296875 -3.359375 L 2.015625 -0.890625 L 6.296875 -0.890625 Z M 6.296875 0 "/></g></g><g transform="translate(270.62661, 272.22242)"><g><path d="M 6.046875 -3.640625 C 6.046875 -2.367188 5.828125 -1.425781 5.390625 -0.8125 C 4.960938 -0.195312 4.289062 0.109375 3.375 0.109375 C 2.457031 0.109375 1.78125 -0.1875 1.34375 -0.78125 C 0.914062 -1.382812 0.691406 -2.285156 0.671875 -3.484375 L 0.671875 -4.9375 C 0.671875 -6.1875 0.882812 -7.113281 1.3125 -7.71875 C 1.75 -8.332031 2.429688 -8.640625 3.359375 -8.640625 C 4.273438 -8.640625 4.945312 -8.34375 5.375 -7.75 C 5.8125 -7.164062 6.035156 -6.257812 6.046875 -5.03125 Z M 4.96875 -5.109375 C 4.96875 -6.023438 4.835938 -6.691406 4.578125 -7.109375 C 4.328125 -7.535156 3.921875 -7.75 3.359375 -7.75 C 2.804688 -7.75 2.398438 -7.539062 2.140625 -7.125 C 1.890625 -6.707031 1.757812 -6.066406 1.75 -5.203125 L 1.75 -3.46875 C 1.75 -2.539062 1.882812 -1.859375 2.15625 -1.421875 C 2.425781 -0.984375 2.832031 -0.765625 3.375 -0.765625 C 3.90625 -0.765625 4.300781 -0.96875 4.5625 -1.375 C 4.820312 -1.789062 4.957031 -2.445312 4.96875 -3.34375 Z M 4.96875 -5.109375 "/></g></g><g transform="translate(277.354923, 272.22242)"><g><path d="M 5.28125 -2.859375 L 6.453125 -2.859375 L 6.453125 -1.984375 L 5.28125 -1.984375 L 5.28125 0 L 4.1875 0 L 4.1875 -1.984375 L 0.3125 -1.984375 L 0.3125 -2.609375 L 4.125 -8.515625 L 5.28125 -8.515625 Z M 1.53125 -2.859375 L 4.1875 -2.859375 L 4.1875 -7.046875 L 4.0625 -6.8125 Z M 1.53125 -2.859375 "/></g></g></g><g fill="#000000" fill-opacity="1"><g transform="translate(692.985958, 73.19785)"><g><path d="M 4.109375 -3.453125 L 2.109375 -3.453125 L 2.109375 0 L 0.984375 0 L 0.984375 -8.515625 L 3.796875 -8.515625 C 4.765625 -8.515625 5.503906 -8.296875 6.015625 -7.859375 C 6.535156 -7.421875 6.796875 -6.785156 6.796875 -5.953125 C 6.796875 -5.421875 6.648438 -4.957031 6.359375 -4.5625 C 6.078125 -4.175781 5.679688 -3.882812 5.171875 -3.6875 L 7.171875 -0.0625 L 7.171875 0 L 5.96875 0 Z M 2.109375 -4.359375 L 3.84375 -4.359375 C 4.394531 -4.359375 4.835938 -4.503906 5.171875 -4.796875 C 5.503906 -5.085938 5.671875 -5.472656 5.671875 -5.953125 C 5.671875 -6.484375 5.507812 -6.890625 5.1875 -7.171875 C 4.875 -7.453125 4.421875 -7.59375 3.828125 -7.59375 L 2.109375 -7.59375 Z M 2.109375 -4.359375 "/></g></g><g transform="translate(700.3637, 73.19785)"><g><path d="M 0.53125 -3.21875 C 0.53125 -3.84375 0.648438 -4.398438 0.890625 -4.890625 C 1.140625 -5.390625 1.476562 -5.773438 1.90625 -6.046875 C 2.34375 -6.316406 2.84375 -6.453125 3.40625 -6.453125 C 4.269531 -6.453125 4.96875 -6.148438 5.5 -5.546875 C 6.03125 -4.953125 6.296875 -4.160156 6.296875 -3.171875 L 6.296875 -3.09375 C 6.296875 -2.476562 6.175781 -1.925781 5.9375 -1.4375 C 5.707031 -0.945312 5.367188 -0.566406 4.921875 -0.296875 C 4.484375 -0.0234375 3.984375 0.109375 3.421875 0.109375 C 2.554688 0.109375 1.859375 -0.1875 1.328125 -0.78125 C 0.796875 -1.375 0.53125 -2.160156 0.53125 -3.140625 Z M 1.625 -3.09375 C 1.625 -2.394531 1.785156 -1.832031 2.109375 -1.40625 C 2.429688 -0.976562 2.867188 -0.765625 3.421875 -0.765625 C 3.972656 -0.765625 4.410156 -0.976562 4.734375 -1.40625 C 5.054688 -1.84375 5.21875 -2.445312 5.21875 -3.21875 C 5.21875 -3.914062 5.050781 -4.476562 4.71875 -4.90625 C 4.382812 -5.34375 3.945312 -5.5625 3.40625 -5.5625 C 2.875 -5.5625 2.441406 -5.347656 2.109375 -4.921875 C 1.785156 -4.492188 1.625 -3.882812 1.625 -3.09375 Z M 1.625 -3.09375 "/></g></g><g transform="translate(707.197326, 73.19785)"><g><path d="M 0.53125 -3.21875 C 0.53125 -3.84375 0.648438 -4.398438 0.890625 -4.890625 C 1.140625 -5.390625 1.476562 -5.773438 1.90625 -6.046875 C 2.34375 -6.316406 2.84375 -6.453125 3.40625 -6.453125 C 4.269531 -6.453125 4.96875 -6.148438 5.5 -5.546875 C 6.03125 -4.953125 6.296875 -4.160156 6.296875 -3.171875 L 6.296875 -3.09375 C 6.296875 -2.476562 6.175781 -1.925781 5.9375 -1.4375 C 5.707031 -0.945312 5.367188 -0.566406 4.921875 -0.296875 C 4.484375 -0.0234375 3.984375 0.109375 3.421875 0.109375 C 2.554688 0.109375 1.859375 -0.1875 1.328125 -0.78125 C 0.796875 -1.375 0.53125 -2.160156 0.53125 -3.140625 Z M 1.625 -3.09375 C 1.625 -2.394531 1.785156 -1.832031 2.109375 -1.40625 C 2.429688 -0.976562 2.867188 -0.765625 3.421875 -0.765625 C 3.972656 -0.765625 4.410156 -0.976562 4.734375 -1.40625 C 5.054688 -1.84375 5.21875 -2.445312 5.21875 -3.21875 C 5.21875 -3.914062 5.050781 -4.476562 4.71875 -4.90625 C 4.382812 -5.34375 3.945312 -5.5625 3.40625 -5.5625 C 2.875 -5.5625 2.441406 -5.347656 2.109375 -4.921875 C 1.785156 -4.492188 1.625 -3.882812 1.625 -3.09375 Z M 1.625 -3.09375 "/></g></g><g transform="translate(714.030952, 73.19785)"><g><path d="M 1.84375 -6.328125 L 1.859375 -5.625 C 2.328125 -6.175781 2.957031 -6.453125 3.75 -6.453125 C 4.632812 -6.453125 5.234375 -6.113281 5.546875 -5.4375 C 5.765625 -5.738281 6.039062 -5.984375 6.375 -6.171875 C 6.707031 -6.359375 7.109375 -6.453125 7.578125 -6.453125 C 8.960938 -6.453125 9.664062 -5.71875 9.6875 -4.25 L 9.6875 0 L 8.609375 0 L 8.609375 -4.171875 C 8.609375 -4.628906 8.503906 -4.96875 8.296875 -5.1875 C 8.085938 -5.414062 7.738281 -5.53125 7.25 -5.53125 C 6.851562 -5.53125 6.519531 -5.410156 6.25 -5.171875 C 5.988281 -4.929688 5.835938 -4.609375 5.796875 -4.203125 L 5.796875 0 L 4.703125 0 L 4.703125 -4.15625 C 4.703125 -5.070312 4.253906 -5.53125 3.359375 -5.53125 C 2.640625 -5.53125 2.148438 -5.226562 1.890625 -4.625 L 1.890625 0 L 0.8125 0 L 0.8125 -6.328125 Z M 1.84375 -6.328125 "/></g></g><g transform="translate(724.532971, 73.19785)"><g/></g><g transform="translate(727.499279, 73.19785)"><g><path d="M 6.296875 0 L 0.703125 0 L 0.703125 -0.78125 L 3.65625 -4.0625 C 4.09375 -4.550781 4.394531 -4.953125 4.5625 -5.265625 C 4.726562 -5.578125 4.8125 -5.894531 4.8125 -6.21875 C 4.8125 -6.664062 4.675781 -7.03125 4.40625 -7.3125 C 4.132812 -7.601562 3.773438 -7.75 3.328125 -7.75 C 2.785156 -7.75 2.363281 -7.59375 2.0625 -7.28125 C 1.769531 -6.976562 1.625 -6.554688 1.625 -6.015625 L 0.546875 -6.015625 C 0.546875 -6.796875 0.796875 -7.425781 1.296875 -7.90625 C 1.804688 -8.394531 2.484375 -8.640625 3.328125 -8.640625 C 4.117188 -8.640625 4.742188 -8.429688 5.203125 -8.015625 C 5.671875 -7.597656 5.90625 -7.046875 5.90625 -6.359375 C 5.90625 -5.515625 5.367188 -4.515625 4.296875 -3.359375 L 2.015625 -0.890625 L 6.296875 -0.890625 Z M 6.296875 0 "/></g></g><g transform="translate(734.227592, 73.19785)"><g><path d="M 6.046875 -3.640625 C 6.046875 -2.367188 5.828125 -1.425781 5.390625 -0.8125 C 4.960938 -0.195312 4.289062 0.109375 3.375 0.109375 C 2.457031 0.109375 1.78125 -0.1875 1.34375 -0.78125 C 0.914062 -1.382812 0.691406 -2.285156 0.671875 -3.484375 L 0.671875 -4.9375 C 0.671875 -6.1875 0.882812 -7.113281 1.3125 -7.71875 C 1.75 -8.332031 2.429688 -8.640625 3.359375 -8.640625 C 4.273438 -8.640625 4.945312 -8.34375 5.375 -7.75 C 5.8125 -7.164062 6.035156 -6.257812 6.046875 -5.03125 Z M 4.96875 -5.109375 C 4.96875 -6.023438 4.835938 -6.691406 4.578125 -7.109375 C 4.328125 -7.535156 3.921875 -7.75 3.359375 -7.75 C 2.804688 -7.75 2.398438 -7.539062 2.140625 -7.125 C 1.890625 -6.707031 1.757812 -6.066406 1.75 -5.203125 L 1.75 -3.46875 C 1.75 -2.539062 1.882812 -1.859375 2.15625 -1.421875 C 2.425781 -0.984375 2.832031 -0.765625 3.375 -0.765625 C 3.90625 -0.765625 4.300781 -0.96875 4.5625 -1.375 C 4.820312 -1.789062 4.957031 -2.445312 4.96875 -3.34375 Z M 4.96875 -5.109375 "/></g></g><g transform="translate(740.955906, 73.19785)"><g><path d="M 2.28125 -4.78125 L 3.09375 -4.78125 C 3.601562 -4.789062 4.003906 -4.925781 4.296875 -5.1875 C 4.585938 -5.445312 4.734375 -5.800781 4.734375 -6.25 C 4.734375 -7.25 4.238281 -7.75 3.25 -7.75 C 2.78125 -7.75 2.40625 -7.613281 2.125 -7.34375 C 1.84375 -7.082031 1.703125 -6.726562 1.703125 -6.28125 L 0.625 -6.28125 C 0.625 -6.957031 0.867188 -7.519531 1.359375 -7.96875 C 1.859375 -8.414062 2.488281 -8.640625 3.25 -8.640625 C 4.050781 -8.640625 4.679688 -8.425781 5.140625 -8 C 5.597656 -7.570312 5.828125 -6.976562 5.828125 -6.21875 C 5.828125 -5.851562 5.707031 -5.492188 5.46875 -5.140625 C 5.226562 -4.796875 4.898438 -4.539062 4.484375 -4.375 C 4.953125 -4.226562 5.3125 -3.984375 5.5625 -3.640625 C 5.820312 -3.296875 5.953125 -2.875 5.953125 -2.375 C 5.953125 -1.613281 5.703125 -1.007812 5.203125 -0.5625 C 4.703125 -0.113281 4.050781 0.109375 3.25 0.109375 C 2.445312 0.109375 1.796875 -0.101562 1.296875 -0.53125 C 0.796875 -0.96875 0.546875 -1.539062 0.546875 -2.25 L 1.640625 -2.25 C 1.640625 -1.800781 1.785156 -1.441406 2.078125 -1.171875 C 2.367188 -0.898438 2.757812 -0.765625 3.25 -0.765625 C 3.769531 -0.765625 4.171875 -0.898438 4.453125 -1.171875 C 4.734375 -1.441406 4.875 -1.835938 4.875 -2.359375 C 4.875 -2.847656 4.71875 -3.222656 4.40625 -3.484375 C 4.101562 -3.753906 3.664062 -3.894531 3.09375 -3.90625 L 2.28125 -3.90625 Z M 2.28125 -4.78125 "/></g></g></g><g fill="#000000" fill-opacity="1"><g transform="translate(692.985958, 249.597283)"><g><path d="M 4.109375 -3.453125 L 2.109375 -3.453125 L 2.109375 0 L 0.984375 0 L 0.984375 -8.515625 L 3.796875 -8.515625 C 4.765625 -8.515625 5.503906 -8.296875 6.015625 -7.859375 C 6.535156 -7.421875 6.796875 -6.785156 6.796875 -5.953125 C 6.796875 -5.421875 6.648438 -4.957031 6.359375 -4.5625 C 6.078125 -4.175781 5.679688 -3.882812 5.171875 -3.6875 L 7.171875 -0.0625 L 7.171875 0 L 5.96875 0 Z M 2.109375 -4.359375 L 3.84375 -4.359375 C 4.394531 -4.359375 4.835938 -4.503906 5.171875 -4.796875 C 5.503906 -5.085938 5.671875 -5.472656 5.671875 -5.953125 C 5.671875 -6.484375 5.507812 -6.890625 5.1875 -7.171875 C 4.875 -7.453125 4.421875 -7.59375 3.828125 -7.59375 L 2.109375 -7.59375 Z M 2.109375 -4.359375 "/></g></g><g transform="translate(700.3637, 249.597283)"><g><path d="M 0.53125 -3.21875 C 0.53125 -3.84375 0.648438 -4.398438 0.890625 -4.890625 C 1.140625 -5.390625 1.476562 -5.773438 1.90625 -6.046875 C 2.34375 -6.316406 2.84375 -6.453125 3.40625 -6.453125 C 4.269531 -6.453125 4.96875 -6.148438 5.5 -5.546875 C 6.03125 -4.953125 6.296875 -4.160156 6.296875 -3.171875 L 6.296875 -3.09375 C 6.296875 -2.476562 6.175781 -1.925781 5.9375 -1.4375 C 5.707031 -0.945312 5.367188 -0.566406 4.921875 -0.296875 C 4.484375 -0.0234375 3.984375 0.109375 3.421875 0.109375 C 2.554688 0.109375 1.859375 -0.1875 1.328125 -0.78125 C 0.796875 -1.375 0.53125 -2.160156 0.53125 -3.140625 Z M 1.625 -3.09375 C 1.625 -2.394531 1.785156 -1.832031 2.109375 -1.40625 C 2.429688 -0.976562 2.867188 -0.765625 3.421875 -0.765625 C 3.972656 -0.765625 4.410156 -0.976562 4.734375 -1.40625 C 5.054688 -1.84375 5.21875 -2.445312 5.21875 -3.21875 C 5.21875 -3.914062 5.050781 -4.476562 4.71875 -4.90625 C 4.382812 -5.34375 3.945312 -5.5625 3.40625 -5.5625 C 2.875 -5.5625 2.441406 -5.347656 2.109375 -4.921875 C 1.785156 -4.492188 1.625 -3.882812 1.625 -3.09375 Z M 1.625 -3.09375 "/></g></g><g transform="translate(707.197326, 249.597283)"><g><path d="M 0.53125 -3.21875 C 0.53125 -3.84375 0.648438 -4.398438 0.890625 -4.890625 C 1.140625 -5.390625 1.476562 -5.773438 1.90625 -6.046875 C 2.34375 -6.316406 2.84375 -6.453125 3.40625 -6.453125 C 4.269531 -6.453125 4.96875 -6.148438 5.5 -5.546875 C 6.03125 -4.953125 6.296875 -4.160156 6.296875 -3.171875 L 6.296875 -3.09375 C 6.296875 -2.476562 6.175781 -1.925781 5.9375 -1.4375 C 5.707031 -0.945312 5.367188 -0.566406 4.921875 -0.296875 C 4.484375 -0.0234375 3.984375 0.109375 3.421875 0.109375 C 2.554688 0.109375 1.859375 -0.1875 1.328125 -0.78125 C 0.796875 -1.375 0.53125 -2.160156 0.53125 -3.140625 Z M 1.625 -3.09375 C 1.625 -2.394531 1.785156 -1.832031 2.109375 -1.40625 C 2.429688 -0.976562 2.867188 -0.765625 3.421875 -0.765625 C 3.972656 -0.765625 4.410156 -0.976562 4.734375 -1.40625 C 5.054688 -1.84375 5.21875 -2.445312 5.21875 -3.21875 C 5.21875 -3.914062 5.050781 -4.476562 4.71875 -4.90625 C 4.382812 -5.34375 3.945312 -5.5625 3.40625 -5.5625 C 2.875 -5.5625 2.441406 -5.347656 2.109375 -4.921875 C 1.785156 -4.492188 1.625 -3.882812 1.625 -3.09375 Z M 1.625 -3.09375 "/></g></g><g transform="translate(714.030952, 249.597283)"><g><path d="M 1.84375 -6.328125 L 1.859375 -5.625 C 2.328125 -6.175781 2.957031 -6.453125 3.75 -6.453125 C 4.632812 -6.453125 5.234375 -6.113281 5.546875 -5.4375 C 5.765625 -5.738281 6.039062 -5.984375 6.375 -6.171875 C 6.707031 -6.359375 7.109375 -6.453125 7.578125 -6.453125 C 8.960938 -6.453125 9.664062 -5.71875 9.6875 -4.25 L 9.6875 0 L 8.609375 0 L 8.609375 -4.171875 C 8.609375 -4.628906 8.503906 -4.96875 8.296875 -5.1875 C 8.085938 -5.414062 7.738281 -5.53125 7.25 -5.53125 C 6.851562 -5.53125 6.519531 -5.410156 6.25 -5.171875 C 5.988281 -4.929688 5.835938 -4.609375 5.796875 -4.203125 L 5.796875 0 L 4.703125 0 L 4.703125 -4.15625 C 4.703125 -5.070312 4.253906 -5.53125 3.359375 -5.53125 C 2.640625 -5.53125 2.148438 -5.226562 1.890625 -4.625 L 1.890625 0 L 0.8125 0 L 0.8125 -6.328125 Z M 1.84375 -6.328125 "/></g></g><g transform="translate(724.532971, 249.597283)"><g/></g><g transform="translate(727.499279, 249.597283)"><g><path d="M 6.296875 0 L 0.703125 0 L 0.703125 -0.78125 L 3.65625 -4.0625 C 4.09375 -4.550781 4.394531 -4.953125 4.5625 -5.265625 C 4.726562 -5.578125 4.8125 -5.894531 4.8125 -6.21875 C 4.8125 -6.664062 4.675781 -7.03125 4.40625 -7.3125 C 4.132812 -7.601562 3.773438 -7.75 3.328125 -7.75 C 2.785156 -7.75 2.363281 -7.59375 2.0625 -7.28125 C 1.769531 -6.976562 1.625 -6.554688 1.625 -6.015625 L 0.546875 -6.015625 C 0.546875 -6.796875 0.796875 -7.425781 1.296875 -7.90625 C 1.804688 -8.394531 2.484375 -8.640625 3.328125 -8.640625 C 4.117188 -8.640625 4.742188 -8.429688 5.203125 -8.015625 C 5.671875 -7.597656 5.90625 -7.046875 5.90625 -6.359375 C 5.90625 -5.515625 5.367188 -4.515625 4.296875 -3.359375 L 2.015625 -0.890625 L 6.296875 -0.890625 Z M 6.296875 0 "/></g></g><g transform="translate(734.227592, 249.597283)"><g><path d="M 6.046875 -3.640625 C 6.046875 -2.367188 5.828125 -1.425781 5.390625 -0.8125 C 4.960938 -0.195312 4.289062 0.109375 3.375 0.109375 C 2.457031 0.109375 1.78125 -0.1875 1.34375 -0.78125 C 0.914062 -1.382812 0.691406 -2.285156 0.671875 -3.484375 L 0.671875 -4.9375 C 0.671875 -6.1875 0.882812 -7.113281 1.3125 -7.71875 C 1.75 -8.332031 2.429688 -8.640625 3.359375 -8.640625 C 4.273438 -8.640625 4.945312 -8.34375 5.375 -7.75 C 5.8125 -7.164062 6.035156 -6.257812 6.046875 -5.03125 Z M 4.96875 -5.109375 C 4.96875 -6.023438 4.835938 -6.691406 4.578125 -7.109375 C 4.328125 -7.535156 3.921875 -7.75 3.359375 -7.75 C 2.804688 -7.75 2.398438 -7.539062 2.140625 -7.125 C 1.890625 -6.707031 1.757812 -6.066406 1.75 -5.203125 L 1.75 -3.46875 C 1.75 -2.539062 1.882812 -1.859375 2.15625 -1.421875 C 2.425781 -0.984375 2.832031 -0.765625 3.375 -0.765625 C 3.90625 -0.765625 4.300781 -0.96875 4.5625 -1.375 C 4.820312 -1.789062 4.957031 -2.445312 4.96875 -3.34375 Z M 4.96875 -5.109375 "/></g></g><g transform="translate(740.955906, 249.597283)"><g><path d="M 6.296875 0 L 0.703125 0 L 0.703125 -0.78125 L 3.65625 -4.0625 C 4.09375 -4.550781 4.394531 -4.953125 4.5625 -5.265625 C 4.726562 -5.578125 4.8125 -5.894531 4.8125 -6.21875 C 4.8125 -6.664062 4.675781 -7.03125 4.40625 -7.3125 C 4.132812 -7.601562 3.773438 -7.75 3.328125 -7.75 C 2.785156 -7.75 2.363281 -7.59375 2.0625 -7.28125 C 1.769531 -6.976562 1.625 -6.554688 1.625 -6.015625 L 0.546875 -6.015625 C 0.546875 -6.796875 0.796875 -7.425781 1.296875 -7.90625 C 1.804688 -8.394531 2.484375 -8.640625 3.328125 -8.640625 C 4.117188 -8.640625 4.742188 -8.429688 5.203125 -8.015625 C 5.671875 -7.597656 5.90625 -7.046875 5.90625 -6.359375 C 5.90625 -5.515625 5.367188 -4.515625 4.296875 -3.359375 L 2.015625 -0.890625 L 6.296875 -0.890625 Z M 6.296875 0 "/></g></g></g><g fill="#000000" fill-opacity="1"><g transform="translate(692.985958, 404.507316)"><g><path d="M 4.109375 -3.453125 L 2.109375 -3.453125 L 2.109375 0 L 0.984375 0 L 0.984375 -8.515625 L 3.796875 -8.515625 C 4.765625 -8.515625 5.503906 -8.296875 6.015625 -7.859375 C 6.535156 -7.421875 6.796875 -6.785156 6.796875 -5.953125 C 6.796875 -5.421875 6.648438 -4.957031 6.359375 -4.5625 C 6.078125 -4.175781 5.679688 -3.882812 5.171875 -3.6875 L 7.171875 -0.0625 L 7.171875 0 L 5.96875 0 Z M 2.109375 -4.359375 L 3.84375 -4.359375 C 4.394531 -4.359375 4.835938 -4.503906 5.171875 -4.796875 C 5.503906 -5.085938 5.671875 -5.472656 5.671875 -5.953125 C 5.671875 -6.484375 5.507812 -6.890625 5.1875 -7.171875 C 4.875 -7.453125 4.421875 -7.59375 3.828125 -7.59375 L 2.109375 -7.59375 Z M 2.109375 -4.359375 "/></g></g><g transform="translate(700.3637, 404.507316)"><g><path d="M 0.53125 -3.21875 C 0.53125 -3.84375 0.648438 -4.398438 0.890625 -4.890625 C 1.140625 -5.390625 1.476562 -5.773438 1.90625 -6.046875 C 2.34375 -6.316406 2.84375 -6.453125 3.40625 -6.453125 C 4.269531 -6.453125 4.96875 -6.148438 5.5 -5.546875 C 6.03125 -4.953125 6.296875 -4.160156 6.296875 -3.171875 L 6.296875 -3.09375 C 6.296875 -2.476562 6.175781 -1.925781 5.9375 -1.4375 C 5.707031 -0.945312 5.367188 -0.566406 4.921875 -0.296875 C 4.484375 -0.0234375 3.984375 0.109375 3.421875 0.109375 C 2.554688 0.109375 1.859375 -0.1875 1.328125 -0.78125 C 0.796875 -1.375 0.53125 -2.160156 0.53125 -3.140625 Z M 1.625 -3.09375 C 1.625 -2.394531 1.785156 -1.832031 2.109375 -1.40625 C 2.429688 -0.976562 2.867188 -0.765625 3.421875 -0.765625 C 3.972656 -0.765625 4.410156 -0.976562 4.734375 -1.40625 C 5.054688 -1.84375 5.21875 -2.445312 5.21875 -3.21875 C 5.21875 -3.914062 5.050781 -4.476562 4.71875 -4.90625 C 4.382812 -5.34375 3.945312 -5.5625 3.40625 -5.5625 C 2.875 -5.5625 2.441406 -5.347656 2.109375 -4.921875 C 1.785156 -4.492188 1.625 -3.882812 1.625 -3.09375 Z M 1.625 -3.09375 "/></g></g><g transform="translate(707.197326, 404.507316)"><g><path d="M 0.53125 -3.21875 C 0.53125 -3.84375 0.648438 -4.398438 0.890625 -4.890625 C 1.140625 -5.390625 1.476562 -5.773438 1.90625 -6.046875 C 2.34375 -6.316406 2.84375 -6.453125 3.40625 -6.453125 C 4.269531 -6.453125 4.96875 -6.148438 5.5 -5.546875 C 6.03125 -4.953125 6.296875 -4.160156 6.296875 -3.171875 L 6.296875 -3.09375 C 6.296875 -2.476562 6.175781 -1.925781 5.9375 -1.4375 C 5.707031 -0.945312 5.367188 -0.566406 4.921875 -0.296875 C 4.484375 -0.0234375 3.984375 0.109375 3.421875 0.109375 C 2.554688 0.109375 1.859375 -0.1875 1.328125 -0.78125 C 0.796875 -1.375 0.53125 -2.160156 0.53125 -3.140625 Z M 1.625 -3.09375 C 1.625 -2.394531 1.785156 -1.832031 2.109375 -1.40625 C 2.429688 -0.976562 2.867188 -0.765625 3.421875 -0.765625 C 3.972656 -0.765625 4.410156 -0.976562 4.734375 -1.40625 C 5.054688 -1.84375 5.21875 -2.445312 5.21875 -3.21875 C 5.21875 -3.914062 5.050781 -4.476562 4.71875 -4.90625 C 4.382812 -5.34375 3.945312 -5.5625 3.40625 -5.5625 C 2.875 -5.5625 2.441406 -5.347656 2.109375 -4.921875 C 1.785156 -4.492188 1.625 -3.882812 1.625 -3.09375 Z M 1.625 -3.09375 "/></g></g><g transform="translate(714.030952, 404.507316)"><g><path d="M 1.84375 -6.328125 L 1.859375 -5.625 C 2.328125 -6.175781 2.957031 -6.453125 3.75 -6.453125 C 4.632812 -6.453125 5.234375 -6.113281 5.546875 -5.4375 C 5.765625 -5.738281 6.039062 -5.984375 6.375 -6.171875 C 6.707031 -6.359375 7.109375 -6.453125 7.578125 -6.453125 C 8.960938 -6.453125 9.664062 -5.71875 9.6875 -4.25 L 9.6875 0 L 8.609375 0 L 8.609375 -4.171875 C 8.609375 -4.628906 8.503906 -4.96875 8.296875 -5.1875 C 8.085938 -5.414062 7.738281 -5.53125 7.25 -5.53125 C 6.851562 -5.53125 6.519531 -5.410156 6.25 -5.171875 C 5.988281 -4.929688 5.835938 -4.609375 5.796875 -4.203125 L 5.796875 0 L 4.703125 0 L 4.703125 -4.15625 C 4.703125 -5.070312 4.253906 -5.53125 3.359375 -5.53125 C 2.640625 -5.53125 2.148438 -5.226562 1.890625 -4.625 L 1.890625 0 L 0.8125 0 L 0.8125 -6.328125 Z M 1.84375 -6.328125 "/></g></g><g transform="translate(724.532971, 404.507316)"><g/></g><g transform="translate(727.499279, 404.507316)"><g><path d="M 6.296875 0 L 0.703125 0 L 0.703125 -0.78125 L 3.65625 -4.0625 C 4.09375 -4.550781 4.394531 -4.953125 4.5625 -5.265625 C 4.726562 -5.578125 4.8125 -5.894531 4.8125 -6.21875 C 4.8125 -6.664062 4.675781 -7.03125 4.40625 -7.3125 C 4.132812 -7.601562 3.773438 -7.75 3.328125 -7.75 C 2.785156 -7.75 2.363281 -7.59375 2.0625 -7.28125 C 1.769531 -6.976562 1.625 -6.554688 1.625 -6.015625 L 0.546875 -6.015625 C 0.546875 -6.796875 0.796875 -7.425781 1.296875 -7.90625 C 1.804688 -8.394531 2.484375 -8.640625 3.328125 -8.640625 C 4.117188 -8.640625 4.742188 -8.429688 5.203125 -8.015625 C 5.671875 -7.597656 5.90625 -7.046875 5.90625 -6.359375 C 5.90625 -5.515625 5.367188 -4.515625 4.296875 -3.359375 L 2.015625 -0.890625 L 6.296875 -0.890625 Z M 6.296875 0 "/></g></g><g transform="translate(734.227592, 404.507316)"><g><path d="M 6.046875 -3.640625 C 6.046875 -2.367188 5.828125 -1.425781 5.390625 -0.8125 C 4.960938 -0.195312 4.289062 0.109375 3.375 0.109375 C 2.457031 0.109375 1.78125 -0.1875 1.34375 -0.78125 C 0.914062 -1.382812 0.691406 -2.285156 0.671875 -3.484375 L 0.671875 -4.9375 C 0.671875 -6.1875 0.882812 -7.113281 1.3125 -7.71875 C 1.75 -8.332031 2.429688 -8.640625 3.359375 -8.640625 C 4.273438 -8.640625 4.945312 -8.34375 5.375 -7.75 C 5.8125 -7.164062 6.035156 -6.257812 6.046875 -5.03125 Z M 4.96875 -5.109375 C 4.96875 -6.023438 4.835938 -6.691406 4.578125 -7.109375 C 4.328125 -7.535156 3.921875 -7.75 3.359375 -7.75 C 2.804688 -7.75 2.398438 -7.539062 2.140625 -7.125 C 1.890625 -6.707031 1.757812 -6.066406 1.75 -5.203125 L 1.75 -3.46875 C 1.75 -2.539062 1.882812 -1.859375 2.15625 -1.421875 C 2.425781 -0.984375 2.832031 -0.765625 3.375 -0.765625 C 3.90625 -0.765625 4.300781 -0.96875 4.5625 -1.375 C 4.820312 -1.789062 4.957031 -2.445312 4.96875 -3.34375 Z M 4.96875 -5.109375 "/></g></g><g transform="translate(740.955906, 404.507316)"><g><path d="M 4.265625 0 L 3.171875 0 L 3.171875 -7.21875 L 1 -6.40625 L 1 -7.390625 L 4.09375 -8.5625 L 4.265625 -8.5625 Z M 4.265625 0 "/></g></g></g><g fill="#000000" fill-opacity="1"><g transform="translate(351.270534, 497.210736)"><g><path d="M 5.8125 -3.9375 L 2.109375 -3.9375 L 2.109375 -0.921875 L 6.40625 -0.921875 L 6.40625 0 L 0.984375 0 L 0.984375 -8.515625 L 6.34375 -8.515625 L 6.34375 -7.59375 L 2.109375 -7.59375 L 2.109375 -4.859375 L 5.8125 -4.859375 Z M 5.8125 -3.9375 "/></g></g><g transform="translate(358.080757, 497.210736)"><g><path d="M 2.9375 -4.015625 L 4.34375 -6.328125 L 5.609375 -6.328125 L 3.546875 -3.203125 L 5.671875 0 L 4.421875 0 L 2.96875 -2.375 L 1.5 0 L 0.234375 0 L 2.375 -3.203125 L 0.296875 -6.328125 L 1.5625 -6.328125 Z M 2.9375 -4.015625 "/></g></g><g transform="translate(364.019225, 497.210736)"><g><path d="M 2 0 L 0.90625 0 L 0.90625 -6.328125 L 2 -6.328125 Z M 0.828125 -8.015625 C 0.828125 -8.191406 0.878906 -8.335938 0.984375 -8.453125 C 1.085938 -8.578125 1.242188 -8.640625 1.453125 -8.640625 C 1.671875 -8.640625 1.832031 -8.578125 1.9375 -8.453125 C 2.050781 -8.335938 2.109375 -8.191406 2.109375 -8.015625 C 2.109375 -7.835938 2.050781 -7.6875 1.9375 -7.5625 C 1.832031 -7.445312 1.671875 -7.390625 1.453125 -7.390625 C 1.242188 -7.390625 1.085938 -7.445312 0.984375 -7.5625 C 0.878906 -7.6875 0.828125 -7.835938 0.828125 -8.015625 Z M 0.828125 -8.015625 "/></g></g><g transform="translate(366.927026, 497.210736)"><g><path d="M 2.28125 -7.859375 L 2.28125 -6.328125 L 3.46875 -6.328125 L 3.46875 -5.5 L 2.28125 -5.5 L 2.28125 -1.5625 C 2.28125 -1.3125 2.332031 -1.125 2.4375 -1 C 2.550781 -0.875 2.734375 -0.8125 2.984375 -0.8125 C 3.109375 -0.8125 3.28125 -0.832031 3.5 -0.875 L 3.5 0 C 3.21875 0.0703125 2.941406 0.109375 2.671875 0.109375 C 2.179688 0.109375 1.8125 -0.0351562 1.5625 -0.328125 C 1.320312 -0.617188 1.203125 -1.03125 1.203125 -1.5625 L 1.203125 -5.5 L 0.046875 -5.5 L 0.046875 -6.328125 L 1.203125 -6.328125 L 1.203125 -7.859375 Z M 2.28125 -7.859375 "/></g></g><g transform="translate(370.841149, 497.210736)"><g/></g><g transform="translate(373.807458, 497.210736)"><g><path d="M 6.296875 0 L 0.703125 0 L 0.703125 -0.78125 L 3.65625 -4.0625 C 4.09375 -4.550781 4.394531 -4.953125 4.5625 -5.265625 C 4.726562 -5.578125 4.8125 -5.894531 4.8125 -6.21875 C 4.8125 -6.664062 4.675781 -7.03125 4.40625 -7.3125 C 4.132812 -7.601562 3.773438 -7.75 3.328125 -7.75 C 2.785156 -7.75 2.363281 -7.59375 2.0625 -7.28125 C 1.769531 -6.976562 1.625 -6.554688 1.625 -6.015625 L 0.546875 -6.015625 C 0.546875 -6.796875 0.796875 -7.425781 1.296875 -7.90625 C 1.804688 -8.394531 2.484375 -8.640625 3.328125 -8.640625 C 4.117188 -8.640625 4.742188 -8.429688 5.203125 -8.015625 C 5.671875 -7.597656 5.90625 -7.046875 5.90625 -6.359375 C 5.90625 -5.515625 5.367188 -4.515625 4.296875 -3.359375 L 2.015625 -0.890625 L 6.296875 -0.890625 Z M 6.296875 0 "/></g></g></g><g fill="#000000" fill-opacity="1"><g transform="translate(594.33064, 497.210736)"><g><path d="M 5.8125 -3.9375 L 2.109375 -3.9375 L 2.109375 -0.921875 L 6.40625 -0.921875 L 6.40625 0 L 0.984375 0 L 0.984375 -8.515625 L 6.34375 -8.515625 L 6.34375 -7.59375 L 2.109375 -7.59375 L 2.109375 -4.859375 L 5.8125 -4.859375 Z M 5.8125 -3.9375 "/></g></g><g transform="translate(601.140863, 497.210736)"><g><path d="M 2.9375 -4.015625 L 4.34375 -6.328125 L 5.609375 -6.328125 L 3.546875 -3.203125 L 5.671875 0 L 4.421875 0 L 2.96875 -2.375 L 1.5 0 L 0.234375 0 L 2.375 -3.203125 L 0.296875 -6.328125 L 1.5625 -6.328125 Z M 2.9375 -4.015625 "/></g></g><g transform="translate(607.07933, 497.210736)"><g><path d="M 2 0 L 0.90625 0 L 0.90625 -6.328125 L 2 -6.328125 Z M 0.828125 -8.015625 C 0.828125 -8.191406 0.878906 -8.335938 0.984375 -8.453125 C 1.085938 -8.578125 1.242188 -8.640625 1.453125 -8.640625 C 1.671875 -8.640625 1.832031 -8.578125 1.9375 -8.453125 C 2.050781 -8.335938 2.109375 -8.191406 2.109375 -8.015625 C 2.109375 -7.835938 2.050781 -7.6875 1.9375 -7.5625 C 1.832031 -7.445312 1.671875 -7.390625 1.453125 -7.390625 C 1.242188 -7.390625 1.085938 -7.445312 0.984375 -7.5625 C 0.878906 -7.6875 0.828125 -7.835938 0.828125 -8.015625 Z M 0.828125 -8.015625 "/></g></g><g transform="translate(609.987132, 497.210736)"><g><path d="M 2.28125 -7.859375 L 2.28125 -6.328125 L 3.46875 -6.328125 L 3.46875 -5.5 L 2.28125 -5.5 L 2.28125 -1.5625 C 2.28125 -1.3125 2.332031 -1.125 2.4375 -1 C 2.550781 -0.875 2.734375 -0.8125 2.984375 -0.8125 C 3.109375 -0.8125 3.28125 -0.832031 3.5 -0.875 L 3.5 0 C 3.21875 0.0703125 2.941406 0.109375 2.671875 0.109375 C 2.179688 0.109375 1.8125 -0.0351562 1.5625 -0.328125 C 1.320312 -0.617188 1.203125 -1.03125 1.203125 -1.5625 L 1.203125 -5.5 L 0.046875 -5.5 L 0.046875 -6.328125 L 1.203125 -6.328125 L 1.203125 -7.859375 Z M 2.28125 -7.859375 "/></g></g><g transform="translate(613.901255, 497.210736)"><g/></g><g transform="translate(616.867563, 497.210736)"><g><path d="M 2.28125 -4.78125 L 3.09375 -4.78125 C 3.601562 -4.789062 4.003906 -4.925781 4.296875 -5.1875 C 4.585938 -5.445312 4.734375 -5.800781 4.734375 -6.25 C 4.734375 -7.25 4.238281 -7.75 3.25 -7.75 C 2.78125 -7.75 2.40625 -7.613281 2.125 -7.34375 C 1.84375 -7.082031 1.703125 -6.726562 1.703125 -6.28125 L 0.625 -6.28125 C 0.625 -6.957031 0.867188 -7.519531 1.359375 -7.96875 C 1.859375 -8.414062 2.488281 -8.640625 3.25 -8.640625 C 4.050781 -8.640625 4.679688 -8.425781 5.140625 -8 C 5.597656 -7.570312 5.828125 -6.976562 5.828125 -6.21875 C 5.828125 -5.851562 5.707031 -5.492188 5.46875 -5.140625 C 5.226562 -4.796875 4.898438 -4.539062 4.484375 -4.375 C 4.953125 -4.226562 5.3125 -3.984375 5.5625 -3.640625 C 5.820312 -3.296875 5.953125 -2.875 5.953125 -2.375 C 5.953125 -1.613281 5.703125 -1.007812 5.203125 -0.5625 C 4.703125 -0.113281 4.050781 0.109375 3.25 0.109375 C 2.445312 0.109375 1.796875 -0.101562 1.296875 -0.53125 C 0.796875 -0.96875 0.546875 -1.539062 0.546875 -2.25 L 1.640625 -2.25 C 1.640625 -1.800781 1.785156 -1.441406 2.078125 -1.171875 C 2.367188 -0.898438 2.757812 -0.765625 3.25 -0.765625 C 3.769531 -0.765625 4.171875 -0.898438 4.453125 -1.171875 C 4.734375 -1.441406 4.875 -1.835938 4.875 -2.359375 C 4.875 -2.847656 4.71875 -3.222656 4.40625 -3.484375 C 4.101562 -3.753906 3.664062 -3.894531 3.09375 -3.90625 L 2.28125 -3.90625 Z M 2.28125 -4.78125 "/></g></g></g><g fill="#000000" fill-opacity="1"><g transform="translate(564.123085, 73.19785)"><g><path d="M 6.875 -7.59375 L 4.140625 -7.59375 L 4.140625 0 L 3.015625 0 L 3.015625 -7.59375 L 0.28125 -7.59375 L 0.28125 -8.515625 L 6.875 -8.515625 Z M 6.875 -7.59375 "/></g></g></g><g fill="#000000" fill-opacity="1"><g transform="translate(570.693429, 73.19785)"><g><path d="M 0.53125 -3.21875 C 0.53125 -3.84375 0.648438 -4.398438 0.890625 -4.890625 C 1.140625 -5.390625 1.476562 -5.773438 1.90625 -6.046875 C 2.34375 -6.316406 2.84375 -6.453125 3.40625 -6.453125 C 4.269531 -6.453125 4.96875 -6.148438 5.5 -5.546875 C 6.03125 -4.953125 6.296875 -4.160156 6.296875 -3.171875 L 6.296875 -3.09375 C 6.296875 -2.476562 6.175781 -1.925781 5.9375 -1.4375 C 5.707031 -0.945312 5.367188 -0.566406 4.921875 -0.296875 C 4.484375 -0.0234375 3.984375 0.109375 3.421875 0.109375 C 2.554688 0.109375 1.859375 -0.1875 1.328125 -0.78125 C 0.796875 -1.375 0.53125 -2.160156 0.53125 -3.140625 Z M 1.625 -3.09375 C 1.625 -2.394531 1.785156 -1.832031 2.109375 -1.40625 C 2.429688 -0.976562 2.867188 -0.765625 3.421875 -0.765625 C 3.972656 -0.765625 4.410156 -0.976562 4.734375 -1.40625 C 5.054688 -1.84375 5.21875 -2.445312 5.21875 -3.21875 C 5.21875 -3.914062 5.050781 -4.476562 4.71875 -4.90625 C 4.382812 -5.34375 3.945312 -5.5625 3.40625 -5.5625 C 2.875 -5.5625 2.441406 -5.347656 2.109375 -4.921875 C 1.785156 -4.492188 1.625 -3.882812 1.625 -3.09375 Z M 1.625 -3.09375 "/></g></g><g transform="translate(577.527055, 73.19785)"><g><path d="M 2 0 L 0.90625 0 L 0.90625 -6.328125 L 2 -6.328125 Z M 0.828125 -8.015625 C 0.828125 -8.191406 0.878906 -8.335938 0.984375 -8.453125 C 1.085938 -8.578125 1.242188 -8.640625 1.453125 -8.640625 C 1.671875 -8.640625 1.832031 -8.578125 1.9375 -8.453125 C 2.050781 -8.335938 2.109375 -8.191406 2.109375 -8.015625 C 2.109375 -7.835938 2.050781 -7.6875 1.9375 -7.5625 C 1.832031 -7.445312 1.671875 -7.390625 1.453125 -7.390625 C 1.242188 -7.390625 1.085938 -7.445312 0.984375 -7.5625 C 0.878906 -7.6875 0.828125 -7.835938 0.828125 -8.015625 Z M 0.828125 -8.015625 "/></g></g><g transform="translate(580.434856, 73.19785)"><g><path d="M 2 0 L 0.90625 0 L 0.90625 -8.984375 L 2 -8.984375 Z M 2 0 "/></g></g><g transform="translate(583.342658, 73.19785)"><g><path d="M 3.453125 0.109375 C 2.585938 0.109375 1.882812 -0.171875 1.34375 -0.734375 C 0.8125 -1.296875 0.546875 -2.046875 0.546875 -2.984375 L 0.546875 -3.1875 C 0.546875 -3.8125 0.664062 -4.367188 0.90625 -4.859375 C 1.144531 -5.359375 1.476562 -5.75 1.90625 -6.03125 C 2.34375 -6.3125 2.8125 -6.453125 3.3125 -6.453125 C 4.132812 -6.453125 4.773438 -6.179688 5.234375 -5.640625 C 5.691406 -5.097656 5.921875 -4.320312 5.921875 -3.3125 L 5.921875 -2.859375 L 1.625 -2.859375 C 1.644531 -2.234375 1.828125 -1.726562 2.171875 -1.34375 C 2.523438 -0.957031 2.96875 -0.765625 3.5 -0.765625 C 3.882812 -0.765625 4.207031 -0.84375 4.46875 -1 C 4.738281 -1.15625 4.972656 -1.363281 5.171875 -1.625 L 5.828125 -1.109375 C 5.296875 -0.296875 4.503906 0.109375 3.453125 0.109375 Z M 3.3125 -5.5625 C 2.875 -5.5625 2.503906 -5.398438 2.203125 -5.078125 C 1.910156 -4.765625 1.726562 -4.320312 1.65625 -3.75 L 4.828125 -3.75 L 4.828125 -3.828125 C 4.796875 -4.378906 4.644531 -4.804688 4.375 -5.109375 C 4.113281 -5.410156 3.757812 -5.5625 3.3125 -5.5625 Z M 3.3125 -5.5625 "/></g></g><g transform="translate(589.690675, 73.19785)"><g><path d="M 2.28125 -7.859375 L 2.28125 -6.328125 L 3.46875 -6.328125 L 3.46875 -5.5 L 2.28125 -5.5 L 2.28125 -1.5625 C 2.28125 -1.3125 2.332031 -1.125 2.4375 -1 C 2.550781 -0.875 2.734375 -0.8125 2.984375 -0.8125 C 3.109375 -0.8125 3.28125 -0.832031 3.5 -0.875 L 3.5 0 C 3.21875 0.0703125 2.941406 0.109375 2.671875 0.109375 C 2.179688 0.109375 1.8125 -0.0351562 1.5625 -0.328125 C 1.320312 -0.617188 1.203125 -1.03125 1.203125 -1.5625 L 1.203125 -5.5 L 0.046875 -5.5 L 0.046875 -6.328125 L 1.203125 -6.328125 L 1.203125 -7.859375 Z M 2.28125 -7.859375 "/></g></g></g></svg>