<svg xmlns="http://www.w3.org/2000/svg" xmlns:xlink="http://www.w3.org/1999/xlink" width="1600" zoomAndPan="magnify" viewBox="0 0 1200 675.000002" height="900" preserveAspectRatio="xMidYMid meet" version="1.0"><defs><g/><clipPath id="e291e848e6"><path d="M 0.886719 0 L 1199.113281 0 L 1199.113281 674 L 0.886719 674 Z M 0.886719 0 " clip-rule="nonzero"/></clipPath><clipPath id="e29f3f81db"><path d="M 338.878906 119.332031 L 861.449219 119.332031 L 861.449219 356.066406 L 338.878906 356.066406 Z M 338.878906 119.332031 " clip-rule="nonzero"/></clipPath><clipPath id="8b5fe2eb74"><path d="M 0.878906 0.332031 L 523.449219 0.332031 L 523.449219 237.066406 L 0.878906 237.066406 Z M 0.878906 0.332031 " clip-rule="nonzero"/></clipPath><clipPath id="f31e7c800e"><rect x="0" width="524" y="0" height="238"/></clipPath><clipPath id="d45bdfd49c"><path d="M 872.296875 119.6875 L 960.148438 119.6875 L 960.148438 417.753906 L 872.296875 417.753906 Z M 872.296875 119.6875 " clip-rule="nonzero"/></clipPath><clipPath id="3b1a52fb82"><path d="M 0.296875 0.6875 L 88.148438 0.6875 L 88.148438 298.753906 L 0.296875 298.753906 Z M 0.296875 0.6875 " clip-rule="nonzero"/></clipPath><clipPath id="ef7096696a"><rect x="0" width="89" y="0" height="299"/></clipPath><clipPath id="d8560e158c"><path d="M 301.320312 373.070312 L 875.609375 373.070312 L 875.609375 418.035156 L 301.320312 418.035156 Z M 301.320312 373.070312 " clip-rule="nonzero"/></clipPath><clipPath id="ce974426da"><path d="M 0.320312 0.0703125 L 574.609375 0.0703125 L 574.609375 45.035156 L 0.320312 45.035156 Z M 0.320312 0.0703125 " clip-rule="nonzero"/></clipPath><clipPath id="48c4d67992"><rect x="0" width="575" y="0" height="46"/></clipPath><clipPath id="099463a400"><path d="M 336.96875 373.070312 L 863.144531 373.070312 L 863.144531 490.324219 L 336.96875 490.324219 Z M 336.96875 373.070312 " clip-rule="nonzero"/></clipPath><clipPath id="b4dfed6ab3"><path d="M 0.96875 0.0703125 L 527.144531 0.0703125 L 527.144531 117.324219 L 0.96875 117.324219 Z M 0.96875 0.0703125 " clip-rule="nonzero"/></clipPath><clipPath id="e5abd72cd1"><rect x="0" width="528" y="0" height="118"/></clipPath><clipPath id="959e92d518"><path d="M 242.023438 119.332031 L 322.273438 119.332031 L 322.273438 417.398438 L 242.023438 417.398438 Z M 242.023438 119.332031 " clip-rule="nonzero"/></clipPath><clipPath id="a07abf9a43"><path d="M 0.0234375 0.332031 L 80.273438 0.332031 L 80.273438 298.398438 L 0.0234375 298.398438 Z M 0.0234375 0.332031 " clip-rule="nonzero"/></clipPath><clipPath id="05192e4ef3"><rect x="0" width="81" y="0" height="299"/></clipPath><clipPath id="e165f65979"><rect x="0" width="56" y="0" height="22"/></clipPath><clipPath id="ea48424a81"><rect x="0" width="47" y="0" height="22"/></clipPath><clipPath id="16637f68a6"><rect x="0" width="46" y="0" height="22"/></clipPath><clipPath id="f6cb3a3b4f"><path d="M 258.519531 435.539062 L 935.65625 435.539062 L 935.65625 552.792969 L 258.519531 552.792969 Z M 258.519531 435.539062 " clip-rule="nonzero"/></clipPath><clipPath id="6d2eb7ac36"><path d="M 0.519531 0.539062 L 677.65625 0.539062 L 677.65625 117.792969 L 0.519531 117.792969 Z M 0.519531 0.539062 " clip-rule="nonzero"/></clipPath><clipPath id="31e6d5d29d"><rect x="0" width="678" y="0" height="118"/></clipPath><clipPath id="8428615813"><path d="M 257.566406 483.570312 L 327.976562 483.570312 L 327.976562 556.292969 L 257.566406 556.292969 Z M 257.566406 483.570312 " clip-rule="nonzero"/></clipPath><clipPath id="085bf89ab0"><path d="M 0.566406 0.570312 L 70.976562 0.570312 L 70.976562 73.292969 L 0.566406 73.292969 Z M 0.566406 0.570312 " clip-rule="nonzero"/></clipPath><clipPath id="078ced4da7"><rect x="0" width="71" y="0" height="74"/></clipPath><clipPath id="d056aeab96"><path d="M 257.578125 483.570312 L 327.972656 483.570312 L 327.972656 556.210938 L 257.578125 556.210938 Z M 257.578125 483.570312 " clip-rule="nonzero"/></clipPath><clipPath id="f0aef42527"><rect x="0" width="89" y="0" height="47"/></clipPath><clipPath id="f12b35d3c4"><path d="M 10.230469 9.035156 L 80.640625 9.035156 L 80.640625 81.757812 L 10.230469 81.757812 Z M 10.230469 9.035156 " clip-rule="nonzero"/></clipPath><clipPath id="42d08d4739"><path d="M 0.230469 0.0351562 L 70.640625 0.0351562 L 70.640625 72.757812 L 0.230469 72.757812 Z M 0.230469 0.0351562 " clip-rule="nonzero"/></clipPath><clipPath id="fc82bb1a42"><rect x="0" width="71" y="0" height="73"/></clipPath><clipPath id="b9606801f0"><path d="M 10.4375 9.039062 L 80.640625 9.039062 L 80.640625 81.746094 L 10.4375 81.746094 Z M 10.4375 9.039062 " clip-rule="nonzero"/></clipPath><clipPath id="0b5b75aab5"><path d="M 34 0.976562 L 57 0.976562 L 57 89.164062 L 34 89.164062 Z M 34 0.976562 " clip-rule="nonzero"/></clipPath><clipPath id="05eccedc98"><rect x="0" width="89" y="0" height="90"/></clipPath><clipPath id="2becbc6075"><path d="M 376.320312 310.570312 L 424.640625 310.570312 L 424.640625 373.070312 L 376.320312 373.070312 Z M 376.320312 310.570312 " clip-rule="nonzero"/></clipPath><clipPath id="d2e2d43303"><path d="M 0.320312 0.570312 L 48.640625 0.570312 L 48.640625 63.070312 L 0.320312 63.070312 Z M 0.320312 0.570312 " clip-rule="nonzero"/></clipPath><clipPath id="06f5125de5"><rect x="0" width="49" y="0" height="64"/></clipPath><clipPath id="734bb7ebb6"><path d="M 770.585938 310.570312 L 812.851562 310.570312 L 812.851562 373.070312 L 770.585938 373.070312 Z M 770.585938 310.570312 " clip-rule="nonzero"/></clipPath><clipPath id="a92a57a1fb"><path d="M 0.585938 0.570312 L 42.851562 0.570312 L 42.851562 63.070312 L 0.585938 63.070312 Z M 0.585938 0.570312 " clip-rule="nonzero"/></clipPath><clipPath id="592a6b35b9"><rect x="0" width="43" y="0" height="64"/></clipPath><clipPath id="ae92a19458"><path d="M 426.539062 453.566406 L 501.488281 453.566406 L 501.488281 570.820312 L 426.539062 570.820312 Z M 426.539062 453.566406 " clip-rule="nonzero"/></clipPath><clipPath id="c0b7f8eab5"><path d="M 0.539062 0.566406 L 75.488281 0.566406 L 75.488281 117.820312 L 0.539062 117.820312 Z M 0.539062 0.566406 " clip-rule="nonzero"/></clipPath><clipPath id="ff74003029"><rect x="0" width="76" y="0" height="118"/></clipPath><clipPath id="fe909a5019"><path d="M 701.945312 452.6875 L 766.660156 452.6875 L 766.660156 569.941406 L 701.945312 569.941406 Z M 701.945312 452.6875 " clip-rule="nonzero"/></clipPath><clipPath id="83830772a5"><path d="M 0.945312 0.6875 L 65.660156 0.6875 L 65.660156 117.941406 L 0.945312 117.941406 Z M 0.945312 0.6875 " clip-rule="nonzero"/></clipPath><clipPath id="222d095acb"><rect x="0" width="66" y="0" height="118"/></clipPath></defs><g clip-path="url(#e291e848e6)"><path fill="#ffffff" d="M 0.886719 0 L 1199.113281 0 L 1199.113281 674 L 0.886719 674 Z M 0.886719 0 " fill-opacity="1" fill-rule="nonzero"/><path fill="#ffffff" d="M 0.886719 0 L 1199.113281 0 L 1199.113281 674 L 0.886719 674 Z M 0.886719 0 " fill-opacity="1" fill-rule="nonzero"/></g><g clip-path="url(#e29f3f81db)"><g transform="matrix(1, 0, 0, 1, 338, 119)"><g clip-path="url(#f31e7c800e)"><g clip-path="url(#8b5fe2eb74)"><path fill="#fff3c2" d="M 0.878906 0.332031 L 523.363281 0.332031 L 523.363281 237.066406 L 0.878906 237.066406 Z M 0.878906 0.332031 " fill-opacity="1" fill-rule="nonzero"/></g></g></g></g><g clip-path="url(#d45bdfd49c)"><g transform="matrix(1, 0, 0, 1, 872, 119)"><g clip-path="url(#ef7096696a)"><g clip-path="url(#3b1a52fb82)"><path fill="#ffd699" d="M 0.296875 0.6875 L 88.148438 0.6875 L 88.148438 298.902344 L 0.296875 298.902344 Z M 0.296875 0.6875 " fill-opacity="1" fill-rule="nonzero"/></g></g></g></g><g clip-path="url(#d8560e158c)"><g transform="matrix(1, 0, 0, 1, 301, 373)"><g clip-path="url(#48c4d67992)"><g clip-path="url(#ce974426da)"><path fill="#d9d9d9" d="M 0.320312 0.0703125 L 574.523438 0.0703125 L 574.523438 45.035156 L 0.320312 45.035156 Z M 0.320312 0.0703125 " fill-opacity="1" fill-rule="nonzero"/></g></g></g></g><g clip-path="url(#099463a400)"><g transform="matrix(1, 0, 0, 1, 336, 373)"><g clip-path="url(#e5abd72cd1)"><g clip-path="url(#b4dfed6ab3)"><path fill="#d9d9d9" d="M 0.96875 0.0703125 L 527.234375 0.0703125 L 527.234375 117.324219 L 0.96875 117.324219 Z M 0.96875 0.0703125 " fill-opacity="1" fill-rule="nonzero"/></g></g></g></g><g clip-path="url(#959e92d518)"><g transform="matrix(1, 0, 0, 1, 242, 119)"><g clip-path="url(#05192e4ef3)"><g clip-path="url(#a07abf9a43)"><path fill="#ffd699" d="M 0.0234375 0.332031 L 80.273438 0.332031 L 80.273438 298.460938 L 0.0234375 298.460938 Z M 0.0234375 0.332031 " fill-opacity="1" fill-rule="nonzero"/></g></g></g></g><g transform="matrix(1, 0, 0, 1, 572, 228)"><g clip-path="url(#e165f65979)"><g fill="#000000" fill-opacity="1"><g transform="translate(1.258078, 16.826879)"><g><path d="M 3.140625 -1.359375 L 9.140625 -1.359375 L 9.140625 0 L 1.46875 0 L 1.46875 -12.65625 L 3.140625 -12.65625 Z M 3.140625 -1.359375 "/></g></g></g><g fill="#000000" fill-opacity="1"><g transform="translate(10.829787, 16.826879)"><g><path d="M 2.96875 0 L 1.359375 0 L 1.359375 -9.40625 L 2.96875 -9.40625 Z M 1.21875 -11.890625 C 1.21875 -12.148438 1.296875 -12.367188 1.453125 -12.546875 C 1.617188 -12.734375 1.859375 -12.828125 2.171875 -12.828125 C 2.484375 -12.828125 2.71875 -12.734375 2.875 -12.546875 C 3.039062 -12.367188 3.125 -12.148438 3.125 -11.890625 C 3.125 -11.628906 3.039062 -11.410156 2.875 -11.234375 C 2.71875 -11.066406 2.484375 -10.984375 2.171875 -10.984375 C 1.859375 -10.984375 1.617188 -11.066406 1.453125 -11.234375 C 1.296875 -11.410156 1.21875 -11.628906 1.21875 -11.890625 Z M 1.21875 -11.890625 "/></g></g></g><g fill="#000000" fill-opacity="1"><g transform="translate(15.14661, 16.826879)"><g><path d="M 9.171875 -4.59375 C 9.171875 -3.15625 8.835938 -2 8.171875 -1.125 C 7.515625 -0.257812 6.632812 0.171875 5.53125 0.171875 C 4.34375 0.171875 3.421875 -0.25 2.765625 -1.09375 L 2.6875 0 L 1.21875 0 L 1.21875 -13.34375 L 2.828125 -13.34375 L 2.828125 -8.375 C 3.472656 -9.175781 4.363281 -9.578125 5.5 -9.578125 C 6.644531 -9.578125 7.539062 -9.144531 8.1875 -8.28125 C 8.84375 -7.414062 9.171875 -6.234375 9.171875 -4.734375 Z M 7.5625 -4.78125 C 7.5625 -5.875 7.347656 -6.71875 6.921875 -7.3125 C 6.503906 -7.914062 5.898438 -8.21875 5.109375 -8.21875 C 4.046875 -8.21875 3.285156 -7.722656 2.828125 -6.734375 L 2.828125 -2.671875 C 3.316406 -1.679688 4.082031 -1.1875 5.125 -1.1875 C 5.894531 -1.1875 6.492188 -1.484375 6.921875 -2.078125 C 7.347656 -2.679688 7.5625 -3.582031 7.5625 -4.78125 Z M 7.5625 -4.78125 "/></g></g></g><g fill="#000000" fill-opacity="1"><g transform="translate(25.12655, 16.826879)"><g><path d="M 5.765625 -7.953125 C 5.515625 -7.992188 5.25 -8.015625 4.96875 -8.015625 C 3.914062 -8.015625 3.203125 -7.566406 2.828125 -6.671875 L 2.828125 0 L 1.21875 0 L 1.21875 -9.40625 L 2.78125 -9.40625 L 2.8125 -8.3125 C 3.332031 -9.15625 4.078125 -9.578125 5.046875 -9.578125 C 5.359375 -9.578125 5.597656 -9.535156 5.765625 -9.453125 Z M 5.765625 -7.953125 "/></g></g></g><g fill="#000000" fill-opacity="1"><g transform="translate(30.798164, 16.826879)"><g><path d="M 7.015625 0 C 6.921875 -0.1875 6.847656 -0.515625 6.796875 -0.984375 C 6.046875 -0.210938 5.15625 0.171875 4.125 0.171875 C 3.195312 0.171875 2.4375 -0.0859375 1.84375 -0.609375 C 1.25 -1.140625 0.953125 -1.804688 0.953125 -2.609375 C 0.953125 -3.585938 1.320312 -4.347656 2.0625 -4.890625 C 2.8125 -5.429688 3.859375 -5.703125 5.203125 -5.703125 L 6.765625 -5.703125 L 6.765625 -6.4375 C 6.765625 -7 6.597656 -7.445312 6.265625 -7.78125 C 5.929688 -8.113281 5.4375 -8.28125 4.78125 -8.28125 C 4.207031 -8.28125 3.722656 -8.132812 3.328125 -7.84375 C 2.941406 -7.550781 2.75 -7.203125 2.75 -6.796875 L 1.140625 -6.796875 C 1.140625 -7.265625 1.304688 -7.71875 1.640625 -8.15625 C 1.972656 -8.59375 2.421875 -8.9375 2.984375 -9.1875 C 3.554688 -9.445312 4.1875 -9.578125 4.875 -9.578125 C 5.957031 -9.578125 6.804688 -9.304688 7.421875 -8.765625 C 8.035156 -8.222656 8.351562 -7.476562 8.375 -6.53125 L 8.375 -2.203125 C 8.375 -1.335938 8.484375 -0.648438 8.703125 -0.140625 L 8.703125 0 Z M 4.359375 -1.21875 C 4.859375 -1.21875 5.332031 -1.347656 5.78125 -1.609375 C 6.238281 -1.867188 6.566406 -2.210938 6.765625 -2.640625 L 6.765625 -4.5625 L 5.515625 -4.5625 C 3.546875 -4.5625 2.5625 -3.984375 2.5625 -2.828125 C 2.5625 -2.328125 2.726562 -1.929688 3.0625 -1.640625 C 3.394531 -1.359375 3.828125 -1.21875 4.359375 -1.21875 Z M 4.359375 -1.21875 "/></g></g></g><g fill="#000000" fill-opacity="1"><g transform="translate(40.474103, 16.826879)"><g><path d="M 5.765625 -7.953125 C 5.515625 -7.992188 5.25 -8.015625 4.96875 -8.015625 C 3.914062 -8.015625 3.203125 -7.566406 2.828125 -6.671875 L 2.828125 0 L 1.21875 0 L 1.21875 -9.40625 L 2.78125 -9.40625 L 2.8125 -8.3125 C 3.332031 -9.15625 4.078125 -9.578125 5.046875 -9.578125 C 5.359375 -9.578125 5.597656 -9.535156 5.765625 -9.453125 Z M 5.765625 -7.953125 "/></g></g></g><g fill="#000000" fill-opacity="1"><g transform="translate(46.649766, 16.826879)"><g><path d="M 4.296875 -2.359375 L 6.484375 -9.40625 L 8.203125 -9.40625 L 4.421875 1.453125 C 3.835938 3.015625 2.910156 3.796875 1.640625 3.796875 L 1.328125 3.765625 L 0.734375 3.65625 L 0.734375 2.359375 L 1.171875 2.390625 C 1.710938 2.390625 2.132812 2.28125 2.4375 2.0625 C 2.738281 1.84375 2.988281 1.441406 3.1875 0.859375 L 3.546875 -0.109375 L 0.1875 -9.40625 L 1.953125 -9.40625 Z M 4.296875 -2.359375 "/></g></g></g></g></g><g transform="matrix(1, 0, 0, 1, 893, 228)"><g clip-path="url(#ea48424a81)"><g fill="#000000" fill-opacity="1"><g transform="translate(1.120277, 16.826879)"><g><path d="M 10.203125 -11.28125 L 6.140625 -11.28125 L 6.140625 0 L 4.484375 0 L 4.484375 -11.28125 L 0.421875 -11.28125 L 0.421875 -12.65625 L 10.203125 -12.65625 Z M 10.203125 -11.28125 "/></g></g></g><g fill="#000000" fill-opacity="1"><g transform="translate(11.734278, 16.826879)"><g><path d="M 0.796875 -4.78125 C 0.796875 -5.707031 0.972656 -6.535156 1.328125 -7.265625 C 1.691406 -8.003906 2.195312 -8.570312 2.84375 -8.96875 C 3.488281 -9.375 4.226562 -9.578125 5.0625 -9.578125 C 6.34375 -9.578125 7.375 -9.132812 8.15625 -8.25 C 8.945312 -7.363281 9.34375 -6.179688 9.34375 -4.703125 L 9.34375 -4.59375 C 9.34375 -3.675781 9.164062 -2.851562 8.8125 -2.125 C 8.46875 -1.40625 7.96875 -0.84375 7.3125 -0.4375 C 6.664062 -0.03125 5.921875 0.171875 5.078125 0.171875 C 3.796875 0.171875 2.757812 -0.269531 1.96875 -1.15625 C 1.1875 -2.039062 0.796875 -3.210938 0.796875 -4.671875 Z M 2.40625 -4.59375 C 2.40625 -3.550781 2.644531 -2.710938 3.125 -2.078125 C 3.613281 -1.453125 4.265625 -1.140625 5.078125 -1.140625 C 5.890625 -1.140625 6.535156 -1.457031 7.015625 -2.09375 C 7.503906 -2.738281 7.75 -3.632812 7.75 -4.78125 C 7.75 -5.8125 7.503906 -6.644531 7.015625 -7.28125 C 6.523438 -7.925781 5.875 -8.25 5.0625 -8.25 C 4.257812 -8.25 3.613281 -7.929688 3.125 -7.296875 C 2.644531 -6.671875 2.40625 -5.769531 2.40625 -4.59375 Z M 2.40625 -4.59375 "/></g></g></g><g fill="#000000" fill-opacity="1"><g transform="translate(21.879247, 16.826879)"><g><path d="M 2.96875 0 L 1.359375 0 L 1.359375 -9.40625 L 2.96875 -9.40625 Z M 1.21875 -11.890625 C 1.21875 -12.148438 1.296875 -12.367188 1.453125 -12.546875 C 1.617188 -12.734375 1.859375 -12.828125 2.171875 -12.828125 C 2.484375 -12.828125 2.71875 -12.734375 2.875 -12.546875 C 3.039062 -12.367188 3.125 -12.148438 3.125 -11.890625 C 3.125 -11.628906 3.039062 -11.410156 2.875 -11.234375 C 2.71875 -11.066406 2.484375 -10.984375 2.171875 -10.984375 C 1.859375 -10.984375 1.617188 -11.066406 1.453125 -11.234375 C 1.296875 -11.410156 1.21875 -11.628906 1.21875 -11.890625 Z M 1.21875 -11.890625 "/></g></g></g><g fill="#000000" fill-opacity="1"><g transform="translate(26.196071, 16.826879)"><g><path d="M 2.96875 0 L 1.359375 0 L 1.359375 -13.34375 L 2.96875 -13.34375 Z M 2.96875 0 "/></g></g></g><g fill="#000000" fill-opacity="1"><g transform="translate(30.512894, 16.826879)"><g><path d="M 5.125 0.171875 C 3.84375 0.171875 2.800781 -0.242188 2 -1.078125 C 1.207031 -1.921875 0.8125 -3.039062 0.8125 -4.4375 L 0.8125 -4.734375 C 0.8125 -5.671875 0.988281 -6.503906 1.34375 -7.234375 C 1.695312 -7.960938 2.191406 -8.535156 2.828125 -8.953125 C 3.472656 -9.367188 4.171875 -9.578125 4.921875 -9.578125 C 6.140625 -9.578125 7.085938 -9.171875 7.765625 -8.359375 C 8.441406 -7.554688 8.78125 -6.40625 8.78125 -4.90625 L 8.78125 -4.234375 L 2.421875 -4.234375 C 2.441406 -3.304688 2.707031 -2.554688 3.21875 -1.984375 C 3.738281 -1.421875 4.398438 -1.140625 5.203125 -1.140625 C 5.773438 -1.140625 6.253906 -1.253906 6.640625 -1.484375 C 7.035156 -1.710938 7.382812 -2.019531 7.6875 -2.40625 L 8.65625 -1.640625 C 7.875 -0.429688 6.695312 0.171875 5.125 0.171875 Z M 4.921875 -8.25 C 4.265625 -8.25 3.71875 -8.015625 3.28125 -7.546875 C 2.84375 -7.078125 2.570312 -6.414062 2.46875 -5.5625 L 7.171875 -5.5625 L 7.171875 -5.6875 C 7.128906 -6.5 6.910156 -7.128906 6.515625 -7.578125 C 6.117188 -8.023438 5.585938 -8.25 4.921875 -8.25 Z M 4.921875 -8.25 "/></g></g></g><g fill="#000000" fill-opacity="1"><g transform="translate(39.936945, 16.826879)"><g><path d="M 3.390625 -11.671875 L 3.390625 -9.40625 L 5.15625 -9.40625 L 5.15625 -8.15625 L 3.390625 -8.15625 L 3.390625 -2.328125 C 3.390625 -1.953125 3.46875 -1.671875 3.625 -1.484375 C 3.78125 -1.296875 4.050781 -1.203125 4.4375 -1.203125 C 4.613281 -1.203125 4.867188 -1.234375 5.203125 -1.296875 L 5.203125 0 C 4.773438 0.113281 4.363281 0.171875 3.96875 0.171875 C 3.25 0.171875 2.707031 -0.0390625 2.34375 -0.46875 C 1.976562 -0.90625 1.796875 -1.523438 1.796875 -2.328125 L 1.796875 -8.15625 L 0.078125 -8.15625 L 0.078125 -9.40625 L 1.796875 -9.40625 L 1.796875 -11.671875 Z M 3.390625 -11.671875 "/></g></g></g></g></g><g transform="matrix(1, 0, 0, 1, 263, 228)"><g clip-path="url(#16637f68a6)"><g fill="#000000" fill-opacity="1"><g transform="translate(0.582615, 16.826879)"><g><path d="M 10.203125 -11.28125 L 6.140625 -11.28125 L 6.140625 0 L 4.484375 0 L 4.484375 -11.28125 L 0.421875 -11.28125 L 0.421875 -12.65625 L 10.203125 -12.65625 Z M 10.203125 -11.28125 "/></g></g></g><g fill="#000000" fill-opacity="1"><g transform="translate(11.196616, 16.826879)"><g><path d="M 0.796875 -4.78125 C 0.796875 -5.707031 0.972656 -6.535156 1.328125 -7.265625 C 1.691406 -8.003906 2.195312 -8.570312 2.84375 -8.96875 C 3.488281 -9.375 4.226562 -9.578125 5.0625 -9.578125 C 6.34375 -9.578125 7.375 -9.132812 8.15625 -8.25 C 8.945312 -7.363281 9.34375 -6.179688 9.34375 -4.703125 L 9.34375 -4.59375 C 9.34375 -3.675781 9.164062 -2.851562 8.8125 -2.125 C 8.46875 -1.40625 7.96875 -0.84375 7.3125 -0.4375 C 6.664062 -0.03125 5.921875 0.171875 5.078125 0.171875 C 3.796875 0.171875 2.757812 -0.269531 1.96875 -1.15625 C 1.1875 -2.039062 0.796875 -3.210938 0.796875 -4.671875 Z M 2.40625 -4.59375 C 2.40625 -3.550781 2.644531 -2.710938 3.125 -2.078125 C 3.613281 -1.453125 4.265625 -1.140625 5.078125 -1.140625 C 5.890625 -1.140625 6.535156 -1.457031 7.015625 -2.09375 C 7.503906 -2.738281 7.75 -3.632812 7.75 -4.78125 C 7.75 -5.8125 7.503906 -6.644531 7.015625 -7.28125 C 6.523438 -7.925781 5.875 -8.25 5.0625 -8.25 C 4.257812 -8.25 3.613281 -7.929688 3.125 -7.296875 C 2.644531 -6.671875 2.40625 -5.769531 2.40625 -4.59375 Z M 2.40625 -4.59375 "/></g></g></g><g fill="#000000" fill-opacity="1"><g transform="translate(21.341585, 16.826879)"><g><path d="M 2.96875 0 L 1.359375 0 L 1.359375 -9.40625 L 2.96875 -9.40625 Z M 1.21875 -11.890625 C 1.21875 -12.148438 1.296875 -12.367188 1.453125 -12.546875 C 1.617188 -12.734375 1.859375 -12.828125 2.171875 -12.828125 C 2.484375 -12.828125 2.71875 -12.734375 2.875 -12.546875 C 3.039062 -12.367188 3.125 -12.148438 3.125 -11.890625 C 3.125 -11.628906 3.039062 -11.410156 2.875 -11.234375 C 2.71875 -11.066406 2.484375 -10.984375 2.171875 -10.984375 C 1.859375 -10.984375 1.617188 -11.066406 1.453125 -11.234375 C 1.296875 -11.410156 1.21875 -11.628906 1.21875 -11.890625 Z M 1.21875 -11.890625 "/></g></g></g><g fill="#000000" fill-opacity="1"><g transform="translate(25.658409, 16.826879)"><g><path d="M 2.96875 0 L 1.359375 0 L 1.359375 -13.34375 L 2.96875 -13.34375 Z M 2.96875 0 "/></g></g></g><g fill="#000000" fill-opacity="1"><g transform="translate(29.975232, 16.826879)"><g><path d="M 5.125 0.171875 C 3.84375 0.171875 2.800781 -0.242188 2 -1.078125 C 1.207031 -1.921875 0.8125 -3.039062 0.8125 -4.4375 L 0.8125 -4.734375 C 0.8125 -5.671875 0.988281 -6.503906 1.34375 -7.234375 C 1.695312 -7.960938 2.191406 -8.535156 2.828125 -8.953125 C 3.472656 -9.367188 4.171875 -9.578125 4.921875 -9.578125 C 6.140625 -9.578125 7.085938 -9.171875 7.765625 -8.359375 C 8.441406 -7.554688 8.78125 -6.40625 8.78125 -4.90625 L 8.78125 -4.234375 L 2.421875 -4.234375 C 2.441406 -3.304688 2.707031 -2.554688 3.21875 -1.984375 C 3.738281 -1.421875 4.398438 -1.140625 5.203125 -1.140625 C 5.773438 -1.140625 6.253906 -1.253906 6.640625 -1.484375 C 7.035156 -1.710938 7.382812 -2.019531 7.6875 -2.40625 L 8.65625 -1.640625 C 7.875 -0.429688 6.695312 0.171875 5.125 0.171875 Z M 4.921875 -8.25 C 4.265625 -8.25 3.71875 -8.015625 3.28125 -7.546875 C 2.84375 -7.078125 2.570312 -6.414062 2.46875 -5.5625 L 7.171875 -5.5625 L 7.171875 -5.6875 C 7.128906 -6.5 6.910156 -7.128906 6.515625 -7.578125 C 6.117188 -8.023438 5.585938 -8.25 4.921875 -8.25 Z M 4.921875 -8.25 "/></g></g></g><g fill="#000000" fill-opacity="1"><g transform="translate(39.399283, 16.826879)"><g><path d="M 3.390625 -11.671875 L 3.390625 -9.40625 L 5.15625 -9.40625 L 5.15625 -8.15625 L 3.390625 -8.15625 L 3.390625 -2.328125 C 3.390625 -1.953125 3.46875 -1.671875 3.625 -1.484375 C 3.78125 -1.296875 4.050781 -1.203125 4.4375 -1.203125 C 4.613281 -1.203125 4.867188 -1.234375 5.203125 -1.296875 L 5.203125 0 C 4.773438 0.113281 4.363281 0.171875 3.96875 0.171875 C 3.25 0.171875 2.707031 -0.0390625 2.34375 -0.46875 C 1.976562 -0.90625 1.796875 -1.523438 1.796875 -2.328125 L 1.796875 -8.15625 L 0.078125 -8.15625 L 0.078125 -9.40625 L 1.796875 -9.40625 L 1.796875 -11.671875 Z M 3.390625 -11.671875 "/></g></g></g></g></g><g clip-path="url(#f6cb3a3b4f)"><g transform="matrix(1, 0, 0, 1, 258, 435)"><g clip-path="url(#31e6d5d29d)"><g clip-path="url(#6d2eb7ac36)"><path fill="#d9d9d9" d="M 0.519531 0.539062 L 677.472656 0.539062 L 677.472656 117.792969 L 0.519531 117.792969 Z M 0.519531 0.539062 " fill-opacity="1" fill-rule="nonzero"/></g></g></g></g><g clip-path="url(#8428615813)"><g transform="matrix(1, 0, 0, 1, 257, 483)"><g clip-path="url(#078ced4da7)"><g clip-path="url(#085bf89ab0)"><path fill="#ffffff" d="M 70.976562 0.570312 L 70.976562 73.179688 L 0.566406 73.179688 L 0.566406 0.570312 Z M 70.976562 0.570312 " fill-opacity="1" fill-rule="nonzero"/></g></g></g></g><g clip-path="url(#d056aeab96)"><path stroke-linecap="butt" transform="matrix(0, 0.74889, -0.74889, 0, 327.975387, 483.569977)" fill="none" stroke-linejoin="miter" d="M 0.000447609 0.00364689 L 97.092001 0.00364689 L 97.092001 94.012515 L 0.000447609 94.012515 Z M 0.000447609 0.00364689 " stroke="#000000" stroke-width="4" stroke-opacity="1" stroke-miterlimit="4"/></g><g fill="#000000" fill-opacity="1"><g transform="translate(278.348901, 517.960433)"><g/></g></g><path stroke-linecap="butt" transform="matrix(0.00133569, 0.748889, -0.748889, 0.00133569, 293.394636, 485.127622)" fill="none" stroke-linejoin="miter" d="M -0.0000710619 1.001623 L 95.026077 0.998978 " stroke="#000000" stroke-width="2" stroke-opacity="1" stroke-miterlimit="4"/><path stroke-linecap="butt" transform="matrix(0, 0.748891, -0.748891, 0, 284.725909, 485.126375)" fill="none" stroke-linejoin="miter" d="M -0.00183666 1.000609 L 92.238784 1.000609 " stroke="#000000" stroke-width="2" stroke-opacity="1" stroke-miterlimit="4"/><path stroke-linecap="butt" transform="matrix(0.00000000130706, 0.748891, -0.748891, 0.00000000130706, 276.050246, 485.660256)" fill="none" stroke-linejoin="miter" d="M -0.000133865 1.000767 L 91.531104 1.000767 " stroke="#000000" stroke-width="2" stroke-opacity="1" stroke-miterlimit="4"/><path stroke-linecap="butt" transform="matrix(0, 0.748891, -0.748891, 0, 267.625666, 483.569091)" fill="none" stroke-linejoin="miter" d="M 0.00163161 1.002371 L 94.31824 1.002371 " stroke="#000000" stroke-width="2" stroke-opacity="1" stroke-miterlimit="4"/><g transform="matrix(1, 0, 0, 1, 558, 445)"><g clip-path="url(#f0aef42527)"><g fill="#000000" fill-opacity="1"><g transform="translate(1.108704, 17.29867)"><g><path d="M 1.46875 0 L 1.46875 -12.65625 L 5.046875 -12.65625 C 6.140625 -12.65625 7.109375 -12.410156 7.953125 -11.921875 C 8.804688 -11.429688 9.460938 -10.738281 9.921875 -9.84375 C 10.378906 -8.945312 10.613281 -7.914062 10.625 -6.75 L 10.625 -5.9375 C 10.625 -4.75 10.390625 -3.703125 9.921875 -2.796875 C 9.460938 -1.898438 8.804688 -1.210938 7.953125 -0.734375 C 7.097656 -0.253906 6.101562 -0.0078125 4.96875 0 Z M 3.140625 -11.28125 L 3.140625 -1.359375 L 4.890625 -1.359375 C 6.179688 -1.359375 7.179688 -1.757812 7.890625 -2.5625 C 8.609375 -3.363281 8.96875 -4.503906 8.96875 -5.984375 L 8.96875 -6.71875 C 8.96875 -8.15625 8.628906 -9.269531 7.953125 -10.0625 C 7.273438 -10.863281 6.316406 -11.269531 5.078125 -11.28125 Z M 3.140625 -11.28125 "/></g></g></g><g fill="#000000" fill-opacity="1"><g transform="translate(12.773682, 17.29867)"><g><path d="M 2.96875 0 L 1.359375 0 L 1.359375 -9.40625 L 2.96875 -9.40625 Z M 1.21875 -11.890625 C 1.21875 -12.148438 1.296875 -12.367188 1.453125 -12.546875 C 1.617188 -12.734375 1.859375 -12.828125 2.171875 -12.828125 C 2.484375 -12.828125 2.71875 -12.734375 2.875 -12.546875 C 3.039062 -12.367188 3.125 -12.148438 3.125 -11.890625 C 3.125 -11.628906 3.039062 -11.410156 2.875 -11.234375 C 2.71875 -11.066406 2.484375 -10.984375 2.171875 -10.984375 C 1.859375 -10.984375 1.617188 -11.066406 1.453125 -11.234375 C 1.296875 -11.410156 1.21875 -11.628906 1.21875 -11.890625 Z M 1.21875 -11.890625 "/></g></g></g><g fill="#000000" fill-opacity="1"><g transform="translate(17.090505, 17.29867)"><g><path d="M 6.6875 -2.5 C 6.6875 -2.925781 6.519531 -3.257812 6.1875 -3.5 C 5.863281 -3.738281 5.296875 -3.945312 4.484375 -4.125 C 3.671875 -4.300781 3.023438 -4.507812 2.546875 -4.75 C 2.066406 -5 1.710938 -5.289062 1.484375 -5.625 C 1.253906 -5.957031 1.140625 -6.359375 1.140625 -6.828125 C 1.140625 -7.597656 1.46875 -8.25 2.125 -8.78125 C 2.78125 -9.3125 3.613281 -9.578125 4.625 -9.578125 C 5.6875 -9.578125 6.550781 -9.300781 7.21875 -8.75 C 7.882812 -8.195312 8.21875 -7.492188 8.21875 -6.640625 L 6.59375 -6.640625 C 6.59375 -7.078125 6.40625 -7.453125 6.03125 -7.765625 C 5.65625 -8.085938 5.1875 -8.25 4.625 -8.25 C 4.039062 -8.25 3.582031 -8.117188 3.25 -7.859375 C 2.914062 -7.609375 2.75 -7.28125 2.75 -6.875 C 2.75 -6.488281 2.898438 -6.195312 3.203125 -6 C 3.515625 -5.800781 4.070312 -5.609375 4.875 -5.421875 C 5.675781 -5.242188 6.328125 -5.03125 6.828125 -4.78125 C 7.328125 -4.539062 7.695312 -4.242188 7.9375 -3.890625 C 8.175781 -3.535156 8.296875 -3.109375 8.296875 -2.609375 C 8.296875 -1.765625 7.957031 -1.085938 7.28125 -0.578125 C 6.613281 -0.078125 5.742188 0.171875 4.671875 0.171875 C 3.921875 0.171875 3.253906 0.0390625 2.671875 -0.21875 C 2.097656 -0.488281 1.644531 -0.863281 1.3125 -1.34375 C 0.988281 -1.820312 0.828125 -2.335938 0.828125 -2.890625 L 2.4375 -2.890625 C 2.46875 -2.347656 2.679688 -1.921875 3.078125 -1.609375 C 3.484375 -1.296875 4.015625 -1.140625 4.671875 -1.140625 C 5.285156 -1.140625 5.773438 -1.257812 6.140625 -1.5 C 6.503906 -1.75 6.6875 -2.082031 6.6875 -2.5 Z M 6.6875 -2.5 "/></g></g></g><g fill="#000000" fill-opacity="1"><g transform="translate(26.26267, 17.29867)"><g><path d="M 4.984375 -1.140625 C 5.554688 -1.140625 6.054688 -1.3125 6.484375 -1.65625 C 6.921875 -2.007812 7.160156 -2.445312 7.203125 -2.96875 L 8.71875 -2.96875 C 8.695312 -2.425781 8.515625 -1.910156 8.171875 -1.421875 C 7.828125 -0.929688 7.367188 -0.539062 6.796875 -0.25 C 6.222656 0.03125 5.617188 0.171875 4.984375 0.171875 C 3.703125 0.171875 2.679688 -0.253906 1.921875 -1.109375 C 1.171875 -1.960938 0.796875 -3.128906 0.796875 -4.609375 L 0.796875 -4.890625 C 0.796875 -5.796875 0.960938 -6.601562 1.296875 -7.3125 C 1.640625 -8.03125 2.125 -8.585938 2.75 -8.984375 C 3.375 -9.378906 4.117188 -9.578125 4.984375 -9.578125 C 6.035156 -9.578125 6.910156 -9.257812 7.609375 -8.625 C 8.304688 -8 8.675781 -7.179688 8.71875 -6.171875 L 7.203125 -6.171875 C 7.160156 -6.773438 6.929688 -7.269531 6.515625 -7.65625 C 6.097656 -8.050781 5.585938 -8.25 4.984375 -8.25 C 4.160156 -8.25 3.523438 -7.953125 3.078125 -7.359375 C 2.628906 -6.773438 2.40625 -5.929688 2.40625 -4.828125 L 2.40625 -4.515625 C 2.40625 -3.429688 2.628906 -2.597656 3.078125 -2.015625 C 3.523438 -1.429688 4.160156 -1.140625 4.984375 -1.140625 Z M 4.984375 -1.140625 "/></g></g></g><g fill="#000000" fill-opacity="1"><g transform="translate(35.573806, 17.29867)"><g><path d="M 7.015625 -0.9375 C 6.390625 -0.195312 5.472656 0.171875 4.265625 0.171875 C 3.265625 0.171875 2.5 -0.117188 1.96875 -0.703125 C 1.445312 -1.285156 1.1875 -2.144531 1.1875 -3.28125 L 1.1875 -9.40625 L 2.796875 -9.40625 L 2.796875 -3.328125 C 2.796875 -1.898438 3.375 -1.1875 4.53125 -1.1875 C 5.757812 -1.1875 6.578125 -1.644531 6.984375 -2.5625 L 6.984375 -9.40625 L 8.578125 -9.40625 L 8.578125 0 L 7.0625 0 Z M 7.015625 -0.9375 "/></g></g></g><g fill="#000000" fill-opacity="1"><g transform="translate(45.380031, 17.29867)"><g><path d="M 6.6875 -2.5 C 6.6875 -2.925781 6.519531 -3.257812 6.1875 -3.5 C 5.863281 -3.738281 5.296875 -3.945312 4.484375 -4.125 C 3.671875 -4.300781 3.023438 -4.507812 2.546875 -4.75 C 2.066406 -5 1.710938 -5.289062 1.484375 -5.625 C 1.253906 -5.957031 1.140625 -6.359375 1.140625 -6.828125 C 1.140625 -7.597656 1.46875 -8.25 2.125 -8.78125 C 2.78125 -9.3125 3.613281 -9.578125 4.625 -9.578125 C 5.6875 -9.578125 6.550781 -9.300781 7.21875 -8.75 C 7.882812 -8.195312 8.21875 -7.492188 8.21875 -6.640625 L 6.59375 -6.640625 C 6.59375 -7.078125 6.40625 -7.453125 6.03125 -7.765625 C 5.65625 -8.085938 5.1875 -8.25 4.625 -8.25 C 4.039062 -8.25 3.582031 -8.117188 3.25 -7.859375 C 2.914062 -7.609375 2.75 -7.28125 2.75 -6.875 C 2.75 -6.488281 2.898438 -6.195312 3.203125 -6 C 3.515625 -5.800781 4.070312 -5.609375 4.875 -5.421875 C 5.675781 -5.242188 6.328125 -5.03125 6.828125 -4.78125 C 7.328125 -4.539062 7.695312 -4.242188 7.9375 -3.890625 C 8.175781 -3.535156 8.296875 -3.109375 8.296875 -2.609375 C 8.296875 -1.765625 7.957031 -1.085938 7.28125 -0.578125 C 6.613281 -0.078125 5.742188 0.171875 4.671875 0.171875 C 3.921875 0.171875 3.253906 0.0390625 2.671875 -0.21875 C 2.097656 -0.488281 1.644531 -0.863281 1.3125 -1.34375 C 0.988281 -1.820312 0.828125 -2.335938 0.828125 -2.890625 L 2.4375 -2.890625 C 2.46875 -2.347656 2.679688 -1.921875 3.078125 -1.609375 C 3.484375 -1.296875 4.015625 -1.140625 4.671875 -1.140625 C 5.285156 -1.140625 5.773438 -1.257812 6.140625 -1.5 C 6.503906 -1.75 6.6875 -2.082031 6.6875 -2.5 Z M 6.6875 -2.5 "/></g></g></g><g fill="#000000" fill-opacity="1"><g transform="translate(54.552195, 17.29867)"><g><path d="M 6.6875 -2.5 C 6.6875 -2.925781 6.519531 -3.257812 6.1875 -3.5 C 5.863281 -3.738281 5.296875 -3.945312 4.484375 -4.125 C 3.671875 -4.300781 3.023438 -4.507812 2.546875 -4.75 C 2.066406 -5 1.710938 -5.289062 1.484375 -5.625 C 1.253906 -5.957031 1.140625 -6.359375 1.140625 -6.828125 C 1.140625 -7.597656 1.46875 -8.25 2.125 -8.78125 C 2.78125 -9.3125 3.613281 -9.578125 4.625 -9.578125 C 5.6875 -9.578125 6.550781 -9.300781 7.21875 -8.75 C 7.882812 -8.195312 8.21875 -7.492188 8.21875 -6.640625 L 6.59375 -6.640625 C 6.59375 -7.078125 6.40625 -7.453125 6.03125 -7.765625 C 5.65625 -8.085938 5.1875 -8.25 4.625 -8.25 C 4.039062 -8.25 3.582031 -8.117188 3.25 -7.859375 C 2.914062 -7.609375 2.75 -7.28125 2.75 -6.875 C 2.75 -6.488281 2.898438 -6.195312 3.203125 -6 C 3.515625 -5.800781 4.070312 -5.609375 4.875 -5.421875 C 5.675781 -5.242188 6.328125 -5.03125 6.828125 -4.78125 C 7.328125 -4.539062 7.695312 -4.242188 7.9375 -3.890625 C 8.175781 -3.535156 8.296875 -3.109375 8.296875 -2.609375 C 8.296875 -1.765625 7.957031 -1.085938 7.28125 -0.578125 C 6.613281 -0.078125 5.742188 0.171875 4.671875 0.171875 C 3.921875 0.171875 3.253906 0.0390625 2.671875 -0.21875 C 2.097656 -0.488281 1.644531 -0.863281 1.3125 -1.34375 C 0.988281 -1.820312 0.828125 -2.335938 0.828125 -2.890625 L 2.4375 -2.890625 C 2.46875 -2.347656 2.679688 -1.921875 3.078125 -1.609375 C 3.484375 -1.296875 4.015625 -1.140625 4.671875 -1.140625 C 5.285156 -1.140625 5.773438 -1.257812 6.140625 -1.5 C 6.503906 -1.75 6.6875 -2.082031 6.6875 -2.5 Z M 6.6875 -2.5 "/></g></g></g><g fill="#000000" fill-opacity="1"><g transform="translate(63.724359, 17.29867)"><g><path d="M 2.96875 0 L 1.359375 0 L 1.359375 -9.40625 L 2.96875 -9.40625 Z M 1.21875 -11.890625 C 1.21875 -12.148438 1.296875 -12.367188 1.453125 -12.546875 C 1.617188 -12.734375 1.859375 -12.828125 2.171875 -12.828125 C 2.484375 -12.828125 2.71875 -12.734375 2.875 -12.546875 C 3.039062 -12.367188 3.125 -12.148438 3.125 -11.890625 C 3.125 -11.628906 3.039062 -11.410156 2.875 -11.234375 C 2.71875 -11.066406 2.484375 -10.984375 2.171875 -10.984375 C 1.859375 -10.984375 1.617188 -11.066406 1.453125 -11.234375 C 1.296875 -11.410156 1.21875 -11.628906 1.21875 -11.890625 Z M 1.21875 -11.890625 "/></g></g></g><g fill="#000000" fill-opacity="1"><g transform="translate(68.041182, 17.29867)"><g><path d="M 0.796875 -4.78125 C 0.796875 -5.707031 0.972656 -6.535156 1.328125 -7.265625 C 1.691406 -8.003906 2.195312 -8.570312 2.84375 -8.96875 C 3.488281 -9.375 4.226562 -9.578125 5.0625 -9.578125 C 6.34375 -9.578125 7.375 -9.132812 8.15625 -8.25 C 8.945312 -7.363281 9.34375 -6.179688 9.34375 -4.703125 L 9.34375 -4.59375 C 9.34375 -3.675781 9.164062 -2.851562 8.8125 -2.125 C 8.46875 -1.40625 7.96875 -0.84375 7.3125 -0.4375 C 6.664062 -0.03125 5.921875 0.171875 5.078125 0.171875 C 3.796875 0.171875 2.757812 -0.269531 1.96875 -1.15625 C 1.1875 -2.039062 0.796875 -3.210938 0.796875 -4.671875 Z M 2.40625 -4.59375 C 2.40625 -3.550781 2.644531 -2.710938 3.125 -2.078125 C 3.613281 -1.453125 4.265625 -1.140625 5.078125 -1.140625 C 5.890625 -1.140625 6.535156 -1.457031 7.015625 -2.09375 C 7.503906 -2.738281 7.75 -3.632812 7.75 -4.78125 C 7.75 -5.8125 7.503906 -6.644531 7.015625 -7.28125 C 6.523438 -7.925781 5.875 -8.25 5.0625 -8.25 C 4.257812 -8.25 3.613281 -7.929688 3.125 -7.296875 C 2.644531 -6.671875 2.40625 -5.769531 2.40625 -4.59375 Z M 2.40625 -4.59375 "/></g></g></g><g fill="#000000" fill-opacity="1"><g transform="translate(78.186152, 17.29867)"><g><path d="M 2.734375 -9.40625 L 2.796875 -8.21875 C 3.503906 -9.125 4.441406 -9.578125 5.609375 -9.578125 C 7.585938 -9.578125 8.585938 -8.457031 8.609375 -6.21875 L 8.609375 0 L 7 0 L 7 -6.21875 C 7 -6.894531 6.84375 -7.394531 6.53125 -7.71875 C 6.226562 -8.050781 5.757812 -8.21875 5.125 -8.21875 C 4.601562 -8.21875 4.144531 -8.078125 3.75 -7.796875 C 3.351562 -7.515625 3.046875 -7.148438 2.828125 -6.703125 L 2.828125 0 L 1.21875 0 L 1.21875 -9.40625 Z M 2.734375 -9.40625 "/></g></g></g><g fill="#000000" fill-opacity="1"><g transform="translate(29.051378, 41.965306)"><g><path d="M 11.1875 0 L 9.515625 0 L 9.515625 -5.84375 L 3.140625 -5.84375 L 3.140625 0 L 1.46875 0 L 1.46875 -12.65625 L 3.140625 -12.65625 L 3.140625 -7.21875 L 9.515625 -7.21875 L 9.515625 -12.65625 L 11.1875 -12.65625 Z M 11.1875 0 "/></g></g></g><g fill="#000000" fill-opacity="1"><g transform="translate(41.73259, 41.965306)"><g><path d="M 7.015625 0 C 6.921875 -0.1875 6.847656 -0.515625 6.796875 -0.984375 C 6.046875 -0.210938 5.15625 0.171875 4.125 0.171875 C 3.195312 0.171875 2.4375 -0.0859375 1.84375 -0.609375 C 1.25 -1.140625 0.953125 -1.804688 0.953125 -2.609375 C 0.953125 -3.585938 1.320312 -4.347656 2.0625 -4.890625 C 2.8125 -5.429688 3.859375 -5.703125 5.203125 -5.703125 L 6.765625 -5.703125 L 6.765625 -6.4375 C 6.765625 -7 6.597656 -7.445312 6.265625 -7.78125 C 5.929688 -8.113281 5.4375 -8.28125 4.78125 -8.28125 C 4.207031 -8.28125 3.722656 -8.132812 3.328125 -7.84375 C 2.941406 -7.550781 2.75 -7.203125 2.75 -6.796875 L 1.140625 -6.796875 C 1.140625 -7.265625 1.304688 -7.71875 1.640625 -8.15625 C 1.972656 -8.59375 2.421875 -8.9375 2.984375 -9.1875 C 3.554688 -9.445312 4.1875 -9.578125 4.875 -9.578125 C 5.957031 -9.578125 6.804688 -9.304688 7.421875 -8.765625 C 8.035156 -8.222656 8.351562 -7.476562 8.375 -6.53125 L 8.375 -2.203125 C 8.375 -1.335938 8.484375 -0.648438 8.703125 -0.140625 L 8.703125 0 Z M 4.359375 -1.21875 C 4.859375 -1.21875 5.332031 -1.347656 5.78125 -1.609375 C 6.238281 -1.867188 6.566406 -2.210938 6.765625 -2.640625 L 6.765625 -4.5625 L 5.515625 -4.5625 C 3.546875 -4.5625 2.5625 -3.984375 2.5625 -2.828125 C 2.5625 -2.328125 2.726562 -1.929688 3.0625 -1.640625 C 3.394531 -1.359375 3.828125 -1.21875 4.359375 -1.21875 Z M 4.359375 -1.21875 "/></g></g></g><g fill="#000000" fill-opacity="1"><g transform="translate(51.408528, 41.965306)"><g><path d="M 2.96875 0 L 1.359375 0 L 1.359375 -13.34375 L 2.96875 -13.34375 Z M 2.96875 0 "/></g></g></g><g fill="#000000" fill-opacity="1"><g transform="translate(55.725352, 41.965306)"><g><path d="M 2.96875 0 L 1.359375 0 L 1.359375 -13.34375 L 2.96875 -13.34375 Z M 2.96875 0 "/></g></g></g></g></g><path stroke-linecap="butt" transform="matrix(0, 0.748891, -0.748891, 0, 302.06641, 483.570097)" fill="none" stroke-linejoin="miter" d="M 0.000287609 1.001486 L 96.3981 1.001486 " stroke="#000000" stroke-width="2" stroke-opacity="1" stroke-miterlimit="4"/><path stroke-linecap="butt" transform="matrix(0, 0.748891, -0.748891, 0, 310.735372, 485.660256)" fill="none" stroke-linejoin="miter" d="M -0.000133863 0.997597 L 91.531104 0.997597 " stroke="#000000" stroke-width="2" stroke-opacity="1" stroke-miterlimit="4"/><path stroke-linecap="butt" transform="matrix(0, 0.748891, -0.748891, 0, 319.406647, 485.130761)" fill="none" stroke-linejoin="miter" d="M -0.00247661 1.002012 L 91.528762 1.002012 " stroke="#000000" stroke-width="2" stroke-opacity="1" stroke-miterlimit="4"/><g transform="matrix(1, 0, 0, 1, 855, 474)"><g clip-path="url(#05eccedc98)"><g clip-path="url(#f12b35d3c4)"><g transform="matrix(1, 0, 0, 1, 10, 9)"><g clip-path="url(#fc82bb1a42)"><g clip-path="url(#42d08d4739)"><path fill="#ffffff" d="M 70.640625 0.0351562 L 70.640625 72.648438 L 0.230469 72.648438 L 0.230469 0.0351562 Z M 70.640625 0.0351562 " fill-opacity="1" fill-rule="nonzero"/></g></g></g></g><g clip-path="url(#b9606801f0)"><path stroke-linecap="butt" transform="matrix(0, 0.948717, -0.948717, 0, 80.642284, 9.036881)" fill="none" stroke-linejoin="miter" d="M 0.00229908 0.00174843 L 76.639535 0.00174843 L 76.639535 74.201481 L 0.00229908 74.201481 Z M 0.00229908 0.00174843 " stroke="#000000" stroke-width="3.157488" stroke-opacity="1" stroke-miterlimit="4"/></g><g fill="#000000" fill-opacity="1"><g transform="translate(31.109337, 43.427834)"><g/></g></g><g clip-path="url(#0b5b75aab5)"><path stroke-linecap="butt" transform="matrix(0.00169209, 0.948715, -0.948715, 0.00169209, 46.266103, 10.599079)" fill="none" stroke-linejoin="miter" d="M 0.000832703 1.001036 L 75.011815 0.998948 " stroke="#000000" stroke-width="2" stroke-opacity="1" stroke-miterlimit="4"/></g><path stroke-linecap="butt" transform="matrix(0, 0.948717, -0.948717, 0, 37.594888, 10.600717)" fill="none" stroke-linejoin="miter" d="M 0.000891342 1.001729 L 75.011753 1.001729 " stroke="#000000" stroke-width="2" stroke-opacity="1" stroke-miterlimit="4"/><path stroke-linecap="butt" transform="matrix(0.00000000165582, 0.948717, -0.948717, 0.00000000165582, 28.927768, 11.126022)" fill="none" stroke-linejoin="miter" d="M -0.00107773 0.998506 L 72.251123 0.998506 " stroke="#000000" stroke-width="2" stroke-opacity="1" stroke-miterlimit="4"/><path stroke-linecap="butt" transform="matrix(0, 0.948717, -0.948717, 0, 20.493564, 9.044429)" fill="none" stroke-linejoin="miter" d="M -0.00153887 1.00198 L 74.453473 1.00198 " stroke="#000000" stroke-width="2" stroke-opacity="1" stroke-miterlimit="4"/><path stroke-linecap="butt" transform="matrix(0, 0.948717, -0.948717, 0, 54.941826, 9.037964)" fill="none" stroke-linejoin="miter" d="M 0.00115809 1.000971 L 76.094897 1.000971 " stroke="#000000" stroke-width="2" stroke-opacity="1" stroke-miterlimit="4"/><path stroke-linecap="butt" transform="matrix(0, 0.948717, -0.948717, 0, 63.612866, 11.126022)" fill="none" stroke-linejoin="miter" d="M -0.00107773 1.000091 L 72.251123 1.000091 " stroke="#000000" stroke-width="2" stroke-opacity="1" stroke-miterlimit="4"/><path stroke-linecap="butt" transform="matrix(0, 0.948717, -0.948717, 0, 72.279985, 10.600717)" fill="none" stroke-linejoin="miter" d="M 0.000891342 0.999196 L 75.011753 0.999196 " stroke="#000000" stroke-width="2" stroke-opacity="1" stroke-miterlimit="4"/></g></g><path stroke-linecap="butt" transform="matrix(0.00000000130706, 0.748891, -0.748891, 0.00000000130706, 935.449624, 431.701605)" fill="none" stroke-linejoin="miter" d="M 0.00202922 1.002022 L 163.311326 1.002022 " stroke="#000000" stroke-width="2" stroke-opacity="1" stroke-miterlimit="4"/><path stroke-linecap="butt" transform="matrix(0.00000000130706, 0.748891, -0.748891, 0.00000000130706, 259.267727, 432.646166)" fill="none" stroke-linejoin="miter" d="M -0.00218283 0.999073 L 164.8302 0.999073 " stroke="#000000" stroke-width="2" stroke-opacity="1" stroke-miterlimit="4"/><path stroke-linecap="butt" transform="matrix(0, -0.748891, 0.748891, 0, 239.226406, 421.302787)" fill="none" stroke-linejoin="miter" d="M -0.00253723 1.997956 L 403.078127 1.997956 " stroke="#000000" stroke-width="4" stroke-opacity="1" stroke-miterlimit="4"/><path stroke-linecap="butt" transform="matrix(0.000609246, -0.74889, 0.74889, 0.000609246, 224.623554, 569.614093)" fill="none" stroke-linejoin="miter" d="M -0.00250506 1.999681 L 622.882727 1.998901 " stroke="#000000" stroke-width="4" stroke-opacity="1" stroke-miterlimit="4"/><path stroke-linecap="butt" transform="matrix(0.748891, 0, 0, 0.748891, 335.071301, 117.949872)" fill="none" stroke-linejoin="miter" d="M -0.00131999 2.002091 L 701.197442 2.002091 " stroke="#000000" stroke-width="4" stroke-opacity="1" stroke-miterlimit="4"/><path stroke-linecap="butt" transform="matrix(0.748891, 0, 0, 0.748891, 224.63701, 103.343552)" fill="none" stroke-linejoin="miter" d="M -0.000388999 1.998011 L 1001.475915 1.998011 " stroke="#000000" stroke-width="4" stroke-opacity="1" stroke-miterlimit="4"/><path stroke-linecap="butt" transform="matrix(0.748891, 0, 0, 0.748891, 238.766175, 432.143798)" fill="none" stroke-linejoin="miter" d="M -0.000734452 1.998726 L 131.130752 1.998726 " stroke="#000000" stroke-width="4" stroke-opacity="1" stroke-miterlimit="4"/><path stroke-linecap="butt" transform="matrix(0.748891, 0.0000000000000013, -0.0000000000000013, 0.748891, 238.858704, 417.913033)" fill="none" stroke-linejoin="miter" d="M 0.000895538 1.999121 L 131.007197 1.999121 " stroke="#000000" stroke-width="4" stroke-opacity="1" stroke-miterlimit="4"/><path stroke-linecap="butt" transform="matrix(0, -0.748891, 0.748891, 0, 239.227796, 555.755066)" fill="none" stroke-linejoin="miter" d="M 0.00154812 2.001316 L 164.90174 2.001316 " stroke="#000000" stroke-width="4" stroke-opacity="1" stroke-miterlimit="4"/><path stroke-linecap="butt" transform="matrix(0.748891, -0.00000000000000065, 0.00000000000000065, 0.748891, 224.225559, 567.86018)" fill="none" stroke-linejoin="miter" d="M 0.00134019 2.001889 L 270.15098 2.001889 " stroke="#000000" stroke-width="4" stroke-opacity="1" stroke-miterlimit="4"/><path stroke-linecap="butt" transform="matrix(0.748891, 0, 0, 0.748891, 238.775157, 553.887273)" fill="none" stroke-linejoin="miter" d="M -0.00229595 2.002223 L 250.722775 2.002223 " stroke="#000000" stroke-width="4" stroke-opacity="1" stroke-miterlimit="4"/><path stroke-linecap="butt" transform="matrix(0, 0.748891, -0.748891, 0, 426.135878, 553.673845)" fill="none" stroke-linejoin="miter" d="M 0.0025855 2.001841 L 22.895827 2.001841 " stroke="#000000" stroke-width="4" stroke-opacity="1" stroke-miterlimit="4"/><path stroke-linecap="butt" transform="matrix(0, 0.748891, -0.748891, 0, 336.718215, 417.780054)" fill="none" stroke-linejoin="miter" d="M 0.00159651 2.002249 L 23.150425 2.002249 " stroke="#000000" stroke-width="4" stroke-opacity="1" stroke-miterlimit="4"/><path stroke-linecap="butt" transform="matrix(0.00044686, 0.74889, -0.74889, 0.00044686, 338.460878, 117.793563)" fill="none" stroke-linejoin="miter" d="M -0.00198584 1.997666 L 319.079465 2.000283 " stroke="#000000" stroke-width="4" stroke-opacity="1" stroke-miterlimit="4"/><path stroke-linecap="butt" transform="matrix(0, 0.748891, -0.748891, 0, 325.62308, 117.793058)" fill="none" stroke-linejoin="miter" d="M -0.000118643 2.0004 L 336.388135 2.0004 " stroke="#000000" stroke-width="4" stroke-opacity="1" stroke-miterlimit="4"/><path stroke-linecap="butt" transform="matrix(0.748891, -0.000000000000000929, 0.000000000000000929, 0.748891, 238.775157, 118.188486)" fill="none" stroke-linejoin="miter" d="M -0.00229595 2.001646 L 116.508604 2.001646 " stroke="#000000" stroke-width="4" stroke-opacity="1" stroke-miterlimit="4"/><path stroke-linecap="butt" transform="matrix(0.748891, 0, 0, 0.748891, 322.27513, 369.808118)" fill="none" stroke-linejoin="miter" d="M -0.00226003 1.998383 L 72.167002 1.998383 " stroke="#000000" stroke-width="4" stroke-opacity="1" stroke-miterlimit="4"/><path stroke-linecap="butt" transform="matrix(0.748891, -0.000000000000002322, 0.000000000000002322, 0.748891, 335.071301, 355.245095)" fill="none" stroke-linejoin="miter" d="M -0.00131999 1.999081 L 55.080164 1.999081 " stroke="#000000" stroke-width="4" stroke-opacity="1" stroke-miterlimit="4"/><path stroke-linecap="butt" transform="matrix(0.00000000130706, 0.748891, -0.748891, 0.00000000130706, 375.921404, 356.743695)" fill="none" stroke-linejoin="miter" d="M -0.00201351 2.002334 L 21.378574 2.002334 " stroke="#000000" stroke-width="4" stroke-opacity="1" stroke-miterlimit="4"/><path stroke-linecap="butt" transform="matrix(0.74889, -0.000488433, 0.000488433, 0.74889, 424.639655, 369.808089)" fill="none" stroke-linejoin="miter" d="M -0.00000800588 1.998421 L 461.943876 2.00239 " stroke="#000000" stroke-width="4" stroke-opacity="1" stroke-miterlimit="4"/><path stroke-linecap="butt" transform="matrix(0.748891, 0, 0, 0.748891, 424.640661, 354.793858)" fill="none" stroke-linejoin="miter" d="M -0.0000486184 2.001776 L 461.943735 2.001776 " stroke="#000000" stroke-width="4" stroke-opacity="1" stroke-miterlimit="4"/><path stroke-linecap="butt" transform="matrix(0.00000000130706, 0.748891, -0.748891, 0.00000000130706, 770.183868, 356.292458)" fill="none" stroke-linejoin="miter" d="M 0.00068159 1.998113 L 21.376053 1.998113 " stroke="#000000" stroke-width="4" stroke-opacity="1" stroke-miterlimit="4"/><path stroke-linecap="butt" transform="matrix(0.00000000130706, 0.748891, -0.748891, 0.00000000130706, 428.035017, 355.297517)" fill="none" stroke-linejoin="miter" d="M -0.000857454 1.997561 L 21.37973 1.997561 " stroke="#000000" stroke-width="4" stroke-opacity="1" stroke-miterlimit="4"/><path stroke-linecap="butt" transform="matrix(0.748891, 0, 0, 0.748891, 812.853444, 369.356854)" fill="none" stroke-linejoin="miter" d="M -0.0025128 2.001113 L 83.79854 2.001113 " stroke="#000000" stroke-width="4" stroke-opacity="1" stroke-miterlimit="4"/><path stroke-linecap="butt" transform="matrix(0.748891, 0, 0, 0.748891, 812.852318, 354.568225)" fill="none" stroke-linejoin="miter" d="M -0.0010088 2.000535 L 67.15563 2.000535 " stroke="#000000" stroke-width="4" stroke-opacity="1" stroke-miterlimit="4"/><path stroke-linecap="butt" transform="matrix(0, 0.748891, -0.748891, 0, 816.247776, 354.84628)" fill="none" stroke-linejoin="miter" d="M 0.00183765 1.999993 L 21.377209 1.999993 " stroke="#000000" stroke-width="4" stroke-opacity="1" stroke-miterlimit="4"/><path stroke-linecap="butt" transform="matrix(0, 0.748891, -0.748891, 0, 875.573947, 117.789789)" fill="none" stroke-linejoin="miter" d="M -0.000969893 2.0026 L 340.314969 2.0026 " stroke="#000000" stroke-width="4" stroke-opacity="1" stroke-miterlimit="4"/><path stroke-linecap="butt" transform="matrix(0, 0.748891, -0.748891, 0, 862.733123, 117.559418)" fill="none" stroke-linejoin="miter" d="M -0.00110082 2.001291 L 319.461072 2.001291 " stroke="#000000" stroke-width="4" stroke-opacity="1" stroke-miterlimit="4"/><path stroke-linecap="butt" transform="matrix(0.748891, 0, 0, 0.748891, 872.29661, 117.949872)" fill="none" stroke-linejoin="miter" d="M 0.000353776 2.002091 L 117.710945 2.002091 " stroke="#000000" stroke-width="4" stroke-opacity="1" stroke-miterlimit="4"/><path stroke-linecap="butt" transform="matrix(0.000304464, 0.74889, -0.74889, 0.000304464, 975.181129, 103.146911)" fill="none" stroke-linejoin="miter" d="M 0.00122489 1.999672 L 623.204438 1.997451 " stroke="#000000" stroke-width="4" stroke-opacity="1" stroke-miterlimit="4"/><path stroke-linecap="butt" transform="matrix(0, 0.748891, -0.748891, 0, 961.720295, 117.793285)" fill="none" stroke-linejoin="miter" d="M -0.000422643 1.99981 L 404.279933 1.99981 " stroke="#000000" stroke-width="4" stroke-opacity="1" stroke-miterlimit="4"/><path stroke-linecap="butt" transform="matrix(0.74889, -0.00111033, 0.00111033, 0.74889, 766.75256, 566.841904)" fill="none" stroke-linejoin="miter" d="M -0.00116753 2.000212 L 279.104722 2.001956 " stroke="#000000" stroke-width="4" stroke-opacity="1" stroke-miterlimit="4"/><path stroke-linecap="butt" transform="matrix(0.74889, 0.000291225, -0.000291225, 0.74889, 766.755364, 552.173476)" fill="none" stroke-linejoin="miter" d="M -0.00116788 2.000826 L 259.841574 1.998885 " stroke="#000000" stroke-width="4" stroke-opacity="1" stroke-miterlimit="4"/><path stroke-linecap="butt" transform="matrix(0, 0.748891, -0.748891, 0, 770.18231, 552.212873)" fill="none" stroke-linejoin="miter" d="M -0.00258509 2.001249 L 22.895873 2.001249 " stroke="#000000" stroke-width="4" stroke-opacity="1" stroke-miterlimit="4"/><path stroke-linecap="butt" transform="matrix(0.748887, -0.00217365, 0.00217365, 0.748887, 501.485191, 567.423642)" fill="none" stroke-linejoin="miter" d="M -0.0016799 2.000607 L 267.666243 2.000321 " stroke="#000000" stroke-width="4" stroke-opacity="1" stroke-miterlimit="4"/><path stroke-linecap="butt" transform="matrix(0, 0.748891, -0.748891, 0, 504.917098, 552.794707)" fill="none" stroke-linejoin="miter" d="M -0.0023217 2.001801 L 22.896136 2.001801 " stroke="#000000" stroke-width="4" stroke-opacity="1" stroke-miterlimit="4"/><path stroke-linecap="butt" transform="matrix(0, 0.748891, -0.748891, 0, 701.539342, 552.71445)" fill="none" stroke-linejoin="miter" d="M 0.000525306 1.998121 L 22.898983 1.998121 " stroke="#000000" stroke-width="4" stroke-opacity="1" stroke-miterlimit="4"/><path stroke-linecap="butt" transform="matrix(0.748891, 0, 0, 0.748891, 501.489217, 552.945133)" fill="none" stroke-linejoin="miter" d="M -0.00124914 1.997987 L 267.665551 1.997987 " stroke="#000000" stroke-width="4" stroke-opacity="1" stroke-miterlimit="4"/><path stroke-linecap="butt" transform="matrix(0.748891, 0.000000000000001281, -0.000000000000001281, 0.748891, 862.245229, 431.718404)" fill="none" stroke-linejoin="miter" d="M 0.0011542 1.998208 L 132.906098 1.998208 " stroke="#000000" stroke-width="4" stroke-opacity="1" stroke-miterlimit="4"/><path stroke-linecap="butt" transform="matrix(0.748891, 0, 0, 0.748891, 862.337732, 417.48764)" fill="none" stroke-linejoin="miter" d="M -0.00239666 1.998604 L 133.032948 1.998604 " stroke="#000000" stroke-width="4" stroke-opacity="1" stroke-miterlimit="4"/><path stroke-linecap="butt" transform="matrix(0, 0.748891, -0.748891, 0, 865.636589, 417.400577)" fill="none" stroke-linejoin="miter" d="M 0.0023597 1.997574 L 23.151188 1.997574 " stroke="#000000" stroke-width="4" stroke-opacity="1" stroke-miterlimit="4"/><path stroke-linecap="butt" transform="matrix(0, 0.748891, -0.748891, 0, 961.641308, 431.321768)" fill="none" stroke-linejoin="miter" d="M -0.00194363 1.998659 L 166.170964 1.998659 " stroke="#000000" stroke-width="4" stroke-opacity="1" stroke-miterlimit="4"/><g clip-path="url(#2becbc6075)"><g transform="matrix(1, 0, 0, 1, 376, 310)"><g clip-path="url(#06f5125de5)"><g clip-path="url(#d2e2d43303)"><path fill="#fff3c2" d="M 0.320312 0.570312 L 48.640625 0.570312 L 48.640625 63.042969 L 0.320312 63.042969 Z M 0.320312 0.570312 " fill-opacity="1" fill-rule="nonzero"/></g></g></g></g><g clip-path="url(#734bb7ebb6)"><g transform="matrix(1, 0, 0, 1, 770, 310)"><g clip-path="url(#592a6b35b9)"><g clip-path="url(#a92a57a1fb)"><path fill="#fff3c2" d="M 0.585938 0.570312 L 42.851562 0.570312 L 42.851562 63.144531 L 0.585938 63.144531 Z M 0.585938 0.570312 " fill-opacity="1" fill-rule="nonzero"/></g></g></g></g><g clip-path="url(#ae92a19458)"><g transform="matrix(1, 0, 0, 1, 426, 453)"><g clip-path="url(#ff74003029)"><g clip-path="url(#c0b7f8eab5)"><path fill="#d9d9d9" d="M 0.539062 0.566406 L 75.488281 0.566406 L 75.488281 117.679688 L 0.539062 117.679688 Z M 0.539062 0.566406 " fill-opacity="1" fill-rule="nonzero"/></g></g></g></g><g clip-path="url(#fe909a5019)"><g transform="matrix(1, 0, 0, 1, 701, 452)"><g clip-path="url(#222d095acb)"><g clip-path="url(#83830772a5)"><path fill="#d9d9d9" d="M 0.945312 0.6875 L 65.660156 0.6875 L 65.660156 117.980469 L 0.945312 117.980469 Z M 0.945312 0.6875 " fill-opacity="1" fill-rule="nonzero"/></g></g></g></g></svg>